<svg id="Lag_2" data-name="Lag 2" xmlns="http://www.w3.org/2000/svg" viewBox="0 0 451.94 450.63"><defs><style>.cls-1{fill:#fff;}</style></defs><title>Tegnebræt 2</title><rect x="20.73" y="20.73" width="410.47" height="409.16" rx="74.15"/><path d="M357.05,41.47a53.42,53.42,0,0,1,53.42,53.42V355.74a53.42,53.42,0,0,1-53.42,53.42H94.89a53.41,53.41,0,0,1-53.42-53.42V94.89A53.41,53.41,0,0,1,94.89,41.47H357.05m0-41.47H94.89A95,95,0,0,0,0,94.89V355.74a95,95,0,0,0,94.89,94.89H357.05a95,95,0,0,0,94.89-94.89V94.89A95,95,0,0,0,357.05,0Z"/><path class="cls-1" d="M380.47,83.59v60.19c-14.56.9-26.1,1.44-35.5,1.46-4.11,0-11.74-.08-20,3.88a23.89,23.89,0,0,0-5,2.91c-7,5.63-7.07,16-7,28.15.09,16.06.32,28.47.5,36.41l65,1-7,67-59,1q-.25,84.23-.5,168.43l-71.5-.48-1-168.92h-59l1-68,58.5-.49c0-4.13-.06-10.17,0-17.47.19-23.31.28-35,1.5-43.2,1.92-13,4.32-29.2,16.5-44.17a73.88,73.88,0,0,1,23-18.44c21.89-12,43.55-11.85,67-11.65A246.68,246.68,0,0,1,380.47,83.59Z"/></svg>