<svg id="Lag_2" data-name="Lag 2" xmlns="http://www.w3.org/2000/svg" viewBox="0 0 451.94 450.63"><title>Tegnebræt 3</title><path d="M357.05,41.47a53.42,53.42,0,0,1,53.42,53.42V355.74a53.42,53.42,0,0,1-53.42,53.42H94.89a53.41,53.41,0,0,1-53.42-53.42V94.89A53.41,53.41,0,0,1,94.89,41.47H357.05m0-41.47H94.89A95,95,0,0,0,0,94.89V355.74a95,95,0,0,0,94.89,94.89H357.05a95,95,0,0,0,94.89-94.89V94.89A95,95,0,0,0,357.05,0Z"/><path d="M226,153.6a75,75,0,1,1-75,75,75,75,0,0,1,75-75m0-40.42A115.4,115.4,0,1,0,307.56,147,114.63,114.63,0,0,0,226,113.18Z"/><ellipse cx="345.93" cy="107.97" rx="25.43" ry="26.08"/></svg>