<svg id="Layer_1" data-name="Layer 1" xmlns="http://www.w3.org/2000/svg" viewBox="0 0 36.66 36.66"><defs><style>.cls-1{fill:#010101;}</style></defs><title>insta ui</title><path id="Instagram" class="cls-1" d="M32.3,0H4.36A4.36,4.36,0,0,0,0,4.35v28a4.35,4.35,0,0,0,4.36,4.34H32.3a4.35,4.35,0,0,0,4.36-4.34v-28A4.36,4.36,0,0,0,32.3,0ZM26.35,5.73A1.15,1.15,0,0,1,27.5,4.58h3.43a1.15,1.15,0,0,1,1.15,1.15V9.17a1.14,1.14,0,0,1-1.15,1.14H27.5a1.14,1.14,0,0,1-1.15-1.14Zm-8,5.61a7,7,0,1,1-7,7A7,7,0,0,1,18.37,11.34ZM33.23,32.08a1.16,1.16,0,0,1-1.15,1.15H4.58a1.15,1.15,0,0,1-1.14-1.15V14.89H8a7,7,0,0,0-.8,3.48,11.16,11.16,0,0,0,22.31,0,5.9,5.9,0,0,0-.89-3.48h4.59Z"/></svg>