<svg id="Layer_1" data-name="Layer 1" xmlns="http://www.w3.org/2000/svg" viewBox="0 0 170.08 113.39"><defs><style>.cls-1{fill:#fff;}.cls-2{fill:#010202;stroke:#fff;stroke-miterlimit:10;}.cls-3{isolation:isolate;}.cls-4{fill:none;}</style></defs><title>LOGO handler</title><path class="cls-1" d="M46.38,80.69c0-1,0-1.19-.61-1.26l-.16,0c-.06,0,0-.22,0-.25.43,0,.77,0,1.18,0h1.87a13.42,13.42,0,0,0,1.35,0,11.24,11.24,0,0,1,.16,1.33.2.2,0,0,1-.25,0c-.15-.47-.24-.82-.76-1a4.72,4.72,0,0,0-1-.06H47.5c-.3,0-.3,0-.3.4v2c0,.28,0,.28.33.28h.58a3.71,3.71,0,0,0,.85-.06c.12,0,.18-.1.23-.35l.08-.41a.2.2,0,0,1,.26,0c0,.24,0,.63,0,1s0,.74,0,1a.2.2,0,0,1-.26,0L49.18,83c0-.18-.1-.33-.3-.38a3.34,3.34,0,0,0-.77,0h-.58c-.3,0-.33,0-.33.27v1.41c0,.53,0,.87.19,1s.33.23,1.2.23a2.93,2.93,0,0,0,1.28-.15,2.51,2.51,0,0,0,.71-1,.18.18,0,0,1,.25.07,8.71,8.71,0,0,1-.45,1.39l-2.67,0h-.9l-1.36,0a.19.19,0,0,1,0-.25l.33,0c.57-.05.62-.2.62-1.25Z"/><path class="cls-1" d="M53.67,81.89a2.13,2.13,0,0,1,.17.81.17.17,0,0,1-.24,0,1,1,0,0,0-.88-.73.59.59,0,0,0-.64.61c0,.41.42.63.77.83.53.3,1,.64,1,1.35s-.7,1.14-1.44,1.14a1.66,1.66,0,0,1-1.07-.3,3,3,0,0,1-.12-1,.17.17,0,0,1,.23,0c.17.55.49,1,1.06,1A.62.62,0,0,0,53.2,85c0-.46-.4-.71-.77-.92-.58-.33-1-.68-1-1.23,0-.73.6-1.14,1.36-1.14A1.69,1.69,0,0,1,53.67,81.89Z"/><path class="cls-1" d="M56,82.27c-.17,0-.18,0-.18.24v1.87c0,.58.07,1.11.73,1.11a.76.76,0,0,0,.27,0c.09,0,.22-.14.25-.14s.12.11.09.17a1.34,1.34,0,0,1-1,.46c-.86,0-1-.48-1-1.08V82.56c0-.27,0-.29-.21-.29h-.28a.17.17,0,0,1,0-.21,2,2,0,0,0,.64-.31,2.48,2.48,0,0,0,.42-.59s.17,0,.21,0v.45c0,.18,0,.19.18.19h1.11a.31.31,0,0,1,0,.42Z"/><path class="cls-1" d="M61.94,81.17c0-.68,0-.9-.48-.94l-.48,0A.13.13,0,0,1,61,80a4.61,4.61,0,0,0,1.65-.58.09.09,0,0,1,.09,0c0,.18,0,.68,0,1.25v3.88c0,.77,0,.94.43,1l.42,0c.06.06,0,.22,0,.25l-1.19,0c-.36,0-.81,0-1.2,0-.07,0-.08-.19,0-.25l.41,0c.42,0,.43-.2.43-1Z"/><path class="cls-1" d="M66,81.07c0,.78.39,1.68,1.15,1.68a1.42,1.42,0,0,0,.43,0,.11.11,0,0,1,0,.12,1.4,1.4,0,0,1-.9.29,1.57,1.57,0,0,1-1.52-1.69,2,2,0,0,1,2.05-2c1.25,0,2,1.08,2,2.55a4.53,4.53,0,0,1-1.46,3.3,5.16,5.16,0,0,1-2.38,1.15.17.17,0,0,1-.06-.23,4.85,4.85,0,0,0,1.48-.7,4,4,0,0,0,1.53-3.6c0-.91-.26-2.17-1.22-2.17C66.49,79.69,66,80.18,66,81.07Z"/><path class="cls-1" d="M72.9,85.17a1.09,1.09,0,0,0,1.25-.63.2.2,0,0,1,.22.06,4.46,4.46,0,0,1-.46,1.22c-.4,0-.82,0-1.28,0H71.18c-.56,0-.89,0-1.11,0a.14.14,0,0,1-.07-.13s0-.07.11-.11a8.25,8.25,0,0,0,1.53-1.44,4.4,4.4,0,0,0,1.43-2.75c0-.91-.44-1.46-1.25-1.46a1.46,1.46,0,0,0-1.3,1,.16.16,0,0,1-.24-.13,2.1,2.1,0,0,1,2-1.41A1.55,1.55,0,0,1,73.93,81a3.48,3.48,0,0,1-1.06,2.2l-.61.7c-.82.94-.91,1.1-.91,1.16s.05.09.31.09Z"/><path class="cls-1" d="M76,81.07c0,.78.39,1.68,1.15,1.68a1.5,1.5,0,0,0,.44,0,.09.09,0,0,1,0,.12,1.38,1.38,0,0,1-.9.29,1.57,1.57,0,0,1-1.52-1.69,2,2,0,0,1,2.05-2c1.25,0,2,1.08,2,2.55a4.51,4.51,0,0,1-1.47,3.3,5.16,5.16,0,0,1-2.38,1.15.17.17,0,0,1-.06-.23,4.85,4.85,0,0,0,1.48-.7,4,4,0,0,0,1.54-3.6c0-.91-.26-2.17-1.23-2.17C76.49,79.69,76,80.18,76,81.07Z"/><ellipse id="Ellipse_26" data-name="Ellipse 26" class="cls-2" cx="85.04" cy="56.69" rx="79.55" ry="47.75"/><g id="HANDLER" class="cls-3"><g class="cls-3"><path class="cls-1" d="M39.17,53.79c-1.08,0-1.13,0-1.13.72v3.17c0,2.36.12,2.68,1.38,2.81l.65.07a.44.44,0,0,1,0,.56c-1.21,0-2-.07-2.85-.07s-1.74.05-2.61.07a.43.43,0,0,1-.05-.56l.38-.07c1.26-.22,1.31-.45,1.31-2.81v-8.1c0-2.36-.16-2.74-1.33-2.83l-.58,0c-.14-.09-.09-.49,0-.56,1.1,0,1.87.07,2.84.07s1.64,0,2.61-.07c.13.07.18.47,0,.56l-.43,0c-1.3.13-1.35.47-1.35,2.83v2.59c0,.7.05.72,1.13.72H45.6c1.08,0,1.13,0,1.13-.72V49.58c0-2.36,0-2.7-1.38-2.83l-.42,0c-.14-.09-.09-.49,0-.56,1,0,1.8.07,2.72.07s1.64,0,2.66-.07c.13.07.18.47,0,.56l-.47,0c-1.31.13-1.35.47-1.35,2.83v8.1c0,2.36,0,2.65,1.35,2.81l.54.07a.44.44,0,0,1-.05.56c-1.08,0-1.84-.07-2.72-.07s-1.73,0-2.72.07a.43.43,0,0,1,0-.56l.42-.07c1.38-.22,1.38-.45,1.38-2.81V54.51c0-.68,0-.72-1.13-.72Z"/><path class="cls-1" d="M60.61,55.83c-.16-.49-.25-.56-.92-.56h-3.4c-.56,0-.7.07-.85.54l-.79,2.36a8.67,8.67,0,0,0-.5,1.87c0,.27.12.41.66.45l.74.07a.35.35,0,0,1,0,.56c-.58,0-1.28,0-2.34-.07-.74,0-1.55.05-2.16.07a.44.44,0,0,1,0-.56l.74-.07a1.48,1.48,0,0,0,1.35-1.1c.41-1,1-2.5,2-5l2.29-6.07a3.3,3.3,0,0,0,.39-1.6,2.5,2.5,0,0,0,1.17-.85.3.3,0,0,1,.33.2c.3,1,.66,2,1,3l3.08,9c.66,1.93,1,2.27,1.92,2.38l.6.07a.43.43,0,0,1,0,.56c-.92,0-1.71-.07-2.72-.07s-1.93.05-2.58.07a.37.37,0,0,1,0-.56l.65-.07c.48,0,.79-.18.79-.4a4.59,4.59,0,0,0-.29-1.2Zm-4.45-2c-.19.52-.16.54.47.54h2.76c.66,0,.7-.09.5-.69L58.67,50c-.18-.54-.38-1.15-.51-1.42h0a13,13,0,0,0-.54,1.33Z"/><path class="cls-1" d="M80.45,57.23c0,.67,0,3.35.07,3.93a.41.41,0,0,1-.43.25c-.27-.38-.92-1.17-2.88-3.39L72,52.08c-.61-.7-2.13-2.54-2.61-3h0a5.75,5.75,0,0,0-.11,1.46v4.91c0,1.05,0,4,.4,4.65.14.25.59.39,1.15.43l.69.07a.4.4,0,0,1,0,.56c-1,0-1.8-.07-2.63-.07s-1.55,0-2.34.07a.42.42,0,0,1,0-.56l.61-.07c.52-.07.88-.2,1-.45a21.36,21.36,0,0,0,.29-4.63v-6.5a2.06,2.06,0,0,0-.49-1.62,2.45,2.45,0,0,0-1.4-.54l-.38,0a.4.4,0,0,1,0-.56c.94.07,2.13.07,2.54.07a6.5,6.5,0,0,0,1-.07c.45,1.15,3.11,4.12,3.85,5l2.18,2.45c1.55,1.73,2.66,3,3.71,4.07h0a2.24,2.24,0,0,0,.09-.94V51.85c0-1.05,0-4-.45-4.65-.14-.2-.5-.34-1.4-.45l-.38,0a.37.37,0,0,1,0-.56c1,0,1.79.07,2.65.07s1.55,0,2.32-.07a.39.39,0,0,1,0,.56l-.31,0c-.72.11-1.17.29-1.26.47-.39.81-.34,3.6-.34,4.63Z"/><path class="cls-1" d="M86,49.13c0-1.57-.11-2-1-2.18l-.5-.07a.34.34,0,0,1,0-.56c1.92-.11,3.74-.18,5.65-.18a14.09,14.09,0,0,1,5,.68,6.73,6.73,0,0,1,4.56,6.63,7.37,7.37,0,0,1-3.93,6.7,10.84,10.84,0,0,1-5,1.08c-1.44,0-2.88-.18-3.67-.18-.94,0-1.75,0-2.81.07a.43.43,0,0,1,0-.56l.51-.07C85.92,60.31,86,60,86,57.68Zm1.85,8a4.18,4.18,0,0,0,.45,2.45c.49.7,1.35.93,2.76.93,4.37,0,6.32-2.86,6.32-7,0-2.48-1.19-6.66-7.08-6.66a5.14,5.14,0,0,0-2.23.31c-.18.14-.22.7-.22,1.71Z"/><path class="cls-1" d="M103.51,49.58c0-2.36,0-2.72-1.46-2.83l-.56,0c-.14-.09-.09-.49,0-.56,1.26,0,2,.07,2.93.07s1.64,0,2.76-.07a.44.44,0,0,1,0,.56l-.54,0c-1.33.11-1.37.47-1.37,2.83v7.83c0,1.42.06,2,.47,2.43.25.25.67.52,2.45.52s2.39-.09,2.74-.3a4.81,4.81,0,0,0,1.49-2.22c.13-.12.56,0,.56.13a18.41,18.41,0,0,1-.94,3.15c-1.15,0-3.29-.07-5.6-.07h-2.07c-.95,0-1.67,0-2.93.07a.43.43,0,0,1,0-.56l.67-.07c1.31-.13,1.35-.45,1.35-2.81Z"/><path class="cls-1" d="M116,49.58c0-2.34,0-2.67-1.37-2.83l-.36,0a.44.44,0,0,1,0-.56c1,0,1.73.07,2.65.07h4.23a29.18,29.18,0,0,0,3-.07,26.26,26.26,0,0,1,.36,3,.45.45,0,0,1-.57,0c-.33-1.06-.54-1.85-1.71-2.14a11,11,0,0,0-2.18-.13h-1.62c-.67,0-.67,0-.67.89v4.5c0,.63.07.63.74.63h1.3a8.5,8.5,0,0,0,1.92-.13c.27-.09.42-.23.54-.79l.18-.92a.43.43,0,0,1,.58,0c0,.54-.09,1.42-.09,2.27s.09,1.67.09,2.16a.43.43,0,0,1-.58,0l-.21-.87a1,1,0,0,0-.69-.86,7.66,7.66,0,0,0-1.74-.11h-1.3c-.67,0-.74,0-.74.61V57.5c0,1.19.07,2,.43,2.34s.74.52,2.72.52a6.55,6.55,0,0,0,2.88-.34,5.68,5.68,0,0,0,1.59-2.18A.42.42,0,0,1,126,58a19.14,19.14,0,0,1-1,3.13c-2,0-4-.07-6-.07h-2c-1,0-1.73,0-3.06.07a.43.43,0,0,1,0-.56l.74-.07c1.28-.11,1.39-.45,1.39-2.81Z"/><path class="cls-1" d="M129.09,49.6c0-2.13-.06-2.51-1-2.63l-.72-.09a.38.38,0,0,1,0-.56c1.26-.11,2.81-.18,5-.18a7.89,7.89,0,0,1,3.76.68A3.33,3.33,0,0,1,138,50a4.15,4.15,0,0,1-2.81,3.76c-.11.14,0,.36.12.54,1.79,2.9,3,4.7,4.52,6a2.62,2.62,0,0,0,1.55.63.2.2,0,0,1,0,.32,3.4,3.4,0,0,1-1,.11c-1.91,0-3.06-.56-4.65-2.83-.59-.84-1.51-2.39-2.21-3.4a1.6,1.6,0,0,0-1.6-.72c-1,0-1.05,0-1.05.49v2.84c0,2.36,0,2.63,1.35,2.81l.47.07a.44.44,0,0,1,0,.56c-1,0-1.77-.07-2.67-.07s-1.76,0-2.81.07a.43.43,0,0,1,0-.56l.56-.07c1.31-.16,1.35-.45,1.35-2.81Zm1.85,3.22a1.68,1.68,0,0,0,.07.74c.06.07.4.12,1.55.12a3.71,3.71,0,0,0,2.31-.59A3.22,3.22,0,0,0,136,50.3a3.31,3.31,0,0,0-3.6-3.46c-1.39,0-1.46.09-1.46.72Z"/></g></g><rect id="Rectangle_245" data-name="Rectangle 245" class="cls-4" x="66.57" y="71.94" width="42.2" height="11.91"/><g id="Est_1929" data-name="Est 1929" class="cls-3"><g class="cls-3"><path class="cls-1" d="M70.21,76.39c0-1,0-1.19-.61-1.26l-.16,0c-.06,0,0-.22,0-.25.43,0,.77,0,1.18,0h1.88a13.42,13.42,0,0,0,1.35,0A11.24,11.24,0,0,1,74,76.19a.2.2,0,0,1-.25,0c-.15-.47-.24-.82-.76-.95a4.77,4.77,0,0,0-1-.06h-.72c-.3,0-.3,0-.3.4v2c0,.28,0,.28.33.28h.58a3.71,3.71,0,0,0,.85-.06c.12,0,.19-.1.24-.35l.08-.41a.2.2,0,0,1,.26,0c0,.24,0,.63,0,1s0,.74,0,1a.2.2,0,0,1-.26,0L73,78.66a.43.43,0,0,0-.31-.38,3.34,3.34,0,0,0-.77,0h-.58c-.3,0-.33,0-.33.27v1.41c0,.53,0,.87.19,1s.33.23,1.21.23A2.93,2.93,0,0,0,73.71,81a2.51,2.51,0,0,0,.71-1,.18.18,0,0,1,.25.07,8.71,8.71,0,0,1-.45,1.39l-2.68,0h-.9l-1.36,0a.19.19,0,0,1,0-.25l.33,0c.57,0,.62-.2.62-1.25Z"/><path class="cls-1" d="M77.51,77.59a2.34,2.34,0,0,1,.16.81.17.17,0,0,1-.24,0,1,1,0,0,0-.88-.73.59.59,0,0,0-.64.61c0,.41.42.63.77.83.53.3,1,.64,1,1.35s-.7,1.14-1.44,1.14a1.66,1.66,0,0,1-1.07-.3,3,3,0,0,1-.12-1,.17.17,0,0,1,.23,0c.17.55.49,1,1.06,1A.62.62,0,0,0,77,80.7c0-.46-.4-.71-.77-.92-.58-.33-1-.68-1-1.23,0-.73.6-1.14,1.36-1.14A1.77,1.77,0,0,1,77.51,77.59Z"/><path class="cls-1" d="M79.8,78c-.17,0-.18,0-.18.24v1.87c0,.58.07,1.11.73,1.11a.76.76,0,0,0,.27,0c.09,0,.22-.14.25-.14s.12.11.1.17a1.38,1.38,0,0,1-1,.46c-.86,0-1-.48-1-1.08V78.26c0-.27,0-.29-.21-.29h-.28a.18.18,0,0,1,0-.21,2,2,0,0,0,.64-.31,2.48,2.48,0,0,0,.42-.59s.17,0,.21,0v.45c0,.18,0,.19.18.19h1.11a.32.32,0,0,1,0,.42Z"/><path class="cls-1" d="M85.77,76.87c0-.68,0-.9-.48-.94l-.48,0a.13.13,0,0,1,0-.22,4.61,4.61,0,0,0,1.65-.58.12.12,0,0,1,.1,0c0,.18,0,.68,0,1.25v3.88c0,.77,0,.94.43,1l.42,0c.06.06,0,.22,0,.25-.39,0-.84,0-1.19,0s-.81,0-1.2,0c-.07,0-.08-.19,0-.25l.41,0c.42,0,.43-.2.43-1Z"/><path class="cls-1" d="M89.84,76.77c0,.78.39,1.68,1.15,1.68a1.5,1.5,0,0,0,.44,0,.09.09,0,0,1,0,.12,1.38,1.38,0,0,1-.9.29A1.57,1.57,0,0,1,89,77.13a2,2,0,0,1,2-2c1.25,0,2,1.08,2,2.55a4.51,4.51,0,0,1-1.47,3.3,5.16,5.16,0,0,1-2.38,1.15.17.17,0,0,1-.06-.23,4.85,4.85,0,0,0,1.48-.7,4,4,0,0,0,1.54-3.6c0-.91-.26-2.17-1.23-2.17C90.32,75.39,89.84,75.88,89.84,76.77Z"/><path class="cls-1" d="M96.73,80.87a1.41,1.41,0,0,0,.94-.22,1.34,1.34,0,0,0,.32-.41.2.2,0,0,1,.22.06,4.46,4.46,0,0,1-.46,1.22c-.41,0-.83,0-1.29,0H95c-.56,0-.89,0-1.11,0a.14.14,0,0,1-.07-.13s0-.07.11-.11a8.25,8.25,0,0,0,1.53-1.44,4.4,4.4,0,0,0,1.43-2.75c0-.91-.44-1.46-1.25-1.46a1.46,1.46,0,0,0-1.3,1,.16.16,0,0,1-.24-.13,2.1,2.1,0,0,1,2-1.41,1.55,1.55,0,0,1,1.65,1.63,3.45,3.45,0,0,1-1.07,2.2l-.61.7c-.82.94-.91,1.1-.91,1.16s0,.09.31.09Z"/><path class="cls-1" d="M99.84,76.77c0,.78.39,1.68,1.15,1.68a1.5,1.5,0,0,0,.44,0,.09.09,0,0,1,0,.12,1.38,1.38,0,0,1-.9.29A1.57,1.57,0,0,1,99,77.13a2,2,0,0,1,2-2c1.25,0,2,1.08,2,2.55a4.51,4.51,0,0,1-1.47,3.3,5.16,5.16,0,0,1-2.38,1.15.17.17,0,0,1-.06-.23,4.85,4.85,0,0,0,1.48-.7,4,4,0,0,0,1.54-3.6c0-.91-.26-2.17-1.23-2.17C100.32,75.39,99.84,75.88,99.84,76.77Z"/></g></g></svg>
