<svg id="Lag_1" data-name="Lag 1" xmlns="http://www.w3.org/2000/svg" viewBox="0 0 7765.65 4791.97"><defs><style>.cls-1,.cls-2{stroke:#fff;stroke-miterlimit:10;}.cls-1{stroke-width:38.16px;}.cls-2{stroke-width:33.2px;}</style></defs><title>Tegnebræt 5</title><path d="M5375.25,3892.12,190.28,3909C75.2,3909.37-9.61,3808.67.88,3684.05L291.68,227.13C302.23,101.7,404.39,0,519.84,0H5721.59c114.43,0,198.15,101.22,187,226.06L5601.8,3666.87C5590.74,3790.91,5489.32,3891.75,5375.25,3892.12Z"/><circle class="cls-1" cx="1391.13" cy="3843.37" r="802.69"/><circle class="cls-1" cx="4140.15" cy="3899.48" r="802.69"/><rect x="4967.54" y="1787.98" width="2204.18" height="2109.13" rx="276.89"/><path class="cls-2" d="M7481,2720l-2122.14,14.8c-89.92.62-151.52-99.28-138.15-217.95l142.14-1261.56c7.17-63.69,63.43-113.94,125.86-114.18l1475.33-5.7c62.06-.24,130.15,49.36,152.78,112.72l447.89,1253.37C7606.82,2619.24,7570.17,2719.37,7481,2720Z"/></svg>
