<svg id="Layer_1" data-name="Layer 1" xmlns="http://www.w3.org/2000/svg" viewBox="0 0 29.67 28.37"><title>Artboard 2</title><path d="M21.61,24c-.41.06-.81.11-1.21.18-.22,0-.44.1-.66.16l-.09,0-1,.09c-.29,0-.59,0-.88.08a27.32,27.32,0,0,1-4.61.18c-.46,0-.93,0-1.38-.08s-.76-.11-1.14-.17h-.21a10.32,10.32,0,0,1-1.48-.19c-.43-.11-.86-.16-1.28-.25,0,0-.12-.06-.12-.1,0-.19-.06-.37-.09-.56s-.09-.42-.13-.63-.1-.42-.13-.64-.06-.5-.1-.75S7,21,6.93,20.81s-.1-.41-.13-.61c-.07-.41-.11-.82-.18-1.22s-.17-.77-.25-1.16c0-.14,0-.29-.08-.43l-.21-1.28a5.62,5.62,0,0,0-.18-1c-.18-.51-.16-1-.31-1.57a6.15,6.15,0,0,1-.1-.75c0-.21-.08-.41-.13-.62s-.1-.4-.13-.6-.06-.5-.1-.75A2.8,2.8,0,0,0,5,10.5a1.54,1.54,0,0,1,.21-.94A2.45,2.45,0,0,1,5.71,9a3.09,3.09,0,0,1,.44-.24,3.08,3.08,0,0,1,1.56-.19c.19,0,.27-.05.3-.25a3.22,3.22,0,0,1,.19-.6c.07-.2.14-.4.23-.6a7.8,7.8,0,0,1,.45-1A11.07,11.07,0,0,1,9.66,5a6,6,0,0,1,.68-.74A6.32,6.32,0,0,1,11,3.75a7.71,7.71,0,0,1,1-.65,8,8,0,0,1,1.25-.5,6.21,6.21,0,0,1,2.26-.23,1.5,1.5,0,0,1,.74.16,1.67,1.67,0,0,0,.4.1,3.72,3.72,0,0,1,.82.25,10.77,10.77,0,0,1,1.18.7,3.3,3.3,0,0,1,.53.46,7.54,7.54,0,0,1,.58.54,9.34,9.34,0,0,1,.63.78c.14.2.27.42.4.64s.29.49.41.74.25.62.37.93.21.58.33.91h.48a2.67,2.67,0,0,1,.86.1,2.29,2.29,0,0,1,.7.41,2.4,2.4,0,0,1,.46.6,1.24,1.24,0,0,1,.08,1,2.79,2.79,0,0,0-.07.4c-.08.34-.16.69-.22,1A6.66,6.66,0,0,1,24,13a8.68,8.68,0,0,0-.26,1.23c-.05.26-.1.53-.16.79s-.17.66-.25,1c0,.13,0,.26-.07.39-.07.35-.15.69-.22,1a6.22,6.22,0,0,1-.17.88,6.78,6.78,0,0,0-.26,1.25,5.68,5.68,0,0,1-.17.82A11.39,11.39,0,0,0,22,22c-.07.32-.17.64-.25,1,0,.14-.06.28-.08.43S21.64,23.82,21.61,24ZM21.1,8.57c-.1-.27-.19-.52-.3-.76s-.26-.65-.42-1a8.18,8.18,0,0,0-.62-1.08,9.8,9.8,0,0,0-.87-.95,5.24,5.24,0,0,0-.5-.44c-.21-.17-.42-.36-.65-.52a3.5,3.5,0,0,0-.54-.29c-.31-.13-.61-.25-.93-.35a3.28,3.28,0,0,0-.83-.14,4.35,4.35,0,0,0-2.11.24c-.31.14-.64.24-.95.37a2.15,2.15,0,0,0-.52.27c-.21.15-.41.32-.61.49s-.42.35-.61.54a5.39,5.39,0,0,0-.47.6c-.18.24-.37.47-.53.72a7.82,7.82,0,0,0-.43.81c-.15.32-.29.65-.41,1a2.21,2.21,0,0,0-.1.46Zm-9.73,5.29c0,.46.07.9.09,1.35s.07,1.18.08,1.77a12.4,12.4,0,0,0,.14,1.92.05.05,0,0,0,0,0h5.72c0-.2.07-.39.08-.58,0-.57.07-1.14.11-1.71v-.08c.06-.51.12-1,.17-1.53,0-.16,0-.33,0-.49s.05-.46.08-.69Zm-.29-4.57c.06.33.12.62.15.92,0,.58.06,1.16.08,1.75,0,.35,0,.71,0,1.07,0,.19.06.23.23.23h6.35c0-.31.08-.59.1-.87,0-.46.06-.92.09-1.38a3.31,3.31,0,0,1,.09-.62,5.45,5.45,0,0,0,.07-1.08Zm.58,10.19c0,.26.06.5.08.75,0,.57,0,1.15.08,1.73,0,.33,0,.66,0,1s0,.67.07,1a30,30,0,0,0,5.1,0c.11-1.49.26-3,.32-4.46ZM21.89,19a2.1,2.1,0,0,0,.15-.31c.07-.28.11-.57.17-.85l.21-1.06c.07-.35.14-.7.22-1.05s.17-.71.24-1.07.09-.5.13-.76H18.53c-.12,0-.15.05-.16.16,0,.49-.05,1-.08,1.46a.88.88,0,0,1,0,.16,12.57,12.57,0,0,0-.14,1.25A10.87,10.87,0,0,0,18,18.51a4,4,0,0,1-.07.44Zm-11-5.08H6.39c0,.22.07.42.11.62s.09.34.12.51.06.45.09.67,0,.42.09.63c.08.38.18.74.25,1.12s.16,1,.24,1.53H11.1l0-.36c0-.51-.05-1-.08-1.53s-.06-1.19-.07-1.79C10.9,14.82,10.91,14.36,10.91,13.87Zm12.26-.63c.06-.29.12-.54.17-.8s.14-.7.22-1.06l.21-1a.83.83,0,0,0-.24-.68A1.55,1.55,0,0,0,23,9.37a2.54,2.54,0,0,0-1.11-.07c.14.16.13.34.32.42a.74.74,0,0,1,.27.23,1,1,0,0,1,.16.71.8.8,0,0,1-1.14.68A.88.88,0,0,1,21,10.25a.77.77,0,0,1,.2-.34.27.27,0,0,0,.12-.32c0-.1,0-.19-.08-.3H18.8c-.05.57-.11,1.12-.15,1.67s-.07,1.07-.1,1.6c0,0,0,.09,0,.11-.14.18-.05.38-.08.57Zm-12.36,0c0-.44-.07-.85-.09-1.27,0-.59-.06-1.19-.08-1.79,0-.3,0-.59,0-.9H8.55a.42.42,0,0,1,0,.12c-.14.26-.13.32.08.52a1.08,1.08,0,0,1,.11.18,1,1,0,0,1,.09.77.8.8,0,0,1-1.07.55.78.78,0,0,1-.54-.65.83.83,0,0,1,.27-.85c.27-.15.29-.37.26-.65a2.75,2.75,0,0,0-1.41.2,1.46,1.46,0,0,0-.5.52c-.2.33,0,.67,0,1a4.58,4.58,0,0,0,.15.64c.1.53.18,1.07.27,1.61Zm6.74,10.6h.19l.79-.08,1-.09a5.59,5.59,0,0,0,.59-.08l.9-.21c0-.15,0-.32.08-.49.08-.33.18-.66.25-1a7.39,7.39,0,0,1,.27-1.22,3.88,3.88,0,0,0,.16-.85,2.16,2.16,0,0,0,0-.36H18a2.37,2.37,0,0,0-.09.36,14.07,14.07,0,0,1-.18,2.05,11.8,11.8,0,0,0-.1,1.46C17.58,23.51,17.56,23.67,17.55,23.85ZM7.4,19.48a2.37,2.37,0,0,1,.08.31c.06.42.12.84.17,1.26a1.47,1.47,0,0,0,.09.49c.16.23.1.49.17.74s.12.74.18,1.09c.16.05.3.12.44.15.38.07.77.12,1.15.17l1.17.14c.16,0,.32,0,.51,0,0-.58,0-1.15-.09-1.72a12.49,12.49,0,0,0-.11-1.83,3.55,3.55,0,0,1,0-.8Z"/></svg>
