<svg xmlns="http://www.w3.org/2000/svg" viewBox="0 0 2023.85 2982.23"><defs><style>.cls-1,.cls-2{stroke:#fff;}.cls-1,.cls-2,.cls-3{stroke-miterlimit:10;}.cls-1{stroke-width:10.36px;}.cls-2{stroke-width:18.54px;}.cls-3{fill:#fff;stroke:#000;stroke-width:4.66px;}</style></defs><title>Tegnebræt 3</title><g id="Lag_2" data-name="Lag 2"><rect x="224.39" y="643.03" width="1529.26" height="2134.24" rx="173.21"/><path class="cls-1" d="M757.57,241.87h486.81a69.89,69.89,0,0,1,69.89,69.89V556.63a0,0,0,0,1,0,0H673.9a0,0,0,0,1,0,0V325.54A83.67,83.67,0,0,1,757.57,241.87Z"/><path class="cls-2" d="M269.14,495.27H1764.68a141.9,141.9,0,0,1,141.9,141.9V955a0,0,0,0,1,0,0H99.27a0,0,0,0,1,0,0V665.14A169.87,169.87,0,0,1,269.14,495.27Z"/><rect class="cls-3" x="965.87" y="1234.05" width="28.14" height="1214.87"/><rect class="cls-3" x="1411.58" y="1234.02" width="28.14" height="1214.87"/><rect class="cls-3" x="577.1" y="1234.02" width="28.14" height="1214.87"/></g></svg>
