<svg id="Layer_1" data-name="Layer 1" xmlns="http://www.w3.org/2000/svg" viewBox="0 0 8.5 8.5"><title>Artboard 5</title><path d="M1.67,2.94H1.38c0-.39,0-.76,0-1.13a.7.7,0,0,1,.66-.6h1c0-.11,0-.21,0-.31A.42.42,0,0,1,3.54.5H5a.39.39,0,0,1,.39.4c0,.1,0,.2,0,.31h1a1.12,1.12,0,0,1,.32,0,.58.58,0,0,1,.42.52c0,.3,0,.61,0,.93H6.91v.23L6.77,3V7.11a.85.85,0,0,1-.32.73A.8.8,0,0,1,5.91,8H2.53a.8.8,0,0,1-.83-.59,1.31,1.31,0,0,1,0-.34V2.94Zm.62,0v.1c0,1.36,0,2.72,0,4.08,0,.2,0,.26.27.26h3.3c.25,0,.29,0,.29-.29,0-1.34,0-2.67,0-4V3Zm4.36-.49V2c0-.25,0-.28-.28-.28H2.23a.55.55,0,0,0-.19,0c-.07,0-.15.1-.16.16a5.76,5.76,0,0,0,0,.59ZM3.56,1.18H5V1H3.56Z"/><path d="M3.12,3.48v3.3H2.81V3.48Z"/><path d="M5.26,3.48h.31v3.3H5.26Z"/><path d="M4,3.48h.31v3.3H4Z"/></svg>
