<svg id="Layer_1" data-name="Layer 1" xmlns="http://www.w3.org/2000/svg" viewBox="0 0 8.5 8.5"><title>Artboard 4</title><path d="M8.15,2a.9.9,0,0,1-.29.65c-1.51,1.51-3,3-4.5,4.55A1,1,0,0,1,3,7.41c-.64.23-1.29.44-1.93.65l-.24,0c-.36,0-.58-.2-.49-.55S.6,6.8.72,6.43l.06-.15A3.51,3.51,0,0,1,1.93,4.55L5.66.82A1.35,1.35,0,0,1,7,.44,1.49,1.49,0,0,1,8.15,2ZM3.34,6.53l.09-.12c1.34-1.36,2.66-2.72,4-4.06a.66.66,0,0,0,.19-.63A1,1,0,0,0,7,1a.89.89,0,0,0-1,.22L2.21,5a.48.48,0,0,1-.17.1ZM1.69,5.46A16.34,16.34,0,0,0,.88,7.55l0,0L3,6.9Z"/></svg>
