<svg id="Lag_2" data-name="Lag 2" xmlns="http://www.w3.org/2000/svg" viewBox="0 0 479 460"><title>Tegnebræt 1</title><path d="M369.58,47.3A53.42,53.42,0,0,1,423,100.72V361.58A53.42,53.42,0,0,1,369.58,415H107.42A53.42,53.42,0,0,1,54,361.58V100.72A53.42,53.42,0,0,1,107.42,47.3H369.58m0-41.46H107.42a95,95,0,0,0-94.89,94.88V361.58a95,95,0,0,0,94.89,94.89H369.58a95,95,0,0,0,94.89-94.89V100.72A95,95,0,0,0,369.58,5.84Z"/><path d="M238.5,159.44a75,75,0,1,1-75,75,75,75,0,0,1,75-75m0-40.42a115.38,115.38,0,1,0,81.6,33.8A114.64,114.64,0,0,0,238.5,119Z"/><ellipse cx="358.46" cy="113.8" rx="25.43" ry="26.08"/></svg>