<svg xmlns="http://www.w3.org/2000/svg" viewBox="0 0 170.08 113.39"><defs><style>.cls-1{fill:#010202;}.cls-2{fill:#fff;}</style></defs><title>Logo nyt handler</title><g id="Layer_2" data-name="Layer 2"><ellipse class="cls-1" cx="85.04" cy="56.69" rx="79.36" ry="47.75"/><path class="cls-2" d="M48.62,47.35c-1.72.18-1.87.31-1.87,2.13v8.43c0,1.83.18,2,1.87,2.11v.82h-6.8V60c1.74-.22,1.87-.28,1.87-2.11V53.77H37.75v4.14c0,1.83.2,1.94,1.85,2.11v.82H32.82V60c1.63-.17,1.87-.28,1.87-2.11V49.48c0-1.82-.19-2-1.87-2.13v-.81H39.6v.81c-1.67.15-1.85.31-1.85,2.13v3.15h5.94V49.48c0-1.82-.22-1.95-1.87-2.13v-.81h6.8Z"/><path class="cls-2" d="M57.79,60.84V60c1.39-.19,1.39-.44,1.08-1.38C58.65,58,58.3,57,58,56.11H53.68c-.24.68-.55,1.51-.77,2.2-.46,1.38.06,1.56,1.8,1.71v.82H49.28V60c1.38-.17,1.74-.37,2.48-2.22l4.58-11.37,1.06-.2c1.41,3.83,2.9,7.74,4.33,11.42.82,2,1,2.2,2.44,2.37v.82ZM55.86,50.32c-.64,1.58-1.26,3.06-1.81,4.66h3.5Z"/><path class="cls-2" d="M80.3,47.35c-1.34.18-1.76.46-1.83,1.45s-.13,1.61-.13,3.52v8.76H77.11l-9.18-11v5c0,1.91,0,2.77.11,3.41.09,1,.55,1.48,2.18,1.56v.82H64.77V60c1.25-.11,1.8-.44,1.93-1.47a29.34,29.34,0,0,0,.13-3.5V49.84a2.65,2.65,0,0,0-.46-1.79c-.39-.55-.92-.61-1.85-.7v-.81h4.29l8.39,9.74v-4c0-1.91,0-2.64-.09-3.45s-.42-1.41-2.25-1.52v-.81H80.3Z"/><path class="cls-2" d="M88.42,46.54c2.81,0,4.88.59,6.29,1.91a6.25,6.25,0,0,1,2,4.8A6.92,6.92,0,0,1,93.94,59a10.09,10.09,0,0,1-6.23,1.85h-6V60c1.67-.13,1.87-.33,1.87-2.15V49.51c0-1.85-.24-2-1.87-2.16v-.81ZM86.59,57.71c0,1.57.4,2.09,2,2.09,3,0,4.69-2.07,4.69-6.22a6.82,6.82,0,0,0-1.58-4.87,4.67,4.67,0,0,0-3.55-1.23,2,2,0,0,0-1.32.31c-.2.2-.24.57-.24,1.21Z"/><path class="cls-2" d="M110.26,57c-.17.95-.79,3.28-1,3.88H98.36V60c1.94-.13,2.11-.28,2.11-2.13V49.51c0-1.85-.22-2-1.87-2.16v-.81h6.87v.81c-1.72.15-1.94.31-1.94,2.16V58c0,1.21,0,1.76,1.25,1.79,0,0,1.06,0,1.15,0A2.23,2.23,0,0,0,108,59a9.29,9.29,0,0,0,1.39-2.29Z"/><path class="cls-2" d="M123.38,57.1c-.11.59-.73,3.12-.93,3.74H111v-.79c2-.2,2.14-.31,2.14-2.16V49.48c0-1.87-.27-2-1.76-2.13v-.81h7.15c2.31,0,3.08,0,3.38,0,0,.4.14,2.2.23,3.57l-.86.11a5.67,5.67,0,0,0-1-2.05c-.39-.44-.68-.57-1.8-.57h-1.43c-.84,0-.93,0-.93.79v4.6h2.16c1.23,0,1.45-.33,1.78-1.89H121V56h-.86c-.35-1.63-.53-1.89-1.8-1.89H116.2v3.79c0,1.51,0,2,1.41,2h1.56c1.23,0,1.56-.16,2-.75a9.74,9.74,0,0,0,1.34-2.2Z"/><path class="cls-2" d="M138.51,61c-.13,0-.39,0-.66,0-2.79-.13-3.61-.73-4.27-1.65a38.14,38.14,0,0,1-2.26-3.88A1.25,1.25,0,0,0,130,54.7l-.44,0v3.21c0,1.78.22,1.94,1.87,2.13v.82h-6.73V60c1.67-.17,1.87-.35,1.87-2.13V49.46c0-1.74-.22-2-1.87-2.11v-.81h6.38a6.74,6.74,0,0,1,4,.83,3.35,3.35,0,0,1,1.48,2.93,3.75,3.75,0,0,1-2.75,3.56c.33.66,1.19,2.09,1.85,3.1a16.71,16.71,0,0,0,1.67,2.29,2.66,2.66,0,0,0,1.39,1Zm-8.38-7.2a3.21,3.21,0,0,0,2.15-.57,3.11,3.11,0,0,0,1-2.57c0-2.33-1.34-3.17-2.58-3.17-.59,0-.88.09-1,.22s-.2.4-.2.84v5.25Z"/><path class="cls-2" d="M73.53,76.1c-.06.26-.33,1.29-.43,1.59H68.24v-.28c.93-.07,1-.16,1-1v-4c0-.89-.11-.94-.86-1v-.28h3.06c.94,0,1.33,0,1.45,0,0,.25,0,1,.09,1.53l-.3,0a3.33,3.33,0,0,0-.3-.76c-.16-.33-.39-.4-1-.4h-1c-.31,0-.33,0-.33.32v2.21h1.11c.75,0,.8-.15.92-.83h.31v2.06h-.31c-.13-.72-.21-.82-.93-.82h-1.1v2c0,.7.22.76.72.77h.93c.61,0,.71-.09.93-.35a4.29,4.29,0,0,0,.54-.92Z"/><path class="cls-2" d="M76.72,74.49c-.18-.58-.44-1-1-1a.61.61,0,0,0-.62.65c0,.43.29.63.85.89.86.41,1.29.71,1.29,1.37a1.49,1.49,0,0,1-1.63,1.39,2.61,2.61,0,0,1-1.19-.28c-.05-.29-.14-.84-.18-1.17l.29,0c.18.64.53,1.16,1.23,1.16a.67.67,0,0,0,.7-.68c0-.45-.27-.68-.8-.94-.7-.34-1.27-.66-1.27-1.38a1.39,1.39,0,0,1,1.56-1.29,5.15,5.15,0,0,1,1,.13c0,.24.1.87.15,1.11Z"/><path class="cls-2" d="M79.71,77.68a1,1,0,0,1-.43.13c-.64,0-1-.39-1-1.19V73.71h-.69l0-.12.27-.29h.46v-.84c.19-.2.48-.46.67-.66l.15,0c0,.42,0,1,0,1.48h1.14a.31.31,0,0,1-.06.41H79.09v2.56c0,.81.32,1,.58,1a1.43,1.43,0,0,0,.61-.16l.09.26Z"/><path class="cls-2" d="M83.7,77.69v-.28c1.11-.07,1.17-.12,1.17-.87V72.7c0-.51-.07-.53-.51-.57l-.49,0v-.25a8.26,8.26,0,0,0,1.83-.49v5.2c0,.76.06.8,1.18.87v.28Z"/><path class="cls-2" d="M91.1,74.79l-.67.34a1.3,1.3,0,0,1-.6.15A1.78,1.78,0,0,1,88,73.41a2.06,2.06,0,0,1,2-2.07c1.29,0,2,1.14,2,2.5a4,4,0,0,1-2.53,3.74,4.69,4.69,0,0,1-1.19.26l-.08-.29A3.38,3.38,0,0,0,91.1,74.79ZM90,71.69c-.78,0-1,.74-1,1.44,0,.88.49,1.61,1.33,1.61a1.53,1.53,0,0,0,.9-.29,5,5,0,0,0,0-.65C91.18,72.91,90.93,71.69,90,71.69Z"/><path class="cls-2" d="M97,76.36c-.13.45-.3,1-.39,1.33H92.82v-.24c.55-.54,1.15-1.13,1.64-1.7a4,4,0,0,0,1.23-2.41c0-.83-.44-1.31-1.17-1.31a1.74,1.74,0,0,0-1.38.93l-.23-.21.57-.81a1.81,1.81,0,0,1,1.37-.6,1.63,1.63,0,0,1,1.7,1.73,3.24,3.24,0,0,1-1.26,2.42c-.43.45-1.06,1.06-1.49,1.47h1.91c.54,0,.69,0,1-.68Z"/><path class="cls-2" d="M100.8,74.79l-.67.34a1.3,1.3,0,0,1-.6.15,1.78,1.78,0,0,1-1.8-1.87,2.06,2.06,0,0,1,2-2.07c1.28,0,2,1.14,2,2.5a4,4,0,0,1-2.52,3.74,4.69,4.69,0,0,1-1.19.26L98,77.55A3.38,3.38,0,0,0,100.8,74.79Zm-1.14-3.1c-.78,0-1,.74-1,1.44,0,.88.49,1.61,1.33,1.61a1.53,1.53,0,0,0,.9-.29,5,5,0,0,0,0-.65C100.88,72.91,100.63,71.69,99.66,71.69Z"/></g></svg>
