<svg id="Lag_1" data-name="Lag 1" xmlns="http://www.w3.org/2000/svg" viewBox="0 0 2950.65 2162.21"><defs><style>.cls-1{fill:#fff;}</style></defs><title>Tegnebræt 7</title><path d="M1551,57.84q213.09,354.81,426.16,709.62L2046,727.73,1649.84,3.57Z"/><path d="M1351.79,54.27,925.63,763.89l-68.82-39.74L1253,0Z"/><path d="M2505.63,2162.21H432.51c-72.94,0-142.55-59.66-155.74-134.74L97.52,1006.75C79.64,905,135.86,820.49,223.51,820.49H2714.62c87.65,0,143.87,84.48,126,186.26L2661.36,2027.47C2648.17,2102.55,2578.57,2162.21,2505.63,2162.21Z"/><rect y="690.25" width="2950.65" height="315" rx="50.63"/><ellipse class="cls-1" cx="2053.59" cy="834.73" rx="80.58" ry="78.88"/><ellipse class="cls-1" cx="871.11" cy="831.03" rx="80.58" ry="78.88"/></svg>
