<svg id="Layer_1" data-name="Layer 1" xmlns="http://www.w3.org/2000/svg" viewBox="0 0 822.05 396.85"><defs><style>.cls-1{fill:#fff;}.cls-2,.cls-4,.cls-5{fill:none;}.cls-2{stroke:#a19e9e;}.cls-3{isolation:isolate;}.cls-4{stroke:#c8c7c7;}.cls-5{stroke:#717070;}.cls-6{fill:#717070;}.cls-7{fill:#010101;}</style></defs><title>Artboard 3</title><g id="Rectangle_237" data-name="Rectangle 237"><rect class="cls-1" x="10.52" y="6.43" width="801" height="384"/><rect class="cls-2" x="11.02" y="6.93" width="800" height="383"/></g><g id="Vælg_betalingsmetode" data-name="Vælg betalingsmetode" class="cls-3"><g class="cls-3"><path d="M83,66.29l.67,3h0l.73-3,4.73-13.41h2.32l-7.42,19.9H83l-7.56-19.9H78Z"/><path d="M100.3,70.07a6.86,6.86,0,0,1-.84,1,5.1,5.1,0,0,1-1.07.81,6.43,6.43,0,0,1-1.38.58,6.35,6.35,0,0,1-1.69.22,4.8,4.8,0,0,1-1.67-.28,4,4,0,0,1-1.33-.8,3.83,3.83,0,0,1-.88-1.24,4.16,4.16,0,0,1-.32-1.66,3.92,3.92,0,0,1,.5-2A3.7,3.7,0,0,1,93,65.3a6.82,6.82,0,0,1,2.18-.7A17.42,17.42,0,0,1,98,64.39h.77a5.19,5.19,0,0,1,.77.06c0-.28,0-.55,0-.8s0-.49,0-.72A3.07,3.07,0,0,0,99,60.76a3,3,0,0,0-2.24-.6,9.72,9.72,0,0,0-1,.07c-.36.05-.74.12-1.12.21a8.67,8.67,0,0,0-1.09.31,6,6,0,0,0-.91.42L92,59.46a8.11,8.11,0,0,1,2.48-1,13.47,13.47,0,0,1,3-.31c2,0,3.23.61,3.81,1.82a4.16,4.16,0,0,1,2-1.47,6.91,6.91,0,0,1,2.46-.46,8.87,8.87,0,0,1,1.91.21,4.22,4.22,0,0,1,1.71.81,4.38,4.38,0,0,1,1.23,1.7,7.33,7.33,0,0,1,.47,2.85c0,.3,0,.61,0,.94s-.06.68-.1,1.05h-9a6.19,6.19,0,0,0,1,3.79,4.08,4.08,0,0,0,3.49,1.36,5.34,5.34,0,0,0,1.92-.35,5,5,0,0,0,1.44-.77l.84,1.63a6.48,6.48,0,0,1-2.12,1.06,9.18,9.18,0,0,1-2.7.39,6.69,6.69,0,0,1-3.09-.7,4.52,4.52,0,0,1-2.06-2Zm-4.36.62a4.38,4.38,0,0,0,1.4-.21A4.2,4.2,0,0,0,98.4,70a3.39,3.39,0,0,0,.74-.72,3.31,3.31,0,0,0,.44-.75V66.15l-.8,0H98a13.35,13.35,0,0,0-1.69.1,5,5,0,0,0-1.46.36,2.56,2.56,0,0,0-1,.73,1.78,1.78,0,0,0-.38,1.16,2.1,2.1,0,0,0,.7,1.61A2.6,2.6,0,0,0,95.94,70.69Zm9.71-10.64a3.93,3.93,0,0,0-2.66.87,4.22,4.22,0,0,0-1.17,3h6.94v-.34a3.57,3.57,0,0,0-.85-2.7A3.2,3.2,0,0,0,105.65,60.05Z"/><path d="M117,69a2.28,2.28,0,0,0,.34,1.4,1.14,1.14,0,0,0,1,.42,7.61,7.61,0,0,0,.79,0,4.91,4.91,0,0,0,.95-.26l.25,1.77a4.5,4.5,0,0,1-1.25.36,8.46,8.46,0,0,1-1.38.14,3,3,0,0,1-2.07-.71,3.07,3.07,0,0,1-.82-2.42V52.83H117Z"/><path d="M133.37,73.07a5.1,5.1,0,0,1-1.44,4,6.23,6.23,0,0,1-4.27,1.29,13.91,13.91,0,0,1-2.7-.21,8.24,8.24,0,0,1-1.75-.54l.59-1.91c.43.17.9.33,1.42.48a7.72,7.72,0,0,0,2,.22,7.15,7.15,0,0,0,1.91-.21,2.47,2.47,0,0,0,1.2-.7,2.76,2.76,0,0,0,.61-1.26,8.77,8.77,0,0,0,.17-1.83V71.05h-.11a3.73,3.73,0,0,1-1.43,1.25,5.1,5.1,0,0,1-2.27.43A4.87,4.87,0,0,1,123.19,71c-.88-1.18-1.33-3-1.33-5.49A7.77,7.77,0,0,1,123.57,60a6.48,6.48,0,0,1,5-1.87,12.51,12.51,0,0,1,2.73.26,14.6,14.6,0,0,1,2,.58Zm-5.63-2.3a3.24,3.24,0,0,0,2.24-.71,4,4,0,0,0,1.15-2.23V60.67a6.59,6.59,0,0,0-2.85-.54,3.73,3.73,0,0,0-3,1.29,6.14,6.14,0,0,0-1.09,4,11.06,11.06,0,0,0,.19,2.16,5.29,5.29,0,0,0,.62,1.68,3,3,0,0,0,1.09,1.09A3.25,3.25,0,0,0,127.74,70.77Z"/><path d="M145.16,52.83h2.24v7h.11a4.38,4.38,0,0,1,1.64-1.26,5.2,5.2,0,0,1,2.17-.45,4.84,4.84,0,0,1,4.07,1.74c.91,1.15,1.36,3,1.36,5.37A7.85,7.85,0,0,1,155,70.77a6.6,6.6,0,0,1-5,1.91,10.84,10.84,0,0,1-2.84-.34,7.43,7.43,0,0,1-1.92-.73Zm5.77,7.22a3.26,3.26,0,0,0-2.27.78,4.5,4.5,0,0,0-1.26,2.22v7a4,4,0,0,0,1.29.46,7.27,7.27,0,0,0,1.57.16,3.75,3.75,0,0,0,3-1.35,6.39,6.39,0,0,0,1.14-4.2,10.15,10.15,0,0,0-.2-2,4.76,4.76,0,0,0-.62-1.62,3,3,0,0,0-1.07-1.07A3.12,3.12,0,0,0,150.93,60.05Z"/><path d="M170.5,71.31a6.52,6.52,0,0,1-2.11,1.06,9.2,9.2,0,0,1-2.71.39,6.75,6.75,0,0,1-2.77-.52A4.9,4.9,0,0,1,161,70.76a6.38,6.38,0,0,1-1.12-2.31,11.67,11.67,0,0,1-.37-3,8.23,8.23,0,0,1,1.6-5.46,5.66,5.66,0,0,1,4.56-1.88,8.87,8.87,0,0,1,1.91.21,4.34,4.34,0,0,1,1.71.8,4.22,4.22,0,0,1,1.23,1.66,7.1,7.1,0,0,1,.48,2.85,14.23,14.23,0,0,1-.17,2h-9a8.43,8.43,0,0,0,.25,2.18,4.25,4.25,0,0,0,.78,1.61,3.41,3.41,0,0,0,1.39,1,5.41,5.41,0,0,0,2.09.35,5.76,5.76,0,0,0,1.9-.33,4.2,4.2,0,0,0,1.43-.79Zm-4.82-11.26a3.86,3.86,0,0,0-2.64.87,4.32,4.32,0,0,0-1.19,3h6.94a4.33,4.33,0,0,0-.81-3A3,3,0,0,0,165.68,60.05Z"/><path d="M172.65,58.43h2.19V55.65l2.24-.64v3.42h3.81v2h-3.81v7.75a4.27,4.27,0,0,0,.36,2.06,1.33,1.33,0,0,0,1.23.6,4.43,4.43,0,0,0,1.24-.15c.33-.11.71-.24,1.12-.41l.5,1.71a8.66,8.66,0,0,1-1.65.59,7.92,7.92,0,0,1-1.93.22,2.78,2.78,0,0,1-2.41-1,5.68,5.68,0,0,1-.7-3.24V60.39h-2.19Z"/><path d="M183.77,59.46a8.21,8.21,0,0,1,2.48-1,13.54,13.54,0,0,1,2.95-.31,5.88,5.88,0,0,1,2.34.39,3.26,3.26,0,0,1,1.34,1A3.44,3.44,0,0,1,193.5,61a7.81,7.81,0,0,1,.15,1.51c0,1.12,0,2.22-.08,3.28s-.08,2.07-.08,3c0,.69,0,1.35.08,2a9.47,9.47,0,0,0,.31,1.71h-1.65l-.59-2h-.14a4.84,4.84,0,0,1-.63.77A4,4,0,0,1,190,72a5.74,5.74,0,0,1-1.23.49,6,6,0,0,1-1.6.2,4.8,4.8,0,0,1-1.67-.28,4,4,0,0,1-1.33-.8,3.83,3.83,0,0,1-.88-1.24,4.16,4.16,0,0,1-.32-1.66,3.92,3.92,0,0,1,.5-2,3.7,3.7,0,0,1,1.42-1.32,6.82,6.82,0,0,1,2.18-.7,17.42,17.42,0,0,1,2.82-.21h.77a5.19,5.19,0,0,1,.77.06c.05-.56.08-1.07.08-1.52a3,3,0,0,0-.62-2.15,3.14,3.14,0,0,0-2.24-.62,9.72,9.72,0,0,0-1,.07c-.36.05-.74.12-1.12.21a9.18,9.18,0,0,0-1.09.31,6,6,0,0,0-.91.42Zm4,11.23a4.38,4.38,0,0,0,1.4-.21,4.2,4.2,0,0,0,1.06-.53,3.39,3.39,0,0,0,.74-.72,3.31,3.31,0,0,0,.44-.75V66.15l-.8,0h-.8a13.35,13.35,0,0,0-1.69.1,5.12,5.12,0,0,0-1.46.36,2.56,2.56,0,0,0-1,.73,1.78,1.78,0,0,0-.38,1.16,2.1,2.1,0,0,0,.7,1.61A2.6,2.6,0,0,0,187.75,70.69Z"/><path d="M200.37,69a2.28,2.28,0,0,0,.34,1.4,1.14,1.14,0,0,0,.95.42,7.61,7.61,0,0,0,.79,0,4.91,4.91,0,0,0,1-.26l.25,1.77a4.5,4.5,0,0,1-1.25.36,8.46,8.46,0,0,1-1.38.14,3,3,0,0,1-2.07-.71,3.07,3.07,0,0,1-.82-2.42V52.83h2.24Z"/><path d="M206.06,54.17a1.56,1.56,0,0,1,.43-1.11,1.48,1.48,0,0,1,1.11-.46,1.63,1.63,0,0,1,1.15.46,1.52,1.52,0,0,1,.47,1.11,1.37,1.37,0,0,1-.47,1.06,1.68,1.68,0,0,1-1.15.42,1.53,1.53,0,0,1-1.11-.42A1.4,1.4,0,0,1,206.06,54.17Zm.47,4.26h2.24v14h-2.24Z"/><path d="M222.55,72.43v-8a6.77,6.77,0,0,0-.63-3.29,2.42,2.42,0,0,0-2.31-1.11,3.72,3.72,0,0,0-2.45.8,4.27,4.27,0,0,0-1.36,2v9.58h-2.24v-14h1.57l.42,1.7h.11a5.23,5.23,0,0,1,1.81-1.47,5.91,5.91,0,0,1,2.7-.57,6.74,6.74,0,0,1,2,.27,3.06,3.06,0,0,1,1.45.93,4.56,4.56,0,0,1,.87,1.81,12,12,0,0,1,.29,2.87v8.46Z"/><path d="M239.6,73.07a5.1,5.1,0,0,1-1.44,4,6.23,6.23,0,0,1-4.27,1.29,13.91,13.91,0,0,1-2.7-.21,8.24,8.24,0,0,1-1.75-.54L230,75.7a14.67,14.67,0,0,0,1.42.48,7.72,7.72,0,0,0,2.05.22,7.29,7.29,0,0,0,1.92-.21,2.41,2.41,0,0,0,1.18-.7,2.67,2.67,0,0,0,.62-1.26,8.77,8.77,0,0,0,.17-1.83V71.05h-.11a3.73,3.73,0,0,1-1.43,1.25,5.1,5.1,0,0,1-2.27.43A4.87,4.87,0,0,1,229.42,71c-.88-1.18-1.33-3-1.33-5.49A7.77,7.77,0,0,1,229.8,60a6.48,6.48,0,0,1,5-1.87,12.51,12.51,0,0,1,2.73.26,14.6,14.6,0,0,1,2,.58ZM234,70.77a3.24,3.24,0,0,0,2.24-.71,4,4,0,0,0,1.15-2.23V60.67a6.59,6.59,0,0,0-2.85-.54,3.73,3.73,0,0,0-3,1.29,6.14,6.14,0,0,0-1.09,4,11.06,11.06,0,0,0,.19,2.16,5.29,5.29,0,0,0,.62,1.68,3,3,0,0,0,1.09,1.09A3.25,3.25,0,0,0,234,70.77Z"/><path d="M250.07,68.62a1.76,1.76,0,0,0-.5-1.32,4.33,4.33,0,0,0-1.25-.8c-.49-.21-1-.42-1.62-.61a7.85,7.85,0,0,1-1.63-.76,4.26,4.26,0,0,1-1.24-1.19,3.35,3.35,0,0,1-.51-2A3.6,3.6,0,0,1,244.47,59a4.9,4.9,0,0,1,3.2-.94,10.1,10.1,0,0,1,2.53.27A9,9,0,0,1,252,59l-.54,1.84a8.92,8.92,0,0,0-1.55-.54,7.6,7.6,0,0,0-1.95-.24,3.06,3.06,0,0,0-1.8.42,1.71,1.71,0,0,0-.58,1.46,1.37,1.37,0,0,0,.51,1.13,5.56,5.56,0,0,0,1.24.73c.5.21,1,.42,1.63.63a6.47,6.47,0,0,1,1.62.81,4.58,4.58,0,0,1,1.25,1.27,3.72,3.72,0,0,1,.5,2,4.64,4.64,0,0,1-.29,1.68,3.47,3.47,0,0,1-.91,1.35,4.39,4.39,0,0,1-1.53.88,6.51,6.51,0,0,1-2.14.32,10.1,10.1,0,0,1-2.71-.31,8.21,8.21,0,0,1-1.88-.72l.67-1.91a8.12,8.12,0,0,0,1.68.67,7.17,7.17,0,0,0,2.1.31,3.86,3.86,0,0,0,2-.47A1.84,1.84,0,0,0,250.07,68.62Z"/><path d="M263.9,72.43V64.5a18.21,18.21,0,0,0-.09-1.94,4.51,4.51,0,0,0-.38-1.39,1.91,1.91,0,0,0-.8-.84,2.83,2.83,0,0,0-1.36-.28,3,3,0,0,0-2.14.78,4.17,4.17,0,0,0-1.19,2v9.64H255.7v-14h1.57l.42,1.7h.11a6.85,6.85,0,0,1,1.75-1.47,5.18,5.18,0,0,1,2.59-.57,4.14,4.14,0,0,1,2.2.52,3.38,3.38,0,0,1,1.33,1.8,4.55,4.55,0,0,1,1.78-1.7,5.16,5.16,0,0,1,2.56-.62,6.43,6.43,0,0,1,2,.27,2.75,2.75,0,0,1,1.34.93,4.43,4.43,0,0,1,.77,1.82,14.71,14.71,0,0,1,.24,2.92v8.4h-2.24V64a12.72,12.72,0,0,0-.1-1.75,3.3,3.3,0,0,0-.39-1.23,1.84,1.84,0,0,0-.81-.73,3.28,3.28,0,0,0-1.36-.24,3,3,0,0,0-2.18.78,4.56,4.56,0,0,0-1.13,2.24v9.36Z"/><path d="M288.66,71.31a6.48,6.48,0,0,1-2.12,1.06,9.18,9.18,0,0,1-2.7.39,6.75,6.75,0,0,1-2.77-.52,4.83,4.83,0,0,1-1.93-1.48A6.22,6.22,0,0,1,278,68.45a11.25,11.25,0,0,1-.37-3,8.18,8.18,0,0,1,1.6-5.46,5.65,5.65,0,0,1,4.56-1.88,8.87,8.87,0,0,1,1.91.21,4.23,4.23,0,0,1,1.7.8,4.15,4.15,0,0,1,1.24,1.66,7.3,7.3,0,0,1,.47,2.85,12.92,12.92,0,0,1-.17,2h-9a8.43,8.43,0,0,0,.25,2.18,4.25,4.25,0,0,0,.78,1.61,3.41,3.41,0,0,0,1.39,1,5.36,5.36,0,0,0,2.08.35,5.82,5.82,0,0,0,1.91-.33,4.2,4.2,0,0,0,1.43-.79Zm-4.82-11.26a3.9,3.9,0,0,0-2.65.87,4.41,4.41,0,0,0-1.19,3H287a4.33,4.33,0,0,0-.81-3A3,3,0,0,0,283.84,60.05Z"/><path d="M290.81,58.43H293V55.65l2.24-.64v3.42H299v2h-3.8v7.75a4.27,4.27,0,0,0,.36,2.06,1.32,1.32,0,0,0,1.23.6,4.3,4.3,0,0,0,1.23-.15c.34-.11.71-.24,1.12-.41l.51,1.71a9.18,9.18,0,0,1-1.65.59,8,8,0,0,1-1.94.22,2.77,2.77,0,0,1-2.4-1,5.68,5.68,0,0,1-.7-3.24V60.39h-2.19Z"/><path d="M301.06,65.43A8.31,8.31,0,0,1,302.64,60a5.61,5.61,0,0,1,4.55-1.89,6.55,6.55,0,0,1,2.73.52,4.87,4.87,0,0,1,1.92,1.48A6.48,6.48,0,0,1,313,62.42a11.66,11.66,0,0,1,.36,3,8.23,8.23,0,0,1-1.58,5.44,5.59,5.59,0,0,1-4.55,1.89,6.62,6.62,0,0,1-2.73-.52,5,5,0,0,1-1.92-1.48,6.6,6.6,0,0,1-1.12-2.32A11.77,11.77,0,0,1,301.06,65.43Zm2.32,0a9.67,9.67,0,0,0,.21,2,5.44,5.44,0,0,0,.66,1.71,3.48,3.48,0,0,0,1.18,1.17,3.27,3.27,0,0,0,1.76.45q3.81,0,3.81-5.37a10,10,0,0,0-.21-2.08,5.29,5.29,0,0,0-.66-1.7,3.22,3.22,0,0,0-2.94-1.6Q303.38,60,303.38,65.43Z"/><path d="M327.6,67.61c0,1,0,1.82,0,2.59a13.26,13.26,0,0,0,.25,2.28h-1.51l-.56-2h-.11a4.44,4.44,0,0,1-1.62,1.63,4.72,4.72,0,0,1-2.5.64A4.92,4.92,0,0,1,317.43,71q-1.37-1.77-1.36-5.52A7.81,7.81,0,0,1,317.76,60a6,6,0,0,1,4.66-1.87,8.8,8.8,0,0,1,1.64.12,7.55,7.55,0,0,1,1.3.36V52.83h2.24ZM322,70.8a3.33,3.33,0,0,0,2.27-.74,3.92,3.92,0,0,0,1.14-2.25v-7a3,3,0,0,0-1.14-.56,7.1,7.1,0,0,0-1.71-.17,3.79,3.79,0,0,0-3,1.28,6.25,6.25,0,0,0-1.09,4.07,11.75,11.75,0,0,0,.18,2.13,5.29,5.29,0,0,0,.61,1.68,3.16,3.16,0,0,0,1.1,1.11A3.23,3.23,0,0,0,322,70.8Z"/><path d="M342.14,71.31A6.48,6.48,0,0,1,340,72.37a9.18,9.18,0,0,1-2.7.39,6.75,6.75,0,0,1-2.77-.52,4.83,4.83,0,0,1-1.93-1.48,6.22,6.22,0,0,1-1.12-2.31,11.25,11.25,0,0,1-.37-3,8.18,8.18,0,0,1,1.6-5.46,5.65,5.65,0,0,1,4.56-1.88,8.87,8.87,0,0,1,1.91.21,4.23,4.23,0,0,1,1.7.8,4.15,4.15,0,0,1,1.24,1.66,7.3,7.3,0,0,1,.47,2.85,12.92,12.92,0,0,1-.17,2h-9a8.43,8.43,0,0,0,.25,2.18,4.25,4.25,0,0,0,.78,1.61,3.41,3.41,0,0,0,1.39,1,5.36,5.36,0,0,0,2.08.35,5.82,5.82,0,0,0,1.91-.33,4.2,4.2,0,0,0,1.43-.79Zm-4.82-11.26a3.9,3.9,0,0,0-2.65.87,4.36,4.36,0,0,0-1.19,3h6.95a4.33,4.33,0,0,0-.81-3A3,3,0,0,0,337.32,60.05Z"/></g></g><g id="Rectangle_238" data-name="Rectangle 238"><rect class="cls-1" x="63.52" y="96.43" width="648" height="101"/><rect class="cls-4" x="64.02" y="96.93" width="647" height="100"/></g><g id="Ellipse_18" data-name="Ellipse 18"><circle class="cls-1" cx="127.98" cy="146.43" r="12.5"/><circle class="cls-5" cx="127.98" cy="146.43" r="12"/></g><g id="Ellipse_19" data-name="Ellipse 19"><ellipse class="cls-6" cx="127.98" cy="146.43" rx="7.43" ry="7.17"/><ellipse class="cls-5" cx="127.98" cy="146.43" rx="6.97" ry="6.75"/></g><g id="Rectangle_239" data-name="Rectangle 239"><rect class="cls-1" x="63.52" y="212.43" width="648" height="101"/><rect class="cls-4" x="64.02" y="212.93" width="647" height="100"/></g><path class="cls-7" d="M649.09,143.39s.93,4.57,1.14,5.53h-4.11c.41-1.09,2-5.35,2-5.35s.41-1.12.65-1.83l.35,1.65Zm13-18.63v43.33a5.91,5.91,0,0,1-5.91,5.91H597.13a5.91,5.91,0,0,1-5.91-5.91V124.76a5.91,5.91,0,0,1,5.91-5.91h59.08A5.91,5.91,0,0,1,662.12,124.76ZM610,155.68l7.78-19.1h-5.23l-4.84,13-.53-2.65-1.72-8.79a2.06,2.06,0,0,0-2.24-1.61h-8l-.08.38a19.72,19.72,0,0,1,5.19,2.1l4.41,16.62Zm11.62,0,3.1-19.13h-5l-3.09,19.13Zm17.22-6.26c0-2.17-1.3-3.84-4.15-5.2-1.73-.88-2.79-1.47-2.79-2.37s.9-1.65,2.84-1.65a8.55,8.55,0,0,1,3.68.73l.45.21.67-4.14a12.31,12.31,0,0,0-4.43-.81c-4.88,0-8.32,2.61-8.34,6.33,0,2.74,2.46,4.27,4.33,5.19s2.56,1.55,2.56,2.38c0,1.28-1.55,1.87-3,1.87a9.92,9.92,0,0,1-4.64-1l-.65-.31-.69,4.3a15.23,15.23,0,0,0,5.52,1c5.19,0,8.58-2.56,8.61-6.53Zm17.38,6.26-4-19.13H648.4a2.44,2.44,0,0,0-2.59,1.59l-7.35,17.54h5.2l1-2.87H651c.15.68.6,2.87.6,2.87Z"/><path class="cls-7" d="M650.77,285.3a1.39,1.39,0,1,1-1.38-1.45A1.39,1.39,0,0,1,650.77,285.3Zm-38.43-1.45a1.45,1.45,0,1,0,1.35,1.45A1.38,1.38,0,0,0,612.34,283.85Zm14.53,0a1.15,1.15,0,0,0-1.18,1.07h2.37A1.15,1.15,0,0,0,626.87,283.82Zm13.33,0a1.45,1.45,0,1,0,1.38,1.45A1.37,1.37,0,0,0,640.2,283.85Zm13.09,3.23s0,.06,0,.14,0,.06,0,.13,0,.06-.06.1a.15.15,0,0,1-.13.06s-.07,0-.14,0a.25.25,0,0,1-.14,0s-.06,0-.1-.06-.06-.06-.06-.1a.26.26,0,0,1,0-.13.2.2,0,0,1,0-.14.3.3,0,0,1,.06-.14s.07,0,.1-.06a.29.29,0,0,1,.14,0,.21.21,0,0,1,.14,0,.69.69,0,0,0,.13.06S653.26,287,653.29,287.08Zm-.27.17c.06,0,.06,0,.1,0a.12.12,0,0,0,0-.1.11.11,0,0,0,0-.1s-.06,0-.14,0h-.19v.43h.1v-.17h0l.14.17h.1l-.14-.16Zm9.26-42.67v43.53a5.93,5.93,0,0,1-5.93,5.93H597a5.94,5.94,0,0,1-5.93-5.93V244.58a5.94,5.94,0,0,1,5.93-5.94h59.36A5.93,5.93,0,0,1,662.28,244.58ZM599,261.84a17.12,17.12,0,0,0,26.59,14.27,18.43,18.43,0,0,1,0-28.5A17.12,17.12,0,0,0,599,261.84Zm27.7,13.46a17.12,17.12,0,0,0,0-26.9A17.12,17.12,0,0,0,626.67,275.3Zm-17.6,9.43a1.73,1.73,0,0,0-1.81-1.82,1.79,1.79,0,0,0-1.59.81,1.63,1.63,0,0,0-1.51-.81,1.58,1.58,0,0,0-1.31.67V283h-1v4.54h1c0-2.34-.31-3.74,1.12-3.74,1.26,0,1,1.26,1,3.74h1c0-2.27-.31-3.74,1.11-3.74,1.26,0,1,1.24,1,3.74h1v-2.85Zm5.56-1.69h-1v.54a1.77,1.77,0,0,0-1.45-.67,2.39,2.39,0,0,0,0,4.78,1.72,1.72,0,0,0,1.45-.67v.57h1Zm5,3.16c0-1.85-2.83-1-2.83-1.88,0-.7,1.47-.59,2.29-.13l.41-.81c-1.16-.75-3.74-.74-3.74,1s2.84,1,2.84,1.85-1.67.72-2.56.1l-.44.78c1.39.94,4,.74,4-.93Zm4.38,1.15-.27-.84c-.47.26-1.51.55-1.51-.51V284h1.62V283h-1.62v-1.39h-1V283h-.94v.9h.94V286c0,2.18,2.14,1.79,2.79,1.35Zm1.65-1.65h3.4c0-2-.92-2.8-2.15-2.8a2.23,2.23,0,0,0-2.26,2.39c0,2.53,2.8,2.95,4.18,1.75l-.47-.74C627.4,287.09,625.94,287,625.66,285.7ZM633,283a1.45,1.45,0,0,0-1.88.54V283h-1v4.54h1V285a1,1,0,0,1,1.59-1L633,283Zm1.32,2.26c0-1.41,1.43-1.87,2.55-1l.47-.8a2.45,2.45,0,1,0,0,3.71l-.47-.81C635.7,287.17,634.28,286.68,634.28,285.3Zm8.24-2.26h-1v.54c-1-1.36-3.7-.59-3.7,1.72s2.77,3.05,3.7,1.72v.57h1Zm4.17,0a1.48,1.48,0,0,0-1.88.54V283h-1v4.54h1V285a1,1,0,0,1,1.58-1l.3-.94Zm5-1.85h-1v2.39c-1-1.35-3.7-.63-3.7,1.72s2.78,3,3.7,1.72v.57h1v-6.4Zm.94-9.28v.57h.1v-.57H653v-.1h-.57v.1Zm.82,15.31a.34.34,0,0,0,0-.2,1.21,1.21,0,0,0-.1-.14s-.1-.06-.13-.1l-.2,0s-.1,0-.17,0l-.14.1a.21.21,0,0,0-.1.14.34.34,0,0,0,0,.2.33.33,0,0,0,0,.17.21.21,0,0,0,.1.14.42.42,0,0,0,.14.09.3.3,0,0,0,.17,0,.36.36,0,0,0,.2,0l.13-.09a1.21,1.21,0,0,0,.1-.14A.33.33,0,0,0,653.43,287.22Zm.4-15.42h-.18l-.2.43-.19-.43h-.18v.66h.1V272l.2.43h.14l.17-.43v.5h.14Zm.54-10a17.12,17.12,0,0,0-26.59-14.24,18.44,18.44,0,0,1,0,28.5,17.12,17.12,0,0,0,26.59-14.26Z"/><g id="Ellipse_18-2" data-name="Ellipse 18"><circle class="cls-1" cx="127.64" cy="266.34" r="12.5"/><circle class="cls-5" cx="127.64" cy="266.34" r="12"/></g><g id="Ellipse_18-3" data-name="Ellipse 18"><circle class="cls-1" cx="127.64" cy="266.34" r="7.51"/><circle class="cls-5" cx="127.64" cy="266.34" r="7.21"/></g></svg>
