<svg id="Layer_1" data-name="Layer 1" xmlns="http://www.w3.org/2000/svg" viewBox="0 0 795 568"><defs><style>.cls-1{fill:#fff;}.cls-2{fill:none;stroke:#a19e9e;}.cls-3{isolation:isolate;}.cls-4{fill:#a0a09f;}</style></defs><title>Artboard 4</title><g id="Rectangle_240" data-name="Rectangle 240"><rect class="cls-1" width="795" height="568"/><rect class="cls-2" x="0.5" y="0.5" width="794" height="567"/></g><g id="Group_153" data-name="Group 153"><g id="Rectangle_199" data-name="Rectangle 199"><rect class="cls-1" x="43" y="91" width="327" height="75"/><rect class="cls-2" x="43.5" y="91.5" width="326" height="74"/></g><g id="Rectangle_200" data-name="Rectangle 200"><rect class="cls-1" x="43" y="207" width="327" height="74"/><rect class="cls-2" x="43.5" y="207.5" width="326" height="73"/></g><g id="Rectangle_204" data-name="Rectangle 204"><rect class="cls-1" x="43" y="321" width="327" height="74"/><rect class="cls-2" x="43.5" y="321.5" width="326" height="73"/></g><g id="Rectangle_205" data-name="Rectangle 205"><rect class="cls-1" x="437" y="91" width="326" height="75"/><rect class="cls-2" x="437.5" y="91.5" width="325" height="74"/></g><g id="Rectangle_206" data-name="Rectangle 206"><rect class="cls-1" x="43" y="436" width="186" height="75"/><rect class="cls-2" x="43.5" y="436.5" width="185" height="74"/></g><g id="Rectangle_208" data-name="Rectangle 208"><rect class="cls-1" x="440" y="436" width="326" height="75"/><rect class="cls-2" x="440.5" y="436.5" width="325" height="74"/></g><g id="Navn" class="cls-3"><g class="cls-3"><path class="cls-4" d="M57.27,123.55,55.92,121h-.09l.25,2.53V135h-2V117.22h1.1L63.6,128.9l1.3,2.4H65l-.27-2.4V117.5h2v17.77H65.6Z"/><path class="cls-4" d="M70.55,123.42a7.43,7.43,0,0,1,2.21-.85,12.57,12.57,0,0,1,2.64-.27,5.28,5.28,0,0,1,2.09.35,3,3,0,0,1,1.2.91,3.22,3.22,0,0,1,.55,1.24,6.86,6.86,0,0,1,.13,1.35c0,1,0,2-.07,2.92s-.08,1.85-.08,2.7c0,.62,0,1.2.08,1.75a8.69,8.69,0,0,0,.27,1.53H78.1l-.53-1.75h-.12a4.85,4.85,0,0,1-.56.69,4,4,0,0,1-.82.6A4.85,4.85,0,0,1,75,135a5.1,5.1,0,0,1-1.42.18,4.28,4.28,0,0,1-1.49-.25,3.56,3.56,0,0,1-1.19-.71,3.32,3.32,0,0,1-.78-1.12,3.6,3.6,0,0,1-.29-1.47,3.48,3.48,0,0,1,.45-1.84,3.24,3.24,0,0,1,1.26-1.17,6.39,6.39,0,0,1,1.95-.63,16.12,16.12,0,0,1,2.51-.19h.69a5.34,5.34,0,0,1,.69.05c.05-.5.07-1,.07-1.35a2.67,2.67,0,0,0-.55-1.92,2.78,2.78,0,0,0-2-.55,7.56,7.56,0,0,0-.91.06l-1,.18a9.16,9.16,0,0,0-1,.29,4.81,4.81,0,0,0-.82.37Zm3.55,10a3.73,3.73,0,0,0,1.25-.19,3.51,3.51,0,0,0,1-.47,2.88,2.88,0,0,0,.66-.64,2.51,2.51,0,0,0,.39-.68V129.4l-.71,0h-.72a12.5,12.5,0,0,0-1.51.09,4.85,4.85,0,0,0-1.3.32,2.43,2.43,0,0,0-.9.65,1.62,1.62,0,0,0-.34,1,1.86,1.86,0,0,0,.63,1.44A2.33,2.33,0,0,0,74.1,133.45Z"/><path class="cls-4" d="M86.75,129.82l.7,2.38h0l.63-2.43,2.8-7.27h2.15l-5.33,12.77h-.85L81.45,122.5h2.3Z"/><path class="cls-4" d="M103.22,135v-7.13a6,6,0,0,0-.56-2.93,2.15,2.15,0,0,0-2.06-1,3.37,3.37,0,0,0-2.19.71,3.82,3.82,0,0,0-1.21,1.79V135h-2V122.5h1.4L97,124h.1a4.52,4.52,0,0,1,1.62-1.31,5.29,5.29,0,0,1,2.41-.51,6.13,6.13,0,0,1,1.8.24,2.68,2.68,0,0,1,1.29.83,4,4,0,0,1,.77,1.62,10.18,10.18,0,0,1,.26,2.56V135Z"/></g></g><g id="Firma" class="cls-3"><g class="cls-3"><path class="cls-4" d="M54.12,233.5h9.53v1.85H56.2v6h6.95v1.85H56.2V251H54.12Z"/><path class="cls-4" d="M66.85,234.7a1.41,1.41,0,0,1,.39-1,1.3,1.3,0,0,1,1-.41,1.44,1.44,0,0,1,1,.41,1.35,1.35,0,0,1,.42,1,1.22,1.22,0,0,1-.42,1,1.5,1.5,0,0,1-1,.37,1.34,1.34,0,0,1-1-.37A1.27,1.27,0,0,1,66.85,234.7Zm.42,3.8h2V251h-2Z"/><path class="cls-4" d="M79.45,240.42a4.74,4.74,0,0,0-1.43-.25,2.41,2.41,0,0,0-1.7.59,2.59,2.59,0,0,0-.77,1.49V251h-2V238.5H75l.37,1.52h.1a4,4,0,0,1,1.14-1.31,2.88,2.88,0,0,1,1.69-.46,6,6,0,0,1,1.62.25Z"/><path class="cls-4" d="M89.37,251v-7.08a14.68,14.68,0,0,0-.08-1.73A3.72,3.72,0,0,0,89,241a1.72,1.72,0,0,0-.71-.75A2.54,2.54,0,0,0,87,240a2.71,2.71,0,0,0-1.91.7,3.7,3.7,0,0,0-1.06,1.75V251h-2V238.5h1.4l.37,1.52h.1a5.8,5.8,0,0,1,1.57-1.31,4.6,4.6,0,0,1,2.31-.51,3.72,3.72,0,0,1,2,.46A3,3,0,0,1,91,240.27a4,4,0,0,1,1.59-1.52,4.63,4.63,0,0,1,2.28-.55,5.72,5.72,0,0,1,1.78.24,2.51,2.51,0,0,1,1.2.83,3.83,3.83,0,0,1,.69,1.63,13.28,13.28,0,0,1,.21,2.6V251h-2v-7.53a11.72,11.72,0,0,0-.09-1.56,2.8,2.8,0,0,0-.35-1.1,1.57,1.57,0,0,0-.72-.65,3,3,0,0,0-1.22-.21,2.63,2.63,0,0,0-1.95.7,4.1,4.1,0,0,0-1,2V251Z"/><path class="cls-4" d="M102.15,239.42a7.43,7.43,0,0,1,2.21-.85,12.57,12.57,0,0,1,2.64-.27,5.28,5.28,0,0,1,2.09.35,3,3,0,0,1,1.2.91,3.37,3.37,0,0,1,.55,1.24,6.86,6.86,0,0,1,.13,1.35c0,1,0,2-.07,2.92s-.08,1.85-.08,2.7c0,.62,0,1.2.08,1.75a8.69,8.69,0,0,0,.27,1.53H109.7l-.53-1.75h-.12a4.85,4.85,0,0,1-.56.69,4,4,0,0,1-.82.6,4.85,4.85,0,0,1-1.1.43,5.1,5.1,0,0,1-1.42.18,4.28,4.28,0,0,1-1.49-.25,3.56,3.56,0,0,1-1.19-.71,3.32,3.32,0,0,1-.78-1.12,3.45,3.45,0,0,1-.29-1.47,3.48,3.48,0,0,1,.45-1.84,3.24,3.24,0,0,1,1.26-1.17,6.39,6.39,0,0,1,2-.63,16.12,16.12,0,0,1,2.51-.19h.69a5.34,5.34,0,0,1,.69.05c0-.5.07-1,.07-1.35a2.67,2.67,0,0,0-.55-1.92,2.78,2.78,0,0,0-2-.55,7.56,7.56,0,0,0-.91.06l-1,.18a8.5,8.5,0,0,0-1,.29,4.81,4.81,0,0,0-.82.37Zm3.55,10a3.73,3.73,0,0,0,1.25-.19,3.51,3.51,0,0,0,1-.47,2.88,2.88,0,0,0,.66-.64,2.51,2.51,0,0,0,.39-.68V245.4l-.71,0h-.72a12.5,12.5,0,0,0-1.51.09,4.85,4.85,0,0,0-1.3.32,2.43,2.43,0,0,0-.9.65,1.62,1.62,0,0,0-.34,1,1.86,1.86,0,0,0,.63,1.44A2.33,2.33,0,0,0,105.7,249.45Z"/></g></g><g id="Rectangle_202" data-name="Rectangle 202"><rect class="cls-1" x="440" y="321" width="87" height="74"/><rect class="cls-2" x="440.5" y="321.5" width="86" height="73"/></g><g id="Rectangle_203" data-name="Rectangle 203"><rect class="cls-1" x="544" y="321" width="222" height="74"/><rect class="cls-2" x="544.5" y="321.5" width="221" height="73"/></g><g id="_45" data-name=" 45" class="cls-3"><g class="cls-3"><path class="cls-4" d="M458,358.65h4.4v-4.5h1.8v4.5h4.4v1.8h-4.4V365h-1.8v-4.5H458Z"/><path class="cls-4" d="M482.72,362.62h-3V368h-1.95v-5.38h-7.7v-.82l8.3-11.58h1.35v10.65h3Zm-4.9-7.2.25-2.05H478l-.88,1.7-3.52,4.78-1.2,1.22,1.75-.2h3.67Z"/><path class="cls-4" d="M488.57,366.55a4.11,4.11,0,0,0,2.85-1,3.68,3.68,0,0,0,1.13-2.9,3.31,3.31,0,0,0-1.11-2.73,4.76,4.76,0,0,0-3.07-.9l-2.1.13V350.5h7.8v1.85h-5.92v5l1.07-.05a5.54,5.54,0,0,1,3.9,1.38,5.08,5.08,0,0,1,1.43,3.87,6.08,6.08,0,0,1-.48,2.49,5,5,0,0,1-1.28,1.81,5.45,5.45,0,0,1-1.92,1.1,7.19,7.19,0,0,1-2.35.38,11.39,11.39,0,0,1-1.9-.13,7.33,7.33,0,0,1-1.45-.37l.53-1.7a6.42,6.42,0,0,0,1.24.34A10.52,10.52,0,0,0,488.57,366.55Z"/></g></g><g id="Telefonnr._" data-name="Telefonnr. " class="cls-3"><g class="cls-3"><path class="cls-4" d="M570.89,352h-5.23v15h-2V352h-5.23V350.2h12.46Z"/><path class="cls-4" d="M578.86,366A5.45,5.45,0,0,1,577,367a7.59,7.59,0,0,1-2.31.34,5.81,5.81,0,0,1-2.38-.45,4.17,4.17,0,0,1-1.65-1.27,5.23,5.23,0,0,1-1-2,9.82,9.82,0,0,1-.32-2.59,7,7,0,0,1,1.37-4.68,4.86,4.86,0,0,1,3.91-1.61,7.63,7.63,0,0,1,1.64.18,3.58,3.58,0,0,1,1.46.69,3.68,3.68,0,0,1,1.06,1.42,6.18,6.18,0,0,1,.4,2.44,11.29,11.29,0,0,1-.14,1.75h-7.7a7.47,7.47,0,0,0,.21,1.87,3.71,3.71,0,0,0,.67,1.38,2.93,2.93,0,0,0,1.19.87,4.75,4.75,0,0,0,1.79.3,4.92,4.92,0,0,0,1.63-.29,3.59,3.59,0,0,0,1.23-.67Zm-4.13-9.65a3.31,3.31,0,0,0-2.27.75,3.68,3.68,0,0,0-1,2.54h5.95a3.72,3.72,0,0,0-.69-2.56A2.63,2.63,0,0,0,574.73,356.39Z"/><path class="cls-4" d="M584.42,364.05a2,2,0,0,0,.29,1.2,1,1,0,0,0,.82.36,5.43,5.43,0,0,0,.67-.05,3.48,3.48,0,0,0,.82-.22l.21,1.52a4.22,4.22,0,0,1-1.07.31,6.92,6.92,0,0,1-1.18.12,2.63,2.63,0,0,1-1.78-.61,2.67,2.67,0,0,1-.7-2.08V350.2h1.92Z"/><path class="cls-4" d="M598.06,366a5.45,5.45,0,0,1-1.82.91,7.59,7.59,0,0,1-2.31.34,5.81,5.81,0,0,1-2.38-.45,4.17,4.17,0,0,1-1.65-1.27,5.23,5.23,0,0,1-1-2,9.82,9.82,0,0,1-.32-2.59,7,7,0,0,1,1.37-4.68,4.86,4.86,0,0,1,3.91-1.61,7.63,7.63,0,0,1,1.64.18,3.58,3.58,0,0,1,1.46.69,3.68,3.68,0,0,1,1.06,1.42,6.18,6.18,0,0,1,.4,2.44,11.29,11.29,0,0,1-.14,1.75h-7.7a7.47,7.47,0,0,0,.21,1.87,3.71,3.71,0,0,0,.67,1.38,2.93,2.93,0,0,0,1.19.87,4.75,4.75,0,0,0,1.79.3,4.92,4.92,0,0,0,1.63-.29,3.59,3.59,0,0,0,1.23-.67Zm-4.13-9.65a3.31,3.31,0,0,0-2.27.75,3.68,3.68,0,0,0-1,2.54h6a3.72,3.72,0,0,0-.69-2.56A2.63,2.63,0,0,0,593.93,356.39Z"/><path class="cls-4" d="M600.17,355H602v-.67a9,9,0,0,1,.18-1.92,3.2,3.2,0,0,1,.59-1.33,2.4,2.4,0,0,1,1.05-.77,4.46,4.46,0,0,1,1.61-.25,9.11,9.11,0,0,1,1.36.09,6.47,6.47,0,0,1,1.23.36l-.43,1.61a4.18,4.18,0,0,0-1-.31,6.19,6.19,0,0,0-.93-.07,2,2,0,0,0-1,.19,1.1,1.1,0,0,0-.5.56,2.61,2.61,0,0,0-.19.91c0,.36,0,.78,0,1.26V355h3.19v1.68H604V367H602V356.68h-1.87Z"/><path class="cls-4" d="M608.21,361a7.12,7.12,0,0,1,1.35-4.67,4.82,4.82,0,0,1,3.9-1.62,5.61,5.61,0,0,1,2.34.45,4.17,4.17,0,0,1,1.65,1.27,5.51,5.51,0,0,1,1,2,9.92,9.92,0,0,1,.31,2.58,7.07,7.07,0,0,1-1.36,4.67,4.79,4.79,0,0,1-3.9,1.62,5.68,5.68,0,0,1-2.34-.45,4.2,4.2,0,0,1-1.64-1.27,5.51,5.51,0,0,1-1-2A9.92,9.92,0,0,1,608.21,361Zm2,0a8.31,8.31,0,0,0,.18,1.75,4.84,4.84,0,0,0,.56,1.47,3.11,3.11,0,0,0,1,1,2.8,2.8,0,0,0,1.51.39c2.18,0,3.27-1.52,3.27-4.61a8.53,8.53,0,0,0-.18-1.78,4.54,4.54,0,0,0-.57-1.46,2.9,2.9,0,0,0-1-1,3,3,0,0,0-1.52-.37C611.29,356.38,610.2,357.91,610.2,361Z"/><path class="cls-4" d="M629.45,367v-6.84a5.82,5.82,0,0,0-.54-2.82,2.08,2.08,0,0,0-2-.95,3.16,3.16,0,0,0-2.1.69,3.66,3.66,0,0,0-1.17,1.71V367h-1.92V355h1.35l.36,1.46h.09a4.43,4.43,0,0,1,1.55-1.26,5.19,5.19,0,0,1,2.32-.49,6,6,0,0,1,1.73.23,2.62,2.62,0,0,1,1.23.8,3.87,3.87,0,0,1,.75,1.55,10.47,10.47,0,0,1,.25,2.46V367Z"/><path class="cls-4" d="M642.58,367v-6.84a5.82,5.82,0,0,0-.54-2.82,2.08,2.08,0,0,0-2-.95,3.16,3.16,0,0,0-2.1.69,3.52,3.52,0,0,0-1.17,1.71V367h-1.92V355h1.35l.36,1.46h.09a4.43,4.43,0,0,1,1.55-1.26,5.19,5.19,0,0,1,2.32-.49,5.92,5.92,0,0,1,1.72.23,2.6,2.6,0,0,1,1.24.8,3.74,3.74,0,0,1,.74,1.55,9.91,9.91,0,0,1,.26,2.46V367Z"/><path class="cls-4" d="M653.66,356.85a4.29,4.29,0,0,0-1.36-.24,2.33,2.33,0,0,0-1.64.56,2.42,2.42,0,0,0-.74,1.43V367H648V355h1.34l.36,1.46h.1a3.77,3.77,0,0,1,1.09-1.26,2.79,2.79,0,0,1,1.62-.44,5.88,5.88,0,0,1,1.56.24Z"/><path class="cls-4" d="M654.05,365.9a1.29,1.29,0,0,1,1.36-1.4,1.43,1.43,0,0,1,1,.38,1.35,1.35,0,0,1,.38,1,1.37,1.37,0,0,1-.38,1,1.4,1.4,0,0,1-1,.39,1.31,1.31,0,0,1-1-.39A1.36,1.36,0,0,1,654.05,365.9Z"/></g></g><g id="Adresse" class="cls-3"><g class="cls-3"><path class="cls-4" d="M62.43,360.15H56L54.27,365H52.2l6.63-17.78h.94L66.42,365h-2.2Zm-5.74-1.8h5.12L59.87,353l-.62-2.65h0l-.62,2.7Z"/><path class="cls-4" d="M78.15,360.7c0,.85,0,1.62,0,2.31a12.61,12.61,0,0,0,.23,2H77.05l-.5-1.78h-.1A4,4,0,0,1,75,364.72a4.16,4.16,0,0,1-2.23.58,4.4,4.4,0,0,1-3.71-1.58,8.06,8.06,0,0,1-1.21-4.92,7,7,0,0,1,1.51-4.86,5.35,5.35,0,0,1,4.16-1.67,9.19,9.19,0,0,1,1.47.1,8,8,0,0,1,1.16.33v-5.2h2Zm-5.05,2.85a2.94,2.94,0,0,0,2-.66,3.54,3.54,0,0,0,1-2v-6.2a2.83,2.83,0,0,0-1-.5A6.21,6.21,0,0,0,73.6,354a3.36,3.36,0,0,0-2.7,1.14,5.54,5.54,0,0,0-1,3.64,10.25,10.25,0,0,0,.17,1.9,4.58,4.58,0,0,0,.53,1.5,2.76,2.76,0,0,0,1,1A2.91,2.91,0,0,0,73.1,363.55Z"/><path class="cls-4" d="M87.9,354.42a4.74,4.74,0,0,0-1.43-.25,2.41,2.41,0,0,0-1.7.59,2.59,2.59,0,0,0-.77,1.49V365H82V352.5h1.4l.37,1.52h.1A4,4,0,0,1,85,352.71a2.88,2.88,0,0,1,1.69-.46,6,6,0,0,1,1.62.25Z"/><path class="cls-4" d="M99.62,364a5.53,5.53,0,0,1-1.88.95,8.33,8.33,0,0,1-2.42.35,6,6,0,0,1-2.47-.46,4.4,4.4,0,0,1-1.73-1.33,5.74,5.74,0,0,1-1-2.06,10.64,10.64,0,0,1-.32-2.7,7.36,7.36,0,0,1,1.42-4.88,5.08,5.08,0,0,1,4.08-1.67,7.57,7.57,0,0,1,1.7.19,3.67,3.67,0,0,1,1.52.71,3.75,3.75,0,0,1,1.1,1.49,6.19,6.19,0,0,1,.43,2.53A12.49,12.49,0,0,1,99.9,359h-8a7.67,7.67,0,0,0,.23,1.95,3.73,3.73,0,0,0,.7,1.44,3.09,3.09,0,0,0,1.24.9,4.89,4.89,0,0,0,1.86.31,5.08,5.08,0,0,0,1.7-.3,3.48,3.48,0,0,0,1.27-.7ZM95.32,354a3.49,3.49,0,0,0-2.36.77,3.91,3.91,0,0,0-1.06,2.65h6.2a3.81,3.81,0,0,0-.73-2.66A2.67,2.67,0,0,0,95.32,354Z"/><path class="cls-4" d="M108.7,361.6a1.56,1.56,0,0,0-.45-1.18,3.85,3.85,0,0,0-1.11-.71c-.44-.19-.93-.37-1.45-.55a6.64,6.64,0,0,1-1.45-.67,3.69,3.69,0,0,1-1.12-1.07,3,3,0,0,1-.45-1.75,3.21,3.21,0,0,1,1-2.63,4.36,4.36,0,0,1,2.85-.84,9,9,0,0,1,2.26.24,8.62,8.62,0,0,1,1.59.56l-.48,1.65a7.81,7.81,0,0,0-1.38-.49,7,7,0,0,0-1.74-.21,2.75,2.75,0,0,0-1.61.37,1.52,1.52,0,0,0-.52,1.3,1.23,1.23,0,0,0,.45,1,4.72,4.72,0,0,0,1.12.65c.44.19.92.38,1.45.56a6.13,6.13,0,0,1,1.45.72,4,4,0,0,1,1.11,1.14,3.26,3.26,0,0,1,.45,1.81,4.3,4.3,0,0,1-.26,1.5,3,3,0,0,1-.82,1.2,3.78,3.78,0,0,1-1.36.79,5.77,5.77,0,0,1-1.91.29,9,9,0,0,1-2.43-.28,7.56,7.56,0,0,1-1.67-.65l.6-1.7a6.85,6.85,0,0,0,1.5.6,6.33,6.33,0,0,0,1.87.28,3.33,3.33,0,0,0,1.78-.43A1.62,1.62,0,0,0,108.7,361.6Z"/><path class="cls-4" d="M119.22,361.6a1.56,1.56,0,0,0-.45-1.18,3.85,3.85,0,0,0-1.11-.71c-.44-.19-.92-.37-1.45-.55a6.86,6.86,0,0,1-1.45-.67,3.77,3.77,0,0,1-1.11-1.07,3,3,0,0,1-.45-1.75,3.2,3.2,0,0,1,1-2.63,4.4,4.4,0,0,1,2.85-.84,9.12,9.12,0,0,1,2.27.24,8.78,8.78,0,0,1,1.58.56l-.47,1.65a7.94,7.94,0,0,0-1.39-.49,6.91,6.91,0,0,0-1.74-.21,2.75,2.75,0,0,0-1.61.37,1.52,1.52,0,0,0-.51,1.3,1.23,1.23,0,0,0,.45,1,4.85,4.85,0,0,0,1.11.65c.44.19.93.38,1.45.56a6,6,0,0,1,1.45.72,4,4,0,0,1,1.11,1.14,3.26,3.26,0,0,1,.45,1.81A4.08,4.08,0,0,1,121,363a2.91,2.91,0,0,1-.81,1.2,3.87,3.87,0,0,1-1.36.79,5.83,5.83,0,0,1-1.92.29,8.94,8.94,0,0,1-2.42-.28,7.46,7.46,0,0,1-1.68-.65l.6-1.7a7.29,7.29,0,0,0,1.5.6,6.39,6.39,0,0,0,1.88.28,3.27,3.27,0,0,0,1.77-.43A1.62,1.62,0,0,0,119.22,361.6Z"/><path class="cls-4" d="M133.37,364a5.63,5.63,0,0,1-1.88.95,8.33,8.33,0,0,1-2.42.35,6,6,0,0,1-2.47-.46,4.4,4.4,0,0,1-1.73-1.33,5.74,5.74,0,0,1-1-2.06,10.64,10.64,0,0,1-.32-2.7,7.36,7.36,0,0,1,1.42-4.88,5.08,5.08,0,0,1,4.08-1.67,7.57,7.57,0,0,1,1.7.19,3.58,3.58,0,0,1,2.62,2.2,6.19,6.19,0,0,1,.43,2.53,12.49,12.49,0,0,1-.15,1.83h-8a7.67,7.67,0,0,0,.23,1.95,3.73,3.73,0,0,0,.7,1.44,3.09,3.09,0,0,0,1.24.9,4.82,4.82,0,0,0,1.86.31,5.08,5.08,0,0,0,1.7-.3,3.56,3.56,0,0,0,1.27-.7ZM129.07,354a3.49,3.49,0,0,0-2.36.77,3.86,3.86,0,0,0-1.06,2.65h6.2a3.81,3.81,0,0,0-.73-2.66A2.67,2.67,0,0,0,129.07,354Z"/></g></g><g id="Postnummer" class="cls-3"><g class="cls-3"><path class="cls-4" d="M54,463.37a11.65,11.65,0,0,1,2-.29c.7-.05,1.4-.07,2.09-.07a12.38,12.38,0,0,1,2.24.21,6.17,6.17,0,0,1,2.08.8,4.44,4.44,0,0,1,1.52,1.58,5.06,5.06,0,0,1,.59,2.57,5.64,5.64,0,0,1-.55,2.59,4.92,4.92,0,0,1-1.47,1.72,5.85,5.85,0,0,1-2.09.94,9.72,9.72,0,0,1-2.42.29H57l-.59,0-.41,0V480H54Zm4.1,1.37c-.41,0-.81,0-1.2,0a4.68,4.68,0,0,0-.91.12v7a1.44,1.44,0,0,0,.39.06l.55,0,.55,0h.38a8.72,8.72,0,0,0,1.62-.16,4.23,4.23,0,0,0,1.46-.56,3,3,0,0,0,1-1.16,4,4,0,0,0,.4-1.89,3.3,3.3,0,0,0-.38-1.65,2.83,2.83,0,0,0-1-1,4.23,4.23,0,0,0-1.38-.57A7.26,7.26,0,0,0,58.14,464.74Z"/><path class="cls-4" d="M65.73,474a7.12,7.12,0,0,1,1.35-4.67,4.82,4.82,0,0,1,3.9-1.62,5.61,5.61,0,0,1,2.34.45A4.17,4.17,0,0,1,75,469.43a5.51,5.51,0,0,1,1,2,9.92,9.92,0,0,1,.31,2.58,7.07,7.07,0,0,1-1.36,4.67,4.79,4.79,0,0,1-3.9,1.62,5.68,5.68,0,0,1-2.34-.45A4.2,4.2,0,0,1,67,478.57a5.51,5.51,0,0,1-1-2A9.92,9.92,0,0,1,65.73,474Zm2,0a8.31,8.31,0,0,0,.18,1.75,4.84,4.84,0,0,0,.56,1.47,3.11,3.11,0,0,0,1,1,2.8,2.8,0,0,0,1.51.39c2.18,0,3.27-1.52,3.27-4.61a8.53,8.53,0,0,0-.18-1.78,4.54,4.54,0,0,0-.57-1.46,2.9,2.9,0,0,0-1-1,3,3,0,0,0-1.52-.37C68.81,469.38,67.72,470.91,67.72,474Z"/><path class="cls-4" d="M84.54,476.74a1.47,1.47,0,0,0-.43-1.13,3.8,3.8,0,0,0-1.07-.69,14.59,14.59,0,0,0-1.39-.52,6.82,6.82,0,0,1-1.39-.65,3.85,3.85,0,0,1-1.07-1,2.91,2.91,0,0,1-.43-1.68,3.09,3.09,0,0,1,1-2.53,4.2,4.2,0,0,1,2.74-.81,8.85,8.85,0,0,1,2.17.23,8.23,8.23,0,0,1,1.53.54l-.46,1.58a7.58,7.58,0,0,0-1.33-.46,6.42,6.42,0,0,0-1.67-.21,2.67,2.67,0,0,0-1.55.36,1.45,1.45,0,0,0-.49,1.25,1.16,1.16,0,0,0,.43,1,5.12,5.12,0,0,0,1.07.63c.42.18.89.36,1.39.54a5.47,5.47,0,0,1,1.39.69A3.83,3.83,0,0,1,86,474.92a3.12,3.12,0,0,1,.43,1.74,4,4,0,0,1-.25,1.44,3,3,0,0,1-.78,1.16,3.72,3.72,0,0,1-1.31.75,5.59,5.59,0,0,1-1.83.28A8.72,8.72,0,0,1,80,480a7,7,0,0,1-1.61-.62l.58-1.63a6.73,6.73,0,0,0,1.44.57,6.14,6.14,0,0,0,1.8.27,3.24,3.24,0,0,0,1.7-.41A1.56,1.56,0,0,0,84.54,476.74Z"/><path class="cls-4" d="M87.78,468h1.88v-2.38l1.92-.55V468h3.26v1.68H91.58v6.65a3.58,3.58,0,0,0,.31,1.76,1.12,1.12,0,0,0,1,.52,4,4,0,0,0,1.06-.13c.29-.09.61-.21,1-.35l.43,1.46a6.82,6.82,0,0,1-3.07.7,2.37,2.37,0,0,1-2.06-.83,4.86,4.86,0,0,1-.6-2.77v-7H87.78Z"/><path class="cls-4" d="M105.21,480v-6.84a5.82,5.82,0,0,0-.54-2.82,2.08,2.08,0,0,0-2-.95,3.16,3.16,0,0,0-2.1.69,3.66,3.66,0,0,0-1.17,1.71V480H97.5V468h1.35l.36,1.46h.09a4.43,4.43,0,0,1,1.55-1.26,5.19,5.19,0,0,1,2.32-.49,6,6,0,0,1,1.73.23,2.62,2.62,0,0,1,1.23.8,3.87,3.87,0,0,1,.75,1.55,10.47,10.47,0,0,1,.25,2.46V480Z"/><path class="cls-4" d="M112.36,468v6.84a10,10,0,0,0,.11,1.64,3.28,3.28,0,0,0,.37,1.18,1.7,1.7,0,0,0,.72.71,2.45,2.45,0,0,0,1.15.24,3,3,0,0,0,1.15-.21,2.79,2.79,0,0,0,.9-.56,4,4,0,0,0,.7-.83,5.07,5.07,0,0,0,.49-1v-8h1.92v8.59c0,.58,0,1.17.06,1.79a11.07,11.07,0,0,0,.21,1.62h-1.32l-.49-1.9h-.11a4.72,4.72,0,0,1-1.49,1.56,4.2,4.2,0,0,1-2.38.63,5.76,5.76,0,0,1-1.69-.23,2.62,2.62,0,0,1-1.23-.8,4,4,0,0,1-.74-1.55,10,10,0,0,1-.25-2.46V468Z"/><path class="cls-4" d="M130.6,480v-6.79a13.44,13.44,0,0,0-.09-1.67,3.5,3.5,0,0,0-.32-1.19,1.64,1.64,0,0,0-.68-.72,2.48,2.48,0,0,0-1.17-.24,2.63,2.63,0,0,0-1.83.67,3.54,3.54,0,0,0-1,1.68V480h-1.92V468h1.34l.36,1.46h.1a5.66,5.66,0,0,1,1.5-1.26,4.45,4.45,0,0,1,2.22-.49,3.56,3.56,0,0,1,1.88.45,2.85,2.85,0,0,1,1.14,1.54,4,4,0,0,1,1.52-1.46,4.56,4.56,0,0,1,2.2-.53,5.54,5.54,0,0,1,1.7.23,2.41,2.41,0,0,1,1.16.8,3.87,3.87,0,0,1,.66,1.56,13.21,13.21,0,0,1,.2,2.5V480h-1.92v-7.22a12.8,12.8,0,0,0-.08-1.5,2.76,2.76,0,0,0-.34-1.06,1.51,1.51,0,0,0-.7-.62,2.7,2.7,0,0,0-1.16-.21,2.56,2.56,0,0,0-1.87.67,3.87,3.87,0,0,0-1,1.92v8Z"/><path class="cls-4" d="M150.09,480v-6.79a13.44,13.44,0,0,0-.09-1.67,3.5,3.5,0,0,0-.32-1.19,1.6,1.6,0,0,0-.69-.72,2.41,2.41,0,0,0-1.16-.24,2.65,2.65,0,0,0-1.84.67,3.71,3.71,0,0,0-1,1.68V480h-1.91V468h1.34l.36,1.46h.09a6,6,0,0,1,1.5-1.26,4.52,4.52,0,0,1,2.23-.49,3.56,3.56,0,0,1,1.88.45,2.85,2.85,0,0,1,1.14,1.54,3.88,3.88,0,0,1,1.52-1.46,4.56,4.56,0,0,1,2.2-.53,5.54,5.54,0,0,1,1.7.23,2.34,2.34,0,0,1,1.15.8,3.61,3.61,0,0,1,.66,1.56,12.33,12.33,0,0,1,.21,2.5V480h-1.92v-7.22a12.8,12.8,0,0,0-.08-1.5,2.76,2.76,0,0,0-.34-1.06,1.51,1.51,0,0,0-.7-.62,2.7,2.7,0,0,0-1.16-.21,2.54,2.54,0,0,0-1.87.67,3.87,3.87,0,0,0-1,1.92v8Z"/><path class="cls-4" d="M171.3,479a5.39,5.39,0,0,1-1.81.91,7.66,7.66,0,0,1-2.32.34,5.76,5.76,0,0,1-2.37-.45,4.2,4.2,0,0,1-1.66-1.27,5.54,5.54,0,0,1-1-2,9.84,9.84,0,0,1-.31-2.59,7,7,0,0,1,1.37-4.68,4.85,4.85,0,0,1,3.91-1.61,7.54,7.54,0,0,1,1.63.18,3.62,3.62,0,0,1,1.47.69A3.57,3.57,0,0,1,171.3,470a6.16,6.16,0,0,1,.41,2.44,12.68,12.68,0,0,1-.14,1.75h-7.71a7,7,0,0,0,.22,1.87,3.56,3.56,0,0,0,.67,1.38,2.86,2.86,0,0,0,1.19.87,4.72,4.72,0,0,0,1.79.3,5,5,0,0,0,1.63-.29,3.53,3.53,0,0,0,1.22-.67Zm-4.13-9.65a3.28,3.28,0,0,0-2.26.75,3.68,3.68,0,0,0-1,2.54h6a3.66,3.66,0,0,0-.7-2.56A2.61,2.61,0,0,0,167.17,469.39Z"/><path class="cls-4" d="M180.4,469.85a4.35,4.35,0,0,0-1.37-.24,2.3,2.3,0,0,0-1.63.56,2.49,2.49,0,0,0-.75,1.43V480h-1.92V468h1.35l.36,1.46h.09a3.8,3.8,0,0,1,1.1-1.26,2.79,2.79,0,0,1,1.62-.44,5.94,5.94,0,0,1,1.56.24Z"/></g></g><g id="By" class="cls-3"><g class="cls-3"><path class="cls-4" d="M461.17,468a4.36,4.36,0,0,1-.19,1.22,3.94,3.94,0,0,1-1.56,2.12A4.6,4.6,0,0,1,458,472v.1a5.91,5.91,0,0,1,1.38.4,3.86,3.86,0,0,1,2,2,4.23,4.23,0,0,1,.31,1.7,4.46,4.46,0,0,1-.54,2.25,4.67,4.67,0,0,1-1.41,1.55,6.3,6.3,0,0,1-2,.88,8.9,8.9,0,0,1-2.3.29h-1l-1.15,0-1.2-.1a6.84,6.84,0,0,1-1.06-.18V464.34c.59-.09,1.28-.17,2.06-.24s1.64-.09,2.57-.09a12.49,12.49,0,0,1,1.91.15,5.46,5.46,0,0,1,1.76.6,3.7,3.7,0,0,1,1.31,1.24A3.63,3.63,0,0,1,461.17,468Zm-6.89,3.55,1,0c.39,0,.71,0,1-.07a6.64,6.64,0,0,0,1.08-.47,4.32,4.32,0,0,0,.9-.65,2.77,2.77,0,0,0,.63-.86,2.81,2.81,0,0,0-.07-2.38,2.38,2.38,0,0,0-.81-.83,3.44,3.44,0,0,0-1.15-.44,6.42,6.42,0,0,0-1.32-.13c-.53,0-1,0-1.45,0a7.7,7.7,0,0,0-1,.11v5.71Zm1.32,7.87a6.14,6.14,0,0,0,1.49-.18,3.77,3.77,0,0,0,1.27-.57,3.12,3.12,0,0,0,.88-1,2.83,2.83,0,0,0,.32-1.37,2.8,2.8,0,0,0-.4-1.59,2.64,2.64,0,0,0-1-.93,4.29,4.29,0,0,0-1.43-.46,10.41,10.41,0,0,0-1.58-.12H453v6a3.16,3.16,0,0,0,.48.07l.67.05.75,0Z"/><path class="cls-4" d="M468.4,476.78l.68,2.3h.12l.53-2.33,2.33-7.75H474l-3.55,10.78c-.27.78-.54,1.54-.8,2.28a13.84,13.84,0,0,1-.88,2,4.88,4.88,0,0,1-1.08,1.38,2,2,0,0,1-1.39.52,3.59,3.59,0,0,1-1.42-.24l.34-1.66a1.69,1.69,0,0,0,.6.12,1.76,1.76,0,0,0,1.3-.7,5.93,5.93,0,0,0,1-2.44l-4.83-12h2.21Z"/></g></g><g id="E-mail" class="cls-3"><g class="cls-3"><path class="cls-4" d="M456.12,120.5h9.53v1.85H458.2v5.72H465v1.85H458.2v6.23h7.57V138h-9.65Z"/><path class="cls-4" d="M468.87,129.87h6.05v1.85h-6.05Z"/><path class="cls-4" d="M485.65,138v-7.08a14.49,14.49,0,0,0-.09-1.73,3.72,3.72,0,0,0-.34-1.24,1.66,1.66,0,0,0-.71-.75,2.5,2.5,0,0,0-1.21-.25,2.68,2.68,0,0,0-1.91.7,3.72,3.72,0,0,0-1.07,1.75V138h-2V125.5h1.4l.38,1.52h.1a5.92,5.92,0,0,1,1.56-1.31,4.6,4.6,0,0,1,2.31-.51,3.76,3.76,0,0,1,2,.46,3.06,3.06,0,0,1,1.18,1.61,4.15,4.15,0,0,1,1.59-1.52,4.7,4.7,0,0,1,2.29-.55,5.65,5.65,0,0,1,1.77.24,2.42,2.42,0,0,1,1.2.83,3.83,3.83,0,0,1,.69,1.63,13.28,13.28,0,0,1,.21,2.6V138h-2v-7.53a11.89,11.89,0,0,0-.08-1.56,3,3,0,0,0-.35-1.1,1.64,1.64,0,0,0-.73-.65,3,3,0,0,0-1.21-.21,2.63,2.63,0,0,0-2,.7,4,4,0,0,0-1,2V138Z"/><path class="cls-4" d="M498.42,126.42a7.49,7.49,0,0,1,2.22-.85,12.54,12.54,0,0,1,2.63-.27,5.25,5.25,0,0,1,2.09.35,2.85,2.85,0,0,1,1.2.91,3.07,3.07,0,0,1,.55,1.24,6.88,6.88,0,0,1,.14,1.35c0,1,0,2-.08,2.92s-.07,1.85-.07,2.7c0,.62,0,1.2.07,1.75a8.67,8.67,0,0,0,.28,1.53H506l-.52-1.75h-.13a4.24,4.24,0,0,1-.56.69,3.71,3.71,0,0,1-.81.6,5,5,0,0,1-1.1.43,5.18,5.18,0,0,1-1.43.18,4.18,4.18,0,0,1-1.48-.25,3.46,3.46,0,0,1-1.19-.71,3.34,3.34,0,0,1-.79-1.12,3.6,3.6,0,0,1-.29-1.47,3.48,3.48,0,0,1,.45-1.84,3.2,3.2,0,0,1,1.27-1.17,6.39,6.39,0,0,1,1.95-.63,15.93,15.93,0,0,1,2.51-.19h.69a5.31,5.31,0,0,1,.68.05c0-.5.08-1,.08-1.35a2.67,2.67,0,0,0-.55-1.92,2.8,2.8,0,0,0-2-.55,7.43,7.43,0,0,0-.91.06l-1,.18a8.68,8.68,0,0,0-1,.29,4.37,4.37,0,0,0-.81.37Zm3.55,10a3.69,3.69,0,0,0,1.25-.19,3.37,3.37,0,0,0,.95-.47,3.16,3.16,0,0,0,.67-.64,2.75,2.75,0,0,0,.38-.68V132.4l-.71,0h-.71a12.38,12.38,0,0,0-1.51.09,4.67,4.67,0,0,0-1.3.32,2.28,2.28,0,0,0-.9.65,1.57,1.57,0,0,0-.34,1,1.88,1.88,0,0,0,.62,1.44A2.33,2.33,0,0,0,502,136.45Z"/><path class="cls-4" d="M511,121.7a1.41,1.41,0,0,1,.39-1,1.32,1.32,0,0,1,1-.41,1.42,1.42,0,0,1,1,.41,1.33,1.33,0,0,1,.43,1,1.2,1.2,0,0,1-.43,1,1.47,1.47,0,0,1-1,.37,1.37,1.37,0,0,1-1-.37A1.27,1.27,0,0,1,511,121.7Zm.43,3.8h2V138h-2Z"/><path class="cls-4" d="M520,134.92a2,2,0,0,0,.3,1.25,1,1,0,0,0,.85.38,5.91,5.91,0,0,0,.7-.05,3.76,3.76,0,0,0,.85-.23l.22,1.58a4,4,0,0,1-1.11.32,6.7,6.7,0,0,1-1.24.13,2.69,2.69,0,0,1-1.85-.64,2.75,2.75,0,0,1-.72-2.16v-15h2Z"/></g></g><g id="Rectangle_207" data-name="Rectangle 207"><rect class="cls-1" x="437" y="207" width="326" height="74"/><rect class="cls-2" x="437.5" y="207.5" width="325" height="73"/></g><g id="Bekræft_e-mail" data-name="Bekræft e-mail" class="cls-3"><g class="cls-3"><path class="cls-4" d="M466.17,238a4.36,4.36,0,0,1-.19,1.22,3.94,3.94,0,0,1-1.56,2.12A4.6,4.6,0,0,1,463,242v.1a5.91,5.91,0,0,1,1.38.4,3.86,3.86,0,0,1,2,2,4.23,4.23,0,0,1,.31,1.7,4.46,4.46,0,0,1-.54,2.25,4.67,4.67,0,0,1-1.41,1.55,6.3,6.3,0,0,1-2,.88,8.9,8.9,0,0,1-2.3.29h-1l-1.15,0-1.2-.1a6.84,6.84,0,0,1-1.06-.18V234.34c.59-.09,1.28-.17,2.06-.24s1.64-.09,2.57-.09a12.49,12.49,0,0,1,1.91.15,5.46,5.46,0,0,1,1.76.6,3.7,3.7,0,0,1,1.31,1.24A3.63,3.63,0,0,1,466.17,238Zm-6.89,3.55,1,0c.39,0,.71,0,1-.07a6.64,6.64,0,0,0,1.08-.47,4.32,4.32,0,0,0,.9-.65,2.77,2.77,0,0,0,.63-.86,2.81,2.81,0,0,0-.07-2.38,2.38,2.38,0,0,0-.81-.83,3.44,3.44,0,0,0-1.15-.44,6.42,6.42,0,0,0-1.32-.13c-.53,0-1,0-1.45,0a7.7,7.7,0,0,0-1,.11v5.71Zm1.32,7.87a6.14,6.14,0,0,0,1.49-.18,3.77,3.77,0,0,0,1.27-.57,3.12,3.12,0,0,0,.88-1,2.83,2.83,0,0,0,.32-1.37,2.8,2.8,0,0,0-.4-1.59,2.64,2.64,0,0,0-1-.93,4.29,4.29,0,0,0-1.43-.46,10.41,10.41,0,0,0-1.58-.12H458v6a3.16,3.16,0,0,0,.48.07l.67,0,.75,0Z"/><path class="cls-4" d="M478.62,250a5.39,5.39,0,0,1-1.81.91,7.64,7.64,0,0,1-2.31.34,5.78,5.78,0,0,1-2.38-.45,4.27,4.27,0,0,1-1.66-1.27,5.54,5.54,0,0,1-1-2,10.27,10.27,0,0,1-.31-2.59,7,7,0,0,1,1.37-4.68,4.86,4.86,0,0,1,3.91-1.61,7.47,7.47,0,0,1,1.63.18,3.46,3.46,0,0,1,2.52,2.11,6,6,0,0,1,.41,2.44,12.68,12.68,0,0,1-.14,1.75h-7.71a7.44,7.44,0,0,0,.22,1.87,3.56,3.56,0,0,0,.67,1.38,2.93,2.93,0,0,0,1.19.87,4.72,4.72,0,0,0,1.79.3,4.92,4.92,0,0,0,1.63-.29,3.53,3.53,0,0,0,1.22-.67Zm-4.12-9.65a3.31,3.31,0,0,0-2.27.75,3.68,3.68,0,0,0-1,2.54h6a3.66,3.66,0,0,0-.7-2.56A2.6,2.6,0,0,0,474.5,240.39Z"/><path class="cls-4" d="M485.08,245.6H484V251h-1.92V234.2H484v10.22l1-.33,3.72-5.09h2.23l-3.67,4.82-1,.8,1.2,1,4,5.42h-2.37Z"/><path class="cls-4" d="M499.22,240.85a4.35,4.35,0,0,0-1.37-.24,2.3,2.3,0,0,0-1.63.56,2.49,2.49,0,0,0-.75,1.43V251h-1.92V239h1.35l.36,1.46h.09a3.89,3.89,0,0,1,1.09-1.26,2.84,2.84,0,0,1,1.62-.44,5.82,5.82,0,0,1,1.56.24Z"/><path class="cls-4" d="M508.67,249a6.2,6.2,0,0,1-.72.83,4.56,4.56,0,0,1-.92.7,5.5,5.5,0,0,1-1.18.49,5.09,5.09,0,0,1-1.45.19A4.17,4.17,0,0,1,503,251a3.42,3.42,0,0,1-1.14-.68,3.14,3.14,0,0,1-.75-1.07,3.4,3.4,0,0,1-.28-1.42,3.3,3.3,0,0,1,.43-1.76,3.14,3.14,0,0,1,1.21-1.13,6,6,0,0,1,1.88-.6,14.79,14.79,0,0,1,2.41-.18h.66a5.14,5.14,0,0,1,.66,0c0-.24,0-.47.05-.68s0-.42,0-.62a2.63,2.63,0,0,0-.53-1.86,2.57,2.57,0,0,0-1.92-.51,6.82,6.82,0,0,0-.87.06c-.32,0-.64.1-1,.17s-.64.17-.94.27a4.75,4.75,0,0,0-.78.36l-.6-1.46a6.94,6.94,0,0,1,2.12-.82,12.29,12.29,0,0,1,2.54-.26c1.68,0,2.76.52,3.26,1.56a3.45,3.45,0,0,1,1.68-1.26,5.84,5.84,0,0,1,2.11-.4,7.54,7.54,0,0,1,1.63.18,3.46,3.46,0,0,1,1.47.7,3.68,3.68,0,0,1,1,1.45,6,6,0,0,1,.41,2.45c0,.25,0,.52,0,.8s-.06.58-.09.9h-7.75a5.26,5.26,0,0,0,.88,3.25,3.47,3.47,0,0,0,3,1.17,4.72,4.72,0,0,0,1.65-.3,4.21,4.21,0,0,0,1.23-.66l.72,1.39a5.39,5.39,0,0,1-1.81.91,7.64,7.64,0,0,1-2.31.34,5.84,5.84,0,0,1-2.66-.6,3.89,3.89,0,0,1-1.76-1.71Zm-3.74.53a3.74,3.74,0,0,0,1.2-.18,3.68,3.68,0,0,0,.91-.45,3.15,3.15,0,0,0,.64-.62,3.08,3.08,0,0,0,.37-.64v-2l-.69,0h-.68a11.43,11.43,0,0,0-1.45.08A4.87,4.87,0,0,0,504,246a2.08,2.08,0,0,0-.86.63,1.48,1.48,0,0,0-.33,1,1.77,1.77,0,0,0,.6,1.38A2.21,2.21,0,0,0,504.93,249.51Zm8.33-9.12a3.38,3.38,0,0,0-2.29.75,3.59,3.59,0,0,0-1,2.54h5.95v-.29a3,3,0,0,0-.73-2.31A2.7,2.7,0,0,0,513.26,240.39Z"/><path class="cls-4" d="M519.49,239h1.88v-.67a9,9,0,0,1,.18-1.92,3.08,3.08,0,0,1,.59-1.33,2.4,2.4,0,0,1,1.05-.77,4.43,4.43,0,0,1,1.61-.25,9.21,9.21,0,0,1,1.36.09,6.47,6.47,0,0,1,1.23.36l-.43,1.61a4.31,4.31,0,0,0-1-.31,6.19,6.19,0,0,0-.93-.07,2,2,0,0,0-1,.19,1.16,1.16,0,0,0-.51.56,3.16,3.16,0,0,0-.19.91q0,.54,0,1.26V239h3.19v1.68h-3.19V251h-1.92V240.68h-1.88Z"/><path class="cls-4" d="M526.5,239h1.88v-2.38l1.92-.55V239h3.26v1.68H530.3v6.65a3.58,3.58,0,0,0,.31,1.76,1.11,1.11,0,0,0,1,.52,4,4,0,0,0,1.06-.13c.29-.09.61-.21,1-.35l.43,1.46a6.82,6.82,0,0,1-3.07.7,2.39,2.39,0,0,1-2.07-.83,5,5,0,0,1-.59-2.77v-7H526.5Z"/><path class="cls-4" d="M551.39,250a5.39,5.39,0,0,1-1.81.91,7.66,7.66,0,0,1-2.32.34,5.76,5.76,0,0,1-2.37-.45,4.13,4.13,0,0,1-1.66-1.27,5.54,5.54,0,0,1-1-2A9.84,9.84,0,0,1,542,245a7,7,0,0,1,1.37-4.68,4.85,4.85,0,0,1,3.91-1.61,7.54,7.54,0,0,1,1.63.18,3.58,3.58,0,0,1,1.46.69,3.49,3.49,0,0,1,1.06,1.42,6.16,6.16,0,0,1,.41,2.44,11.38,11.38,0,0,1-.15,1.75H544a7,7,0,0,0,.22,1.87,3.43,3.43,0,0,0,.67,1.38,2.86,2.86,0,0,0,1.19.87,4.66,4.66,0,0,0,1.78.3,5,5,0,0,0,1.64-.29,3.53,3.53,0,0,0,1.22-.67Zm-4.13-9.65a3.32,3.32,0,0,0-2.27.75,3.77,3.77,0,0,0-1,2.54h6a3.72,3.72,0,0,0-.7-2.56A2.61,2.61,0,0,0,547.26,240.39Z"/><path class="cls-4" d="M554.39,243.2h5.81V245h-5.81Z"/><path class="cls-4" d="M570.49,251v-6.79a13.63,13.63,0,0,0-.08-1.67,3.74,3.74,0,0,0-.32-1.19,1.6,1.6,0,0,0-.69-.72,2.41,2.41,0,0,0-1.16-.24,2.65,2.65,0,0,0-1.84.67,3.54,3.54,0,0,0-1,1.68V251h-1.92V239h1.35l.36,1.46h.09a5.66,5.66,0,0,1,1.5-1.26,4.51,4.51,0,0,1,2.22-.49,3.57,3.57,0,0,1,1.89.45A3,3,0,0,1,572,240.7a3.82,3.82,0,0,1,1.52-1.46,4.56,4.56,0,0,1,2.2-.53,5.54,5.54,0,0,1,1.7.23,2.39,2.39,0,0,1,1.15.8,3.61,3.61,0,0,1,.66,1.56,12.33,12.33,0,0,1,.21,2.5V251h-1.92v-7.22a10.78,10.78,0,0,0-.09-1.5,2.76,2.76,0,0,0-.33-1.06,1.51,1.51,0,0,0-.7-.62,2.73,2.73,0,0,0-1.16-.21,2.58,2.58,0,0,0-1.88.67,4,4,0,0,0-1,1.92v8Z"/><path class="cls-4" d="M582.76,239.89a6.94,6.94,0,0,1,2.12-.82,12.26,12.26,0,0,1,2.53-.26,5.11,5.11,0,0,1,2,.33,2.84,2.84,0,0,1,1.15.88,3.11,3.11,0,0,1,.53,1.19,6.27,6.27,0,0,1,.13,1.29c0,1,0,1.9-.07,2.81s-.07,1.78-.07,2.59c0,.6,0,1.16.07,1.68a8,8,0,0,0,.26,1.47H590l-.51-1.68h-.12a3.92,3.92,0,0,1-.54.66,3.14,3.14,0,0,1-.78.57,4.6,4.6,0,0,1-1,.42,4.8,4.8,0,0,1-1.37.17,4.17,4.17,0,0,1-1.43-.24,3.42,3.42,0,0,1-1.14-.68,3.3,3.3,0,0,1-.76-1.07,3.56,3.56,0,0,1-.27-1.42,3.3,3.3,0,0,1,.43-1.76,3.14,3.14,0,0,1,1.21-1.13,6,6,0,0,1,1.87-.6,15,15,0,0,1,2.42-.18h.66a5.14,5.14,0,0,1,.66,0c0-.48.07-.91.07-1.3a2.56,2.56,0,0,0-.53-1.84,2.66,2.66,0,0,0-1.92-.53,7.1,7.1,0,0,0-.88.06c-.31,0-.63.1-1,.17s-.64.17-.93.27a4.75,4.75,0,0,0-.78.36Zm3.41,9.62a3.78,3.78,0,0,0,1.2-.18,3.68,3.68,0,0,0,.91-.45,2.86,2.86,0,0,0,.63-.62,2.75,2.75,0,0,0,.38-.64v-2l-.69,0h-.68a11.43,11.43,0,0,0-1.45.08,4.76,4.76,0,0,0-1.25.31,2.18,2.18,0,0,0-.87.63,1.53,1.53,0,0,0-.32,1,1.77,1.77,0,0,0,.6,1.38A2.21,2.21,0,0,0,586.17,249.51Z"/><path class="cls-4" d="M594.85,235.35a1.35,1.35,0,0,1,.38-.95,1.23,1.23,0,0,1,.94-.39,1.37,1.37,0,0,1,1,.39,1.29,1.29,0,0,1,.41.95,1.16,1.16,0,0,1-.41.91,1.44,1.44,0,0,1-1,.36,1.28,1.28,0,0,1-.94-.36A1.21,1.21,0,0,1,594.85,235.35Zm.41,3.65h1.92v12h-1.92Z"/><path class="cls-4" d="M603.42,248.05a2,2,0,0,0,.29,1.2,1,1,0,0,0,.82.36,5.58,5.58,0,0,0,.67-.05,3.3,3.3,0,0,0,.81-.22l.22,1.52a4.35,4.35,0,0,1-1.07.31,6.93,6.93,0,0,1-1.19.12,2.61,2.61,0,0,1-1.77-.61,2.64,2.64,0,0,1-.7-2.08V234.2h1.92Z"/></g></g></g><g id="Faktureringsoplysninger" class="cls-3"><g class="cls-3"><path d="M48.38,35.4H59.05v2.07H50.7v6.69h7.79v2.08H50.7V55H48.38Z"/><path d="M62.41,42a8.12,8.12,0,0,1,2.48-1,14.12,14.12,0,0,1,3-.3,5.88,5.88,0,0,1,2.34.39,3.23,3.23,0,0,1,1.34,1,3.42,3.42,0,0,1,.62,1.39,7.66,7.66,0,0,1,.15,1.51c0,1.12,0,2.21-.08,3.27s-.09,2.08-.09,3c0,.69,0,1.34.09,2a9,9,0,0,0,.31,1.71H70.86l-.58-2h-.14a5.33,5.33,0,0,1-.63.77,4.56,4.56,0,0,1-.91.67,6.16,6.16,0,0,1-1.24.49,5.87,5.87,0,0,1-1.59.19,4.8,4.8,0,0,1-1.67-.28,3.85,3.85,0,0,1-1.33-.79,3.72,3.72,0,0,1-.88-1.25,4.15,4.15,0,0,1-.32-1.65,4,4,0,0,1,.5-2.06,3.7,3.7,0,0,1,1.42-1.32,7.07,7.07,0,0,1,2.18-.7A17.38,17.38,0,0,1,68.48,47h.77A5,5,0,0,1,70,47a14.26,14.26,0,0,0,.09-1.51,3,3,0,0,0-.62-2.16,3.16,3.16,0,0,0-2.24-.61,7.39,7.39,0,0,0-1,.07c-.36,0-.74.11-1.12.2a8.67,8.67,0,0,0-1.09.32,5.16,5.16,0,0,0-.91.41Zm4,11.22a4.29,4.29,0,0,0,1.4-.21,4,4,0,0,0,1.07-.53,3.35,3.35,0,0,0,.74-.71,3,3,0,0,0,.43-.76V48.73c-.26,0-.52,0-.79,0l-.8,0a13.5,13.5,0,0,0-1.7.1,5.8,5.8,0,0,0-1.45.36,2.56,2.56,0,0,0-1,.73A1.8,1.8,0,0,0,63.89,51a2.08,2.08,0,0,0,.7,1.61A2.59,2.59,0,0,0,66.38,53.26Z"/><path d="M80.05,48.7H78.76V55H76.52V35.4h2.24V47.33l1.15-.39L84.25,41h2.6l-4.28,5.63-1.15.92,1.4,1.12L87.5,55H84.72Z"/><path d="M88.08,41h2.19V38.23l2.24-.65V41h3.81v2H92.51v7.76a4.23,4.23,0,0,0,.36,2.05,1.3,1.3,0,0,0,1.23.61,4.4,4.4,0,0,0,1.24-.16c.33-.1.7-.24,1.12-.4l.5,1.7a8.24,8.24,0,0,1-1.65.59,7.91,7.91,0,0,1-1.93.23,2.78,2.78,0,0,1-2.41-1,5.62,5.62,0,0,1-.7-3.23V43H88.08Z"/><path d="M101.44,41v8a13.5,13.5,0,0,0,.12,1.92,4,4,0,0,0,.44,1.37,2,2,0,0,0,.84.83,2.93,2.93,0,0,0,1.34.28,3.54,3.54,0,0,0,1.35-.24,3.58,3.58,0,0,0,1-.66,4.49,4.49,0,0,0,.81-1,6,6,0,0,0,.57-1.16V41h2.24V51c0,.68,0,1.37.07,2.09a14.67,14.67,0,0,0,.24,1.89H109l-.56-2.21h-.14a5.67,5.67,0,0,1-1.73,1.82,5,5,0,0,1-2.78.73,6.56,6.56,0,0,1-2-.27,3,3,0,0,1-1.43-.94,4.58,4.58,0,0,1-.87-1.8,12.08,12.08,0,0,1-.29-2.87V41Z"/><path d="M121.12,43.16a4.94,4.94,0,0,0-1.59-.28,2.71,2.71,0,0,0-1.91.65,3,3,0,0,0-.87,1.67V55h-2.24V41h1.57l.42,1.71h.11a4.23,4.23,0,0,1,1.28-1.47,3.17,3.17,0,0,1,1.89-.52,6.73,6.73,0,0,1,1.82.28Z"/><path d="M134.25,53.88a6.23,6.23,0,0,1-2.11,1.06,9.18,9.18,0,0,1-2.7.4,6.88,6.88,0,0,1-2.77-.52,5,5,0,0,1-1.94-1.49A6.55,6.55,0,0,1,123.61,51a11.63,11.63,0,0,1-.36-3,8.18,8.18,0,0,1,1.6-5.46,5.65,5.65,0,0,1,4.56-1.88,8.78,8.78,0,0,1,1.9.21,4.21,4.21,0,0,1,1.71.8,4.08,4.08,0,0,1,1.23,1.67,7,7,0,0,1,.48,2.84,14,14,0,0,1-.17,2h-9a8.49,8.49,0,0,0,.26,2.19,4.24,4.24,0,0,0,.78,1.61A3.43,3.43,0,0,0,128,53a5.55,5.55,0,0,0,2.08.35A5.83,5.83,0,0,0,132,53a4.05,4.05,0,0,0,1.42-.78Zm-4.81-11.26a3.88,3.88,0,0,0-2.65.87,4.36,4.36,0,0,0-1.19,3h7a4.25,4.25,0,0,0-.82-3A3,3,0,0,0,129.44,42.62Z"/><path d="M144.87,43.16a5,5,0,0,0-1.6-.28,2.69,2.69,0,0,0-1.9.65,2.86,2.86,0,0,0-.87,1.67V55h-2.24V41h1.57l.42,1.71h.11a4.21,4.21,0,0,1,1.27-1.47,3.22,3.22,0,0,1,1.89-.52,6.73,6.73,0,0,1,1.82.28Z"/><path d="M147.78,36.74a1.54,1.54,0,0,1,.43-1.1,1.45,1.45,0,0,1,1.11-.46,1.58,1.58,0,0,1,1.15.46,1.5,1.5,0,0,1,.47,1.1,1.39,1.39,0,0,1-.47,1.07,1.68,1.68,0,0,1-1.15.42,1.53,1.53,0,0,1-1.11-.42A1.42,1.42,0,0,1,147.78,36.74Zm.47,4.26h2.24V55h-2.24Z"/><path d="M164.27,55V47a6.8,6.8,0,0,0-.63-3.29,2.42,2.42,0,0,0-2.31-1.11,3.72,3.72,0,0,0-2.45.8,4.27,4.27,0,0,0-1.36,2V55h-2.24V41h1.57l.42,1.71h.11a5,5,0,0,1,1.81-1.47,5.91,5.91,0,0,1,2.7-.58,6.81,6.81,0,0,1,2,.27,3,3,0,0,1,1.44.94,4.58,4.58,0,0,1,.87,1.8,12.08,12.08,0,0,1,.29,2.87V55Z"/><path d="M181.32,55.64a5.13,5.13,0,0,1-1.44,4,6.23,6.23,0,0,1-4.27,1.29,13.91,13.91,0,0,1-2.7-.21,8.22,8.22,0,0,1-1.75-.55l.59-1.9c.43.16.9.32,1.42.47a7.67,7.67,0,0,0,2.05.23,7.29,7.29,0,0,0,1.92-.21,2.57,2.57,0,0,0,1.19-.7,2.76,2.76,0,0,0,.61-1.26,8.94,8.94,0,0,0,.17-1.84V53.63H179a3.79,3.79,0,0,1-1.43,1.24,5.1,5.1,0,0,1-2.27.44,4.88,4.88,0,0,1-4.16-1.77c-.88-1.17-1.33-3-1.33-5.48a7.79,7.79,0,0,1,1.71-5.45,6.51,6.51,0,0,1,5-1.86,12.57,12.57,0,0,1,2.73.25,14.55,14.55,0,0,1,2,.59Zm-5.63-2.29a3.24,3.24,0,0,0,2.24-.72,4,4,0,0,0,1.15-2.22V43.24a6.74,6.74,0,0,0-2.85-.53,3.73,3.73,0,0,0-3,1.29,6.12,6.12,0,0,0-1.09,4,11,11,0,0,0,.19,2.15,5.11,5.11,0,0,0,.62,1.68A3.11,3.11,0,0,0,174,53,3.25,3.25,0,0,0,175.69,53.35Z"/><path d="M191.79,51.19a1.68,1.68,0,0,0-.5-1.31,4.13,4.13,0,0,0-1.25-.8c-.49-.22-1-.42-1.62-.62a7.51,7.51,0,0,1-1.62-.75,4.3,4.3,0,0,1-1.25-1.19,3.37,3.37,0,0,1-.5-2,3.62,3.62,0,0,1,1.14-3,5,5,0,0,1,3.2-.94,10.1,10.1,0,0,1,2.53.27,10.48,10.48,0,0,1,1.78.63l-.53,1.85a8.5,8.5,0,0,0-1.56-.55,7.58,7.58,0,0,0-1.94-.24,3.08,3.08,0,0,0-1.81.42,1.7,1.7,0,0,0-.57,1.46,1.36,1.36,0,0,0,.5,1.13,5.28,5.28,0,0,0,1.25.73q.74.33,1.62.63a7.22,7.22,0,0,1,1.62.81,4.49,4.49,0,0,1,1.25,1.28,3.61,3.61,0,0,1,.5,2,4.64,4.64,0,0,1-.29,1.68,3.44,3.44,0,0,1-.91,1.34,4.24,4.24,0,0,1-1.53.88,6.25,6.25,0,0,1-2.14.33,10.53,10.53,0,0,1-2.71-.31,8.68,8.68,0,0,1-1.88-.73l.67-1.9a8.72,8.72,0,0,0,1.68.67,7.52,7.52,0,0,0,2.1.31,3.76,3.76,0,0,0,2-.48A1.84,1.84,0,0,0,191.79,51.19Z"/><path d="M196.64,48a8.26,8.26,0,0,1,1.58-5.45,5.59,5.59,0,0,1,4.55-1.89,6.78,6.78,0,0,1,2.73.52,5,5,0,0,1,1.92,1.49A6.51,6.51,0,0,1,208.54,45a11.77,11.77,0,0,1,.36,3,8.31,8.31,0,0,1-1.58,5.45,5.61,5.61,0,0,1-4.55,1.89,6.71,6.71,0,0,1-2.73-.52,4.89,4.89,0,0,1-1.92-1.49A6.35,6.35,0,0,1,197,51,11.77,11.77,0,0,1,196.64,48ZM199,48a9.67,9.67,0,0,0,.21,2,5.26,5.26,0,0,0,.66,1.71A3.51,3.51,0,0,0,201,52.93a3.27,3.27,0,0,0,1.76.45q3.81,0,3.81-5.38a9.81,9.81,0,0,0-.21-2.07,5.35,5.35,0,0,0-.66-1.71,3.3,3.3,0,0,0-2.94-1.6Q199,42.61,199,48Z"/><path d="M212.43,41H214l.42,1.68h.11a4.38,4.38,0,0,1,1.67-1.5,5.87,5.87,0,0,1,6.51,1.14q1.37,1.65,1.37,5.4a10.43,10.43,0,0,1-.46,3.18,7.12,7.12,0,0,1-1.3,2.39,5.75,5.75,0,0,1-2,1.51,6.29,6.29,0,0,1-2.64.54,8.66,8.66,0,0,1-1.64-.13,6.79,6.79,0,0,1-1.3-.43V60.6h-2.24Zm5.65,1.62a3.22,3.22,0,0,0-2.25.75,4.09,4.09,0,0,0-1.16,2.25v6.94a3.72,3.72,0,0,0,1.15.61,5.65,5.65,0,0,0,1.7.21,3.69,3.69,0,0,0,3.07-1.45,6.72,6.72,0,0,0,1.13-4.24,10.23,10.23,0,0,0-.19-2.08,4.54,4.54,0,0,0-.63-1.6,3,3,0,0,0-1.12-1A3.62,3.62,0,0,0,218.08,42.62Z"/><path d="M230.07,51.56a2.31,2.31,0,0,0,.33,1.4,1.17,1.17,0,0,0,1,.42,5.54,5.54,0,0,0,.78-.06,4.64,4.64,0,0,0,1-.25l.25,1.76a4.74,4.74,0,0,1-1.24.37,8.57,8.57,0,0,1-1.39.14,3,3,0,0,1-2.07-.72,3.08,3.08,0,0,1-.81-2.42V35.4h2.24Z"/><path d="M239.88,50.07l.79,2.69h.14l.62-2.72,2.72-9h2.24l-4.14,12.57c-.32.92-.63,1.8-.94,2.66a16,16,0,0,1-1,2.3A6.09,6.09,0,0,1,239,60.14a2.43,2.43,0,0,1-1.63.6,4.11,4.11,0,0,1-1.65-.28l.39-1.93a1.81,1.81,0,0,0,2.22-.69,6.87,6.87,0,0,0,1.2-2.84l-5.63-14h2.58Z"/><path d="M255,51.19a1.72,1.72,0,0,0-.5-1.31,4.26,4.26,0,0,0-1.25-.8c-.49-.22-1-.42-1.62-.62a7.83,7.83,0,0,1-1.63-.75,4.26,4.26,0,0,1-1.24-1.19,3.37,3.37,0,0,1-.51-2,3.59,3.59,0,0,1,1.15-3,4.93,4.93,0,0,1,3.19-.94,10.18,10.18,0,0,1,2.54.27,10.05,10.05,0,0,1,1.77.63l-.53,1.85a8.65,8.65,0,0,0-1.55-.55,7.66,7.66,0,0,0-1.95-.24A3.06,3.06,0,0,0,251,43a1.68,1.68,0,0,0-.58,1.46,1.37,1.37,0,0,0,.51,1.13,5.2,5.2,0,0,0,1.24.73c.5.22,1,.43,1.63.63a7.67,7.67,0,0,1,1.62.81,4.62,4.62,0,0,1,1.25,1.28,3.7,3.7,0,0,1,.5,2,4.86,4.86,0,0,1-.29,1.68,3.44,3.44,0,0,1-.91,1.34,4.24,4.24,0,0,1-1.53.88,6.29,6.29,0,0,1-2.14.33,10.61,10.61,0,0,1-2.72-.31,8.79,8.79,0,0,1-1.87-.73l.67-1.9a8.72,8.72,0,0,0,1.68.67,7.52,7.52,0,0,0,2.1.31,3.78,3.78,0,0,0,2-.48A1.84,1.84,0,0,0,255,51.19Z"/><path d="M269.58,55V47a6.8,6.8,0,0,0-.63-3.29,2.42,2.42,0,0,0-2.31-1.11,3.72,3.72,0,0,0-2.45.8,4.2,4.2,0,0,0-1.36,2V55h-2.24V41h1.57l.42,1.71h.11a5.06,5.06,0,0,1,1.8-1.47,6,6,0,0,1,2.71-.58,6.79,6.79,0,0,1,2,.27,3,3,0,0,1,1.44.94,4.33,4.33,0,0,1,.87,1.8,11.53,11.53,0,0,1,.3,2.87V55Z"/><path d="M275.9,36.74a1.55,1.55,0,0,1,.44-1.1,1.44,1.44,0,0,1,1.1-.46,1.58,1.58,0,0,1,1.15.46,1.47,1.47,0,0,1,.48,1.1,1.36,1.36,0,0,1-.48,1.07,1.68,1.68,0,0,1-1.15.42,1.52,1.52,0,0,1-1.1-.42A1.43,1.43,0,0,1,275.9,36.74Zm.48,4.26h2.24V55h-2.24Z"/><path d="M292.4,55V47a6.8,6.8,0,0,0-.63-3.29,2.42,2.42,0,0,0-2.31-1.11,3.72,3.72,0,0,0-2.45.8,4.2,4.2,0,0,0-1.36,2V55h-2.24V41H285l.42,1.71h.11a5.06,5.06,0,0,1,1.8-1.47,6,6,0,0,1,2.71-.58,6.79,6.79,0,0,1,2,.27,3,3,0,0,1,1.44.94,4.33,4.33,0,0,1,.87,1.8,11.53,11.53,0,0,1,.3,2.87V55Z"/><path d="M309.45,55.64a5.13,5.13,0,0,1-1.44,4,6.25,6.25,0,0,1-4.27,1.29,14,14,0,0,1-2.71-.21,8.41,8.41,0,0,1-1.75-.55l.59-1.9c.43.16.91.32,1.43.47a7.54,7.54,0,0,0,2,.23,7.18,7.18,0,0,0,1.92-.21,2.52,2.52,0,0,0,1.19-.7,2.67,2.67,0,0,0,.62-1.26,8.94,8.94,0,0,0,.17-1.84V53.63h-.12a3.76,3.76,0,0,1-1.42,1.24,5.1,5.1,0,0,1-2.27.44,4.87,4.87,0,0,1-4.16-1.77q-1.33-1.76-1.33-5.48a7.79,7.79,0,0,1,1.71-5.45,6.51,6.51,0,0,1,5-1.86,12.7,12.7,0,0,1,2.73.25,15,15,0,0,1,2,.59Zm-5.63-2.29a3.26,3.26,0,0,0,2.24-.72,4,4,0,0,0,1.15-2.22V43.24a6.76,6.76,0,0,0-2.86-.53,3.69,3.69,0,0,0-3,1.29,6.12,6.12,0,0,0-1.1,4,11,11,0,0,0,.2,2.15,5.11,5.11,0,0,0,.62,1.68,3.11,3.11,0,0,0,1.09,1.1A3.25,3.25,0,0,0,303.82,53.35Z"/><path d="M324,53.88a6.33,6.33,0,0,1-2.11,1.06,9.2,9.2,0,0,1-2.71.4,6.91,6.91,0,0,1-2.77-.52,4.93,4.93,0,0,1-1.93-1.49A6.22,6.22,0,0,1,313.34,51a11.61,11.61,0,0,1-.37-3,8.23,8.23,0,0,1,1.6-5.46,5.69,5.69,0,0,1,4.57-1.88,8.85,8.85,0,0,1,1.9.21,4.34,4.34,0,0,1,1.71.8A4.26,4.26,0,0,1,324,43.34a7.07,7.07,0,0,1,.47,2.84,13.91,13.91,0,0,1-.16,2h-9a8.51,8.51,0,0,0,.25,2.19,4.4,4.4,0,0,0,.78,1.61,3.5,3.5,0,0,0,1.39,1,5.6,5.6,0,0,0,2.09.35,5.77,5.77,0,0,0,1.9-.34,4.11,4.11,0,0,0,1.43-.78Zm-4.82-11.26a3.86,3.86,0,0,0-2.64.87,4.32,4.32,0,0,0-1.19,3h6.94a4.3,4.3,0,0,0-.81-3A3,3,0,0,0,319.16,42.62Z"/><path d="M334.59,43.16a5,5,0,0,0-1.6-.28,2.7,2.7,0,0,0-1.9.65,2.86,2.86,0,0,0-.87,1.67V55H328V41h1.57l.42,1.71h.11a4.23,4.23,0,0,1,1.28-1.47,3.17,3.17,0,0,1,1.89-.52,6.79,6.79,0,0,1,1.82.28Z"/></g></g></svg>
