<svg id="Layer_1" data-name="Layer 1" xmlns="http://www.w3.org/2000/svg" viewBox="0 0 822.05 311.81"><defs><style>.cls-1{fill:#fff;}.cls-2,.cls-4{fill:none;}.cls-2{stroke:#a19e9e;}.cls-3{isolation:isolate;}.cls-4{stroke:#717070;}</style></defs><title>Artboard 5</title><g id="Rectangle_241" data-name="Rectangle 241"><rect class="cls-1" x="9.52" y="2.41" width="803" height="307"/><rect class="cls-2" x="10.02" y="2.91" width="802" height="306"/></g><g id="Group_154" data-name="Group 154"><g id="GLS_Pakkeshop_40_00_DKK_" data-name="GLS Pakkeshop 40 00 DKK " class="cls-3"><g class="cls-3"><path d="M404.89,87h6.34V95.3a5.59,5.59,0,0,1-1,.59,8.17,8.17,0,0,1-1.29.46,9.52,9.52,0,0,1-1.43.28,10.4,10.4,0,0,1-1.45.1,9.15,9.15,0,0,1-3.32-.58,6.91,6.91,0,0,1-2.62-1.78,8.43,8.43,0,0,1-1.73-3.05,13.89,13.89,0,0,1-.62-4.36,11.81,11.81,0,0,1,.76-4.49,8.61,8.61,0,0,1,2-3,7.46,7.46,0,0,1,2.73-1.72,8.87,8.87,0,0,1,3-.54,16.28,16.28,0,0,1,2.67.18,8,8,0,0,1,1.79.47l-.57,2a8.49,8.49,0,0,0-3.7-.65,6.74,6.74,0,0,0-2.25.39,5.22,5.22,0,0,0-2,1.31,6.86,6.86,0,0,0-1.45,2.4,10.35,10.35,0,0,0-.57,3.68,11.39,11.39,0,0,0,.46,3.45,6.71,6.71,0,0,0,1.28,2.42,5.09,5.09,0,0,0,2,1.43,6.78,6.78,0,0,0,2.53.47,6,6,0,0,0,2.94-.67V88.79l-4.4-.54Z"/><path d="M426.22,96.41H415V77.5h2.24V94.41h8.94Z"/><path d="M437.53,91.6a2.58,2.58,0,0,0-.67-1.85,7,7,0,0,0-1.69-1.27,23.73,23.73,0,0,0-2.2-1,11.53,11.53,0,0,1-2.2-1.17,6.21,6.21,0,0,1-1.69-1.7A4.58,4.58,0,0,1,428.4,82a4.36,4.36,0,0,1,1.54-3.51,6.6,6.6,0,0,1,4.38-1.3,17.09,17.09,0,0,1,3,.24,8.41,8.41,0,0,1,2.11.62l-.67,2a9,9,0,0,0-1.83-.58,11.76,11.76,0,0,0-2.71-.28,3.89,3.89,0,0,0-2.67.8,2.41,2.41,0,0,0-.89,1.87,2.45,2.45,0,0,0,.67,1.76A6.81,6.81,0,0,0,433,84.86c.67.37,1.41.74,2.2,1.1a14.26,14.26,0,0,1,2.2,1.25,6.74,6.74,0,0,1,1.69,1.72,4.31,4.31,0,0,1,.67,2.48,5.32,5.32,0,0,1-.43,2.19,4.59,4.59,0,0,1-1.27,1.67,5.83,5.83,0,0,1-2,1.08,9,9,0,0,1-2.7.38,14.85,14.85,0,0,1-3.35-.31,9.12,9.12,0,0,1-2.05-.69l.75-2a8.59,8.59,0,0,0,1.84.67,10.4,10.4,0,0,0,2.72.33,8.1,8.1,0,0,0,1.68-.17,3.93,3.93,0,0,0,1.35-.57,2.85,2.85,0,0,0,.9-1A2.72,2.72,0,0,0,437.53,91.6Z"/><path d="M450.54,77.69a13.63,13.63,0,0,1,2.22-.32c.79-.05,1.57-.08,2.35-.08a13.6,13.6,0,0,1,2.52.24,6.81,6.81,0,0,1,2.34.89,5.07,5.07,0,0,1,1.71,1.79,5.63,5.63,0,0,1,.66,2.88,6.15,6.15,0,0,1-.62,2.92,5.42,5.42,0,0,1-1.64,1.93A6.72,6.72,0,0,1,457.73,89a11.79,11.79,0,0,1-2.73.32h-1.09l-.67,0-.45-.06v7.19h-2.25Zm4.62,1.54q-.71,0-1.35,0a4.16,4.16,0,0,0-1,.14v7.83a1.74,1.74,0,0,0,.43.06l.62,0h1.05a9.27,9.27,0,0,0,1.82-.17,4.72,4.72,0,0,0,1.64-.64,3.26,3.26,0,0,0,1.17-1.29,4.5,4.5,0,0,0,.45-2.14,3.68,3.68,0,0,0-.42-1.84,3.26,3.26,0,0,0-1.11-1.19,4.66,4.66,0,0,0-1.55-.64A8.49,8.49,0,0,0,455.16,79.23Z"/><path d="M464.26,83.9a7.63,7.63,0,0,1,2.39-.91,13.24,13.24,0,0,1,2.85-.3,5.63,5.63,0,0,1,2.25.38,3.17,3.17,0,0,1,1.3,1,3.36,3.36,0,0,1,.59,1.34,7.16,7.16,0,0,1,.15,1.46c0,1.08,0,2.13-.08,3.16s-.08,2-.08,2.91c0,.67,0,1.3.08,1.89a8.07,8.07,0,0,0,.3,1.65h-1.6l-.56-1.89h-.14a4.43,4.43,0,0,1-.6.74,4.27,4.27,0,0,1-.88.65,5.18,5.18,0,0,1-1.19.47,5.55,5.55,0,0,1-1.54.19,4.69,4.69,0,0,1-1.61-.27,3.68,3.68,0,0,1-1.28-.77,3.58,3.58,0,0,1-.85-1.2,3.86,3.86,0,0,1-.31-1.59,3.72,3.72,0,0,1,.49-2,3.48,3.48,0,0,1,1.36-1.27,6.71,6.71,0,0,1,2.11-.67,16.09,16.09,0,0,1,2.71-.2h.74a4.6,4.6,0,0,1,.74,0,13.39,13.39,0,0,0,.09-1.46,2.89,2.89,0,0,0-.6-2.08,3.07,3.07,0,0,0-2.16-.59,6.84,6.84,0,0,0-1,.07c-.36,0-.71.11-1.08.19a10.93,10.93,0,0,0-1.06.31,5,5,0,0,0-.87.4Zm3.83,10.83a4,4,0,0,0,2.38-.71,3.12,3.12,0,0,0,1.13-1.42V90.36l-.77,0-.76,0a12.56,12.56,0,0,0-1.64.1,5,5,0,0,0-1.4.35,2.36,2.36,0,0,0-1,.7,1.68,1.68,0,0,0-.37,1.12,2,2,0,0,0,.68,1.55A2.45,2.45,0,0,0,468.09,94.73Z"/><path d="M481.27,90.33H480v6.08h-2.16V77.5H480V89l1.11-.38,4.18-5.72h2.51l-4.13,5.42-1.11.89,1.35,1.08,4.51,6.11h-2.67Z"/><path d="M494.2,90.33H493v6.08H490.8V77.5H493V89l1.11-.38,4.18-5.72h2.51l-4.13,5.42-1.1.89,1.35,1.08,4.5,6.11h-2.67Z"/><path d="M513.26,95.33a6.14,6.14,0,0,1-2,1,8.9,8.9,0,0,1-2.61.38,6.59,6.59,0,0,1-2.67-.5,4.76,4.76,0,0,1-1.87-1.43A6.35,6.35,0,0,1,503,92.57a11.27,11.27,0,0,1-.35-2.91,8,8,0,0,1,1.54-5.27,5.46,5.46,0,0,1,4.4-1.81,8.86,8.86,0,0,1,1.84.2,4.17,4.17,0,0,1,1.65.77,4.09,4.09,0,0,1,1.18,1.61,6.8,6.8,0,0,1,.46,2.74,13.12,13.12,0,0,1-.16,2h-8.67a8.36,8.36,0,0,0,.25,2.11,4.08,4.08,0,0,0,.75,1.55,3.32,3.32,0,0,0,1.34,1,5.21,5.21,0,0,0,2,.34,5.66,5.66,0,0,0,1.84-.32,3.86,3.86,0,0,0,1.37-.76Zm-4.64-10.86a3.73,3.73,0,0,0-2.55.84,4.2,4.2,0,0,0-1.15,2.86h6.7a4.12,4.12,0,0,0-.79-2.88A2.93,2.93,0,0,0,508.62,84.47Z"/><path d="M523.07,92.73a1.69,1.69,0,0,0-.49-1.27,4.35,4.35,0,0,0-1.2-.77c-.48-.2-1-.4-1.57-.59a7,7,0,0,1-1.56-.73A4,4,0,0,1,517,88.22a3.26,3.26,0,0,1-.48-1.89,3.45,3.45,0,0,1,1.11-2.84,4.66,4.66,0,0,1,3.07-.91,9.93,9.93,0,0,1,2.45.26,8.92,8.92,0,0,1,1.71.61l-.51,1.78a8.38,8.38,0,0,0-1.5-.53,7.56,7.56,0,0,0-1.88-.23,3,3,0,0,0-1.74.41,1.61,1.61,0,0,0-.55,1.4,1.32,1.32,0,0,0,.48,1.09,5.52,5.52,0,0,0,1.21.71c.47.2,1,.41,1.56.6a6.6,6.6,0,0,1,1.57.79,4.36,4.36,0,0,1,1.2,1.22,3.58,3.58,0,0,1,.49,2,4.52,4.52,0,0,1-.29,1.62,3.23,3.23,0,0,1-.88,1.3,4.21,4.21,0,0,1-1.47.85,6.08,6.08,0,0,1-2.06.31,9.89,9.89,0,0,1-2.62-.3,8.45,8.45,0,0,1-1.81-.7l.65-1.84a7.54,7.54,0,0,0,1.62.65,7,7,0,0,0,2,.3,3.59,3.59,0,0,0,1.92-.46A1.78,1.78,0,0,0,523.07,92.73Z"/><path d="M537.16,96.41v-7.7a12.57,12.57,0,0,0-.12-1.85,3.42,3.42,0,0,0-.45-1.32,2.06,2.06,0,0,0-.88-.8,3.27,3.27,0,0,0-1.44-.27,3.59,3.59,0,0,0-2.29.82,3.71,3.71,0,0,0-1.33,2.12v9h-2.16V77.5h2.16v6.92h.11a5.25,5.25,0,0,1,1.69-1.34,5.38,5.38,0,0,1,2.44-.5,6.77,6.77,0,0,1,2,.26,2.9,2.9,0,0,1,1.39.9,4,4,0,0,1,.81,1.74,12.52,12.52,0,0,1,.26,2.77v8.16Z"/><path d="M542.51,89.66A8,8,0,0,1,544,84.4a5.42,5.42,0,0,1,4.39-1.82,6.46,6.46,0,0,1,2.63.5,4.76,4.76,0,0,1,1.85,1.43A6.07,6.07,0,0,1,554,86.75a11.43,11.43,0,0,1,.35,2.91,8,8,0,0,1-1.52,5.25,5.42,5.42,0,0,1-4.39,1.82,6.43,6.43,0,0,1-2.63-.5,4.69,4.69,0,0,1-1.85-1.43,6.07,6.07,0,0,1-1.08-2.24A11,11,0,0,1,542.51,89.66Zm2.24,0a9.08,9.08,0,0,0,.2,2,4.92,4.92,0,0,0,.63,1.64,3.45,3.45,0,0,0,1.14,1.14,3.16,3.16,0,0,0,1.7.43q3.68,0,3.67-5.18a9.83,9.83,0,0,0-.2-2,5.31,5.31,0,0,0-.64-1.65,3.14,3.14,0,0,0-2.83-1.54Q544.75,84.44,544.75,89.66Z"/><path d="M557.73,82.91h1.49l.4,1.62h.11a4.08,4.08,0,0,1,1.61-1.45,5.67,5.67,0,0,1,6.27,1.09c.89,1.07,1.33,2.8,1.33,5.22a9.74,9.74,0,0,1-.45,3.06,6.73,6.73,0,0,1-1.25,2.31,5.66,5.66,0,0,1-2,1.46,6.24,6.24,0,0,1-2.55.51,8.1,8.1,0,0,1-1.58-.12,6.2,6.2,0,0,1-1.26-.42v5.62h-2.16Zm5.46,1.56a3.13,3.13,0,0,0-2.18.72,4,4,0,0,0-1.12,2.17v6.7a3.91,3.91,0,0,0,1.11.58,5.61,5.61,0,0,0,1.65.2,3.55,3.55,0,0,0,3-1.39,6.52,6.52,0,0,0,1.1-4.09,10.25,10.25,0,0,0-.19-2,4.39,4.39,0,0,0-.61-1.54,2.93,2.93,0,0,0-1.08-1A3.51,3.51,0,0,0,563.19,84.47Z"/><path d="M583.6,102.35a14.21,14.21,0,0,1-2.11-2.85,18.25,18.25,0,0,1-1.39-3.19,20.35,20.35,0,0,1-.77-3.29,22.31,22.31,0,0,1-.24-3.18,21.75,21.75,0,0,1,.24-3.13,20.12,20.12,0,0,1,.79-3.31,19.25,19.25,0,0,1,1.41-3.25,15.36,15.36,0,0,1,2.15-3l1.3.95a15.73,15.73,0,0,0-1.8,2.84A18.57,18.57,0,0,0,582,84a18,18,0,0,0-.6,3,24.16,24.16,0,0,0-.18,2.87,22.51,22.51,0,0,0,.2,2.83,21,21,0,0,0,.65,3,18.74,18.74,0,0,0,1.16,3,13.25,13.25,0,0,0,1.72,2.65Z"/><path d="M599.18,90.6H596v5.81h-2.1V90.6h-8.32v-.89l9-12.5H596v11.5h3.19Zm-5.29-7.78.26-2.21h-.08l-.94,1.84-3.81,5.15L588,88.93l1.89-.22h4Z"/><path d="M600.91,87c0-3.25.52-5.68,1.58-7.32a5.69,5.69,0,0,1,9.34,0Q613.3,82,613.3,87c0,3.24-.53,5.67-1.58,7.31a5.16,5.16,0,0,1-4.63,2.46,5,5,0,0,1-4.7-2.57A14.48,14.48,0,0,1,600.91,87Zm2.24,0a19.51,19.51,0,0,0,.23,3.19,9.31,9.31,0,0,0,.71,2.49,4.4,4.4,0,0,0,1.23,1.62,2.77,2.77,0,0,0,1.77.58,3.16,3.16,0,0,0,3-1.9,14,14,0,0,0,1-6,24,24,0,0,0-.2-3.19,9.61,9.61,0,0,0-.68-2.51A4.05,4.05,0,0,0,609,79.64a3,3,0,0,0-1.86-.57,3.13,3.13,0,0,0-3,1.92A14,14,0,0,0,603.15,87Z"/><path d="M615.78,95.24a1.4,1.4,0,0,1,.43-1,1.56,1.56,0,0,1,1.11-.4,1.74,1.74,0,0,1,1.37.59,2.54,2.54,0,0,1,.52,1.73,4.89,4.89,0,0,1-.27,1.7,4.32,4.32,0,0,1-.7,1.25,4.08,4.08,0,0,1-1,.87,4.37,4.37,0,0,1-1,.5l-.68-1.06A2.8,2.8,0,0,0,617,98.2a3.17,3.17,0,0,0,.47-1.61,1.31,1.31,0,0,1-.46.08,1.22,1.22,0,0,1-.9-.36A1.42,1.42,0,0,1,615.78,95.24Z"/><path d="M620.89,87c0-3.25.52-5.68,1.57-7.32a5.7,5.7,0,0,1,9.35,0Q633.28,82,633.28,87c0,3.24-.53,5.67-1.58,7.31a5.16,5.16,0,0,1-4.63,2.46,5,5,0,0,1-4.7-2.57A14.48,14.48,0,0,1,620.89,87Zm2.24,0a19.51,19.51,0,0,0,.23,3.19,9.31,9.31,0,0,0,.71,2.49,4.4,4.4,0,0,0,1.23,1.62,2.75,2.75,0,0,0,1.77.58,3.16,3.16,0,0,0,3-1.9,14,14,0,0,0,1-6,22.37,22.37,0,0,0-.21-3.19,9.25,9.25,0,0,0-.67-2.51,4.05,4.05,0,0,0-1.23-1.62,3,3,0,0,0-1.86-.57,3.15,3.15,0,0,0-3,1.92A14,14,0,0,0,623.13,87Z"/><path d="M635.6,87c0-3.25.53-5.68,1.58-7.32a5.69,5.69,0,0,1,9.34,0Q648,82,648,87c0,3.24-.52,5.67-1.58,7.31a5.15,5.15,0,0,1-4.63,2.46,5,5,0,0,1-4.7-2.57A14.48,14.48,0,0,1,635.6,87Zm2.24,0a20.69,20.69,0,0,0,.23,3.19,8.94,8.94,0,0,0,.72,2.49A4.38,4.38,0,0,0,640,94.26a2.79,2.79,0,0,0,1.77.58,3.16,3.16,0,0,0,3-1.9,14,14,0,0,0,1-6,24,24,0,0,0-.2-3.19,9.24,9.24,0,0,0-.68-2.51,4,4,0,0,0-1.22-1.62,3,3,0,0,0-1.87-.57,3.14,3.14,0,0,0-3,1.92A14,14,0,0,0,637.84,87Z"/><path d="M658.66,77.5c.34,0,.72-.09,1.15-.12l1.32,0,1.35,0h1.23a10,10,0,0,1,3.93.7,7.34,7.34,0,0,1,2.74,2,8.13,8.13,0,0,1,1.6,3,13.44,13.44,0,0,1,.53,3.86,13.64,13.64,0,0,1-.5,3.69,8.89,8.89,0,0,1-1.58,3.13,7.81,7.81,0,0,1-2.81,2.19,9.8,9.8,0,0,1-4.18.82l-1.12,0c-.46,0-.93,0-1.42,0l-1.35-.07a5,5,0,0,1-.89-.08Zm5.1,1.79H663l-.82,0-.74.06-.53,0V94.54a3.68,3.68,0,0,0,.51,0l.78,0,.79,0h.51a7,7,0,0,0,3.17-.65,5.49,5.49,0,0,0,2.06-1.74,7.2,7.2,0,0,0,1.09-2.51,12.9,12.9,0,0,0,.32-2.93,12.74,12.74,0,0,0-.29-2.66,7,7,0,0,0-1-2.42,5.57,5.57,0,0,0-2-1.76A6.25,6.25,0,0,0,663.76,79.29Z"/><path d="M679.83,87.66h-1.27v8.75h-2.24V77.5h2.24v8.81l1.21-.38,6.35-8.43h2.59l-6.32,8.13-1.13.89,1.37,1.08,6.92,8.81h-2.84Z"/><path d="M696.3,87.66H695v8.75h-2.25V77.5H695v8.81l1.21-.38,6.35-8.43h2.59l-6.32,8.13-1.13.89,1.37,1.08L706,96.41h-2.84Z"/><path d="M708.39,77.18A13.93,13.93,0,0,1,710.5,80a18.25,18.25,0,0,1,1.39,3.19,20.93,20.93,0,0,1,.77,3.29,22.18,22.18,0,0,1,.24,3.17,21.64,21.64,0,0,1-.24,3.13,21.18,21.18,0,0,1-.79,3.31,18.91,18.91,0,0,1-1.41,3.25,15.13,15.13,0,0,1-2.15,3l-1.3-.95a15.94,15.94,0,0,0,1.81-2.86,17,17,0,0,0,1.15-3,19.15,19.15,0,0,0,.59-3,23.74,23.74,0,0,0,.18-2.86,19.2,19.2,0,0,0-.22-2.81,21.66,21.66,0,0,0-.66-3.05,18.43,18.43,0,0,0-1.15-3,11.88,11.88,0,0,0-1.7-2.65Z"/></g></g></g><g id="Group_155" data-name="Group 155"><g id="GLS_Privat_Levering_60_00_DKK_Pakke_med_omdeling" data-name="GLS Privat Levering 60 00 DKK Pakke med omdeling" class="cls-3"><g class="cls-3"><path d="M357,146h6.35v8.32a5.93,5.93,0,0,1-1,.59,8.67,8.67,0,0,1-1.3.46,9.28,9.28,0,0,1-1.43.28,10.16,10.16,0,0,1-1.44.1,9.08,9.08,0,0,1-3.32-.58,6.91,6.91,0,0,1-2.62-1.78,8.29,8.29,0,0,1-1.73-3.05,13.89,13.89,0,0,1-.62-4.36,12,12,0,0,1,.75-4.49,8.76,8.76,0,0,1,2-3,7.43,7.43,0,0,1,2.72-1.72,9,9,0,0,1,3-.54,16.28,16.28,0,0,1,2.67.18,7.87,7.87,0,0,1,1.78.47l-.57,2a8.44,8.44,0,0,0-3.69-.65,6.85,6.85,0,0,0-2.26.39,5.11,5.11,0,0,0-2,1.31,7,7,0,0,0-1.46,2.4,10.35,10.35,0,0,0-.57,3.68,11.72,11.72,0,0,0,.46,3.45,6.87,6.87,0,0,0,1.28,2.42,5.19,5.19,0,0,0,2,1.43,6.7,6.7,0,0,0,2.53.47,5.9,5.9,0,0,0,2.93-.67v-5.27l-4.4-.54Z"/><path d="M378.29,155.41H367.12V136.5h2.24v16.91h8.93Z"/><path d="M389.61,150.6a2.59,2.59,0,0,0-.68-1.85,6.62,6.62,0,0,0-1.69-1.27,21.52,21.52,0,0,0-2.2-1,11.84,11.84,0,0,1-2.2-1.17,6.32,6.32,0,0,1-1.68-1.7,4.58,4.58,0,0,1-.68-2.58,4.33,4.33,0,0,1,1.54-3.51,6.57,6.57,0,0,1,4.37-1.3,17.21,17.21,0,0,1,3,.24,8.55,8.55,0,0,1,2.11.62l-.68,2a8.69,8.69,0,0,0-1.82-.58,11.82,11.82,0,0,0-2.71-.28,3.94,3.94,0,0,0-2.68.8,2.5,2.5,0,0,0-.21,3.63,6.94,6.94,0,0,0,1.68,1.25c.68.37,1.41.74,2.2,1.1a13.91,13.91,0,0,1,2.21,1.25,6.7,6.7,0,0,1,1.68,1.72,4.31,4.31,0,0,1,.68,2.48,5.48,5.48,0,0,1-.43,2.19,4.7,4.7,0,0,1-1.27,1.67,5.88,5.88,0,0,1-2,1.08,8.94,8.94,0,0,1-2.7.38,14.91,14.91,0,0,1-3.35-.31,9.49,9.49,0,0,1-2.05-.69l.76-2a8.47,8.47,0,0,0,1.83.67,10.42,10.42,0,0,0,2.73.33,8.08,8.08,0,0,0,1.67-.17,3.77,3.77,0,0,0,1.35-.57,3,3,0,0,0,.91-1A2.82,2.82,0,0,0,389.61,150.6Z"/><path d="M402.62,136.69a13.35,13.35,0,0,1,2.21-.32c.8-.05,1.58-.08,2.35-.08a13.79,13.79,0,0,1,2.53.24,6.84,6.84,0,0,1,2.33.89,5,5,0,0,1,1.72,1.79,5.63,5.63,0,0,1,.66,2.88,6.28,6.28,0,0,1-.62,2.92,5.44,5.44,0,0,1-1.65,1.93A6.64,6.64,0,0,1,409.8,148a11.7,11.7,0,0,1-2.72.32H406l-.66,0-.46-.06v7.19h-2.24Zm4.62,1.54q-.71,0-1.35,0a4.25,4.25,0,0,0-1,.14v7.83a1.74,1.74,0,0,0,.43.06l.62,0H407a9.27,9.27,0,0,0,1.82-.17,4.67,4.67,0,0,0,1.63-.64,3.28,3.28,0,0,0,1.18-1.29,4.63,4.63,0,0,0,.44-2.14,3.68,3.68,0,0,0-.42-1.84,3.16,3.16,0,0,0-1.1-1.19,4.74,4.74,0,0,0-1.55-.64A8.56,8.56,0,0,0,407.24,138.23Z"/><path d="M422.92,144a4.84,4.84,0,0,0-1.53-.27,2.59,2.59,0,0,0-1.84.64,2.77,2.77,0,0,0-.84,1.61v9.45h-2.16v-13.5h1.51l.41,1.64h.11a4.21,4.21,0,0,1,1.23-1.42,3.1,3.1,0,0,1,1.82-.49,6.55,6.55,0,0,1,1.75.27Z"/><path d="M425.73,137.8a1.52,1.52,0,0,1,.42-1.07,1.42,1.42,0,0,1,1.07-.44,1.53,1.53,0,0,1,1.1.44,1.44,1.44,0,0,1,.46,1.07,1.3,1.3,0,0,1-.46,1,1.59,1.59,0,0,1-1.1.4,1.46,1.46,0,0,1-1.07-.4A1.36,1.36,0,0,1,425.73,137.8Zm.46,4.11h2.16v13.5h-2.16Z"/><path d="M436.86,149.82l.75,2.56h0l.67-2.62,3-7.85h2.32l-5.75,13.79H437l-5.86-13.79h2.49Z"/><path d="M445.77,142.9a7.66,7.66,0,0,1,2.38-.91,13.24,13.24,0,0,1,2.85-.3,5.68,5.68,0,0,1,2.26.38,3.14,3.14,0,0,1,1.29,1,3.38,3.38,0,0,1,.6,1.34,7.16,7.16,0,0,1,.15,1.46c0,1.08,0,2.13-.08,3.16s-.09,2-.09,2.91a18.72,18.72,0,0,0,.09,1.89,8.84,8.84,0,0,0,.29,1.65h-1.59l-.57-1.89h-.13a4.51,4.51,0,0,1-.61.74,4,4,0,0,1-.88.65,5.18,5.18,0,0,1-1.19.47,5.52,5.52,0,0,1-1.53.19,4.65,4.65,0,0,1-1.61-.27,3.59,3.59,0,0,1-1.28-.77,3.45,3.45,0,0,1-.85-1.2,3.86,3.86,0,0,1-.31-1.59,3.81,3.81,0,0,1,.48-2,3.62,3.62,0,0,1,1.36-1.27,6.8,6.8,0,0,1,2.11-.67,16.18,16.18,0,0,1,2.71-.2h.75a4.68,4.68,0,0,1,.74.05c.05-.54.08-1,.08-1.46a2.94,2.94,0,0,0-.59-2.08,3.08,3.08,0,0,0-2.16-.59,7,7,0,0,0-1,.07c-.35,0-.71.11-1.08.19a10,10,0,0,0-1.05.31,4.82,4.82,0,0,0-.88.4Zm3.83,10.83a4.35,4.35,0,0,0,1.35-.2,4.3,4.3,0,0,0,1-.51,3.59,3.59,0,0,0,.71-.69,3.09,3.09,0,0,0,.42-.73v-2.24l-.77,0-.77,0a12.41,12.41,0,0,0-1.63.1,5.2,5.2,0,0,0-1.41.35,2.43,2.43,0,0,0-1,.7,1.73,1.73,0,0,0-.36,1.12,2,2,0,0,0,.67,1.55A2.47,2.47,0,0,0,449.6,153.73Z"/><path d="M457.59,141.91h2.11v-2.68l2.16-.62v3.3h3.67v1.88h-3.67v7.48a4,4,0,0,0,.35,2,1.27,1.27,0,0,0,1.19.58,4,4,0,0,0,1.18-.15q.5-.15,1.08-.39l.49,1.65a8.52,8.52,0,0,1-1.59.56,7.43,7.43,0,0,1-1.87.22,2.69,2.69,0,0,1-2.32-.93,5.47,5.47,0,0,1-.67-3.12v-7.89h-2.11Z"/><path d="M487.13,155.41H476V136.5h2.24v16.91h8.94Z"/><path d="M498,154.33a6.09,6.09,0,0,1-2,1,8.9,8.9,0,0,1-2.61.38,6.66,6.66,0,0,1-2.67-.5,4.65,4.65,0,0,1-1.86-1.43,6,6,0,0,1-1.08-2.23,10.85,10.85,0,0,1-.35-2.91,8,8,0,0,1,1.53-5.27,5.47,5.47,0,0,1,4.41-1.81,8.77,8.77,0,0,1,1.83.2,3.88,3.88,0,0,1,2.84,2.38,7,7,0,0,1,.46,2.74,13.22,13.22,0,0,1-.17,2h-8.66a8.39,8.39,0,0,0,.24,2.11,4,4,0,0,0,.76,1.55,3.22,3.22,0,0,0,1.33,1,5.21,5.21,0,0,0,2,.34,5.61,5.61,0,0,0,1.84-.32,4,4,0,0,0,1.38-.76Zm-4.65-10.86a3.73,3.73,0,0,0-2.55.84,4.2,4.2,0,0,0-1.15,2.86h6.7a4.17,4.17,0,0,0-.78-2.88A3,3,0,0,0,493.31,143.47Z"/><path d="M505.11,149.82l.76,2.56h0l.68-2.62,3-7.85h2.33l-5.76,13.79h-.91l-5.86-13.79h2.48Z"/><path d="M523.8,154.33a6.09,6.09,0,0,1-2,1,8.9,8.9,0,0,1-2.61.38,6.63,6.63,0,0,1-2.67-.5,4.65,4.65,0,0,1-1.86-1.43,6,6,0,0,1-1.08-2.23,10.83,10.83,0,0,1-.36-2.91,8,8,0,0,1,1.54-5.27,5.46,5.46,0,0,1,4.4-1.81,8.79,8.79,0,0,1,1.84.2,3.88,3.88,0,0,1,2.84,2.38,7,7,0,0,1,.45,2.74,13.12,13.12,0,0,1-.16,2h-8.66a8.39,8.39,0,0,0,.24,2.11,4.08,4.08,0,0,0,.75,1.55,3.32,3.32,0,0,0,1.34,1,5.21,5.21,0,0,0,2,.34,5.66,5.66,0,0,0,1.84-.32,4,4,0,0,0,1.38-.76Zm-4.65-10.86a3.73,3.73,0,0,0-2.55.84,4.2,4.2,0,0,0-1.15,2.86h6.7a4.17,4.17,0,0,0-.78-2.88A3,3,0,0,0,519.15,143.47Z"/><path d="M534,144a4.86,4.86,0,0,0-1.54-.27,2.61,2.61,0,0,0-1.84.64,2.7,2.7,0,0,0-.83,1.61v9.45h-2.16v-13.5h1.51l.4,1.64h.11a4.21,4.21,0,0,1,1.23-1.42,3.13,3.13,0,0,1,1.82-.49,6.68,6.68,0,0,1,1.76.27Z"/><path d="M536.84,137.8a1.52,1.52,0,0,1,.42-1.07,1.39,1.39,0,0,1,1.06-.44,1.57,1.57,0,0,1,1.11.44,1.48,1.48,0,0,1,.46,1.07,1.33,1.33,0,0,1-.46,1,1.63,1.63,0,0,1-1.11.4,1.44,1.44,0,0,1-1.06-.4A1.36,1.36,0,0,1,536.84,137.8Zm.46,4.11h2.16v13.5H537.3Z"/><path d="M552.74,155.41v-7.7a6.49,6.49,0,0,0-.61-3.17,2.34,2.34,0,0,0-2.23-1.07,3.6,3.6,0,0,0-2.36.77,4.1,4.1,0,0,0-1.31,1.93v9.24h-2.16v-13.5h1.51l.41,1.64h.11a4.94,4.94,0,0,1,1.74-1.42,5.83,5.83,0,0,1,2.6-.55,6.72,6.72,0,0,1,1.95.26,2.9,2.9,0,0,1,1.39.9,4.29,4.29,0,0,1,.84,1.74,11.82,11.82,0,0,1,.28,2.77v8.16Z"/><path d="M569.18,156a4.92,4.92,0,0,1-1.39,3.86,6.06,6.06,0,0,1-4.12,1.24,13.84,13.84,0,0,1-2.6-.2,7.84,7.84,0,0,1-1.69-.53l.57-1.84a11.73,11.73,0,0,0,1.38.46,7.09,7.09,0,0,0,2,.22,7.25,7.25,0,0,0,1.85-.2,2.38,2.38,0,0,0,1.14-.68,2.56,2.56,0,0,0,.6-1.21,8.35,8.35,0,0,0,.16-1.77v-1.3h-.11a3.63,3.63,0,0,1-1.38,1.2,4.83,4.83,0,0,1-2.18.42,4.67,4.67,0,0,1-4-1.7c-.86-1.13-1.28-2.9-1.28-5.29a7.51,7.51,0,0,1,1.64-5.25,6.27,6.27,0,0,1,4.86-1.8,11.67,11.67,0,0,1,2.63.25,15,15,0,0,1,2,.56Zm-5.42-2.22a3.18,3.18,0,0,0,2.16-.69A3.82,3.82,0,0,0,567,151v-6.91a6.3,6.3,0,0,0-2.75-.52,3.6,3.6,0,0,0-2.89,1.24,6,6,0,0,0-1,3.89,10.3,10.3,0,0,0,.19,2.08,4.92,4.92,0,0,0,.59,1.62,2.93,2.93,0,0,0,1,1.05A3.06,3.06,0,0,0,563.76,153.81Z"/><path d="M584.6,161.35a14.21,14.21,0,0,1-2.11-2.85,18.25,18.25,0,0,1-1.39-3.19,20.35,20.35,0,0,1-.77-3.29,22.31,22.31,0,0,1-.24-3.18,21.75,21.75,0,0,1,.24-3.13,20.12,20.12,0,0,1,.79-3.31,19.25,19.25,0,0,1,1.41-3.25,15.36,15.36,0,0,1,2.15-3l1.3.95a15.73,15.73,0,0,0-1.8,2.84,18.57,18.57,0,0,0-1.15,3,18,18,0,0,0-.6,3,24.16,24.16,0,0,0-.18,2.87,22.51,22.51,0,0,0,.2,2.83,21,21,0,0,0,.65,3.05,18.74,18.74,0,0,0,1.16,3,13.25,13.25,0,0,0,1.72,2.65Z"/><path d="M599.31,149.71a7.11,7.11,0,0,1-.37,2.33,5.72,5.72,0,0,1-1.11,1.92,5.22,5.22,0,0,1-1.81,1.3,6.17,6.17,0,0,1-2.46.47,6.66,6.66,0,0,1-2.43-.43,5,5,0,0,1-1.86-1.29,5.71,5.71,0,0,1-1.2-2.09,8.92,8.92,0,0,1-.42-2.86,16.83,16.83,0,0,1,.69-4.93,13.29,13.29,0,0,1,1.9-3.93,10.29,10.29,0,0,1,2.88-2.71,9.09,9.09,0,0,1,3.6-1.31l.46,1.73a7.72,7.72,0,0,0-2.75,1,8.64,8.64,0,0,0-2.18,1.86,9.77,9.77,0,0,0-1.52,2.48,11.07,11.07,0,0,0-.81,2.84,4,4,0,0,1,1.46-1.34,4.88,4.88,0,0,1,2.51-.61,5.35,5.35,0,0,1,4,1.46A5.55,5.55,0,0,1,599.31,149.71Zm-2.24.21a4.09,4.09,0,0,0-.89-2.88,3.54,3.54,0,0,0-2.75-1,4,4,0,0,0-2.28.65,3.67,3.67,0,0,0-1.34,1.46,3.91,3.91,0,0,0,0,.62v.54A5.77,5.77,0,0,0,590,151a4.22,4.22,0,0,0,.71,1.44,4,4,0,0,0,1.2,1,3.49,3.49,0,0,0,1.69.39,3.31,3.31,0,0,0,1.42-.3,3.49,3.49,0,0,0,1.09-.81,3.52,3.52,0,0,0,.72-1.24A4.74,4.74,0,0,0,597.07,149.92Z"/><path d="M601.91,146c0-3.25.52-5.68,1.58-7.32a5.69,5.69,0,0,1,9.34,0Q614.3,141,614.3,146c0,3.24-.53,5.67-1.58,7.31a5.16,5.16,0,0,1-4.63,2.46,5,5,0,0,1-4.7-2.57A14.48,14.48,0,0,1,601.91,146Zm2.24,0a19.51,19.51,0,0,0,.23,3.19,9.31,9.31,0,0,0,.71,2.49,4.4,4.4,0,0,0,1.23,1.62,2.77,2.77,0,0,0,1.77.58,3.16,3.16,0,0,0,3-1.9,14,14,0,0,0,1-6,24,24,0,0,0-.2-3.19,9.61,9.61,0,0,0-.68-2.51,4.05,4.05,0,0,0-1.23-1.62,3,3,0,0,0-1.86-.57,3.13,3.13,0,0,0-3,1.92A14,14,0,0,0,604.15,146Z"/><path d="M616.78,154.24a1.4,1.4,0,0,1,.43-1.05,1.56,1.56,0,0,1,1.11-.4,1.74,1.74,0,0,1,1.37.59,2.54,2.54,0,0,1,.52,1.73,4.89,4.89,0,0,1-.27,1.7,4.32,4.32,0,0,1-.7,1.25,4.08,4.08,0,0,1-1,.87,4.37,4.37,0,0,1-1,.5l-.68-1.06A2.8,2.8,0,0,0,618,157.2a3.17,3.17,0,0,0,.47-1.61,1.28,1.28,0,0,1-.46.08,1.22,1.22,0,0,1-.9-.36A1.42,1.42,0,0,1,616.78,154.24Z"/><path d="M621.89,146c0-3.25.52-5.68,1.58-7.32a5.69,5.69,0,0,1,9.34,0q1.47,2.42,1.47,7.36c0,3.24-.53,5.67-1.58,7.31a5.16,5.16,0,0,1-4.63,2.46,5,5,0,0,1-4.7-2.57A14.48,14.48,0,0,1,621.89,146Zm2.24,0a19.51,19.51,0,0,0,.23,3.19,9.31,9.31,0,0,0,.71,2.49,4.4,4.4,0,0,0,1.23,1.62,2.75,2.75,0,0,0,1.77.58,3.16,3.16,0,0,0,3-1.9,14,14,0,0,0,1-6,22.37,22.37,0,0,0-.21-3.19,9.25,9.25,0,0,0-.67-2.51,4.05,4.05,0,0,0-1.23-1.62,3,3,0,0,0-1.86-.57,3.15,3.15,0,0,0-3,1.92A14.17,14.17,0,0,0,624.13,146Z"/><path d="M636.6,146c0-3.25.53-5.68,1.58-7.32a5.69,5.69,0,0,1,9.34,0Q649,141,649,146c0,3.24-.52,5.67-1.58,7.31a5.15,5.15,0,0,1-4.63,2.46,5,5,0,0,1-4.69-2.57A14.36,14.36,0,0,1,636.6,146Zm2.24,0a20.69,20.69,0,0,0,.23,3.19,8.94,8.94,0,0,0,.72,2.49,4.38,4.38,0,0,0,1.22,1.62,2.79,2.79,0,0,0,1.77.58,3.16,3.16,0,0,0,3-1.9,14,14,0,0,0,1-6,24,24,0,0,0-.2-3.19,9.24,9.24,0,0,0-.68-2.51,4,4,0,0,0-1.22-1.62,3,3,0,0,0-1.87-.57,3.14,3.14,0,0,0-3,1.92A14,14,0,0,0,638.84,146Z"/><path d="M659.66,136.5c.34-.05.72-.09,1.15-.12l1.32,0,1.35,0h1.23a10,10,0,0,1,3.93.7,7.34,7.34,0,0,1,2.74,2,8.13,8.13,0,0,1,1.6,3,13.44,13.44,0,0,1,.53,3.86,13.64,13.64,0,0,1-.5,3.69,8.89,8.89,0,0,1-1.58,3.13,7.81,7.81,0,0,1-2.81,2.19,9.76,9.76,0,0,1-4.18.82l-1.12,0c-.46,0-.93,0-1.42,0l-1.35-.07a5,5,0,0,1-.89-.08Zm5.1,1.79H664l-.82,0-.74.06-.53,0v15.12a3.68,3.68,0,0,0,.51,0l.79,0,.78,0h.51a7,7,0,0,0,3.17-.65,5.49,5.49,0,0,0,2.06-1.74,7.2,7.2,0,0,0,1.09-2.51,12.9,12.9,0,0,0,.32-2.93,12.74,12.74,0,0,0-.29-2.66,7,7,0,0,0-1-2.42,5.57,5.57,0,0,0-2-1.76A6.25,6.25,0,0,0,664.76,138.29Z"/><path d="M680.83,146.66h-1.27v8.75h-2.24V136.5h2.24v8.81l1.21-.38,6.35-8.43h2.59l-6.32,8.13-1.13.89,1.37,1.08,6.92,8.81h-2.84Z"/><path d="M697.3,146.66H696v8.75h-2.24V136.5H696v8.81l1.21-.38,6.35-8.43h2.59l-6.32,8.13-1.13.89,1.37,1.08,6.92,8.81h-2.84Z"/><path d="M709.39,136.18A13.93,13.93,0,0,1,711.5,139a18.25,18.25,0,0,1,1.39,3.19,19.87,19.87,0,0,1,.77,3.29,22.18,22.18,0,0,1,.24,3.17,21.64,21.64,0,0,1-.24,3.13,20.12,20.12,0,0,1-.79,3.31,18.91,18.91,0,0,1-1.41,3.25,15.13,15.13,0,0,1-2.15,3l-1.3-.95a15.94,15.94,0,0,0,1.81-2.86,17,17,0,0,0,1.15-3,19.15,19.15,0,0,0,.59-3,23.74,23.74,0,0,0,.18-2.86,19.2,19.2,0,0,0-.22-2.81,21.66,21.66,0,0,0-.66-3.05,19.35,19.35,0,0,0-1.14-3,12.28,12.28,0,0,0-1.71-2.65Z"/></g><g class="cls-3"><path d="M477.41,170.69a13.35,13.35,0,0,1,2.21-.32c.8-.05,1.58-.08,2.35-.08a13.79,13.79,0,0,1,2.53.24,6.84,6.84,0,0,1,2.33.89,5,5,0,0,1,1.72,1.79,5.63,5.63,0,0,1,.66,2.88,6.28,6.28,0,0,1-.62,2.92,5.44,5.44,0,0,1-1.65,1.93,6.64,6.64,0,0,1-2.35,1.07,11.7,11.7,0,0,1-2.72.32h-1.1l-.66,0-.46-.06v7.19h-2.24Zm4.62,1.54q-.7,0-1.35,0a4.25,4.25,0,0,0-1,.14v7.83a1.82,1.82,0,0,0,.43.06l.62,0h1.06a9.27,9.27,0,0,0,1.82-.17,4.67,4.67,0,0,0,1.63-.64,3.28,3.28,0,0,0,1.18-1.29,4.5,4.5,0,0,0,.44-2.14,3.68,3.68,0,0,0-.42-1.84,3.16,3.16,0,0,0-1.1-1.19,4.74,4.74,0,0,0-1.55-.64A8.56,8.56,0,0,0,482,172.23Z"/><path d="M491.13,176.9a7.63,7.63,0,0,1,2.39-.91,13.08,13.08,0,0,1,2.84-.3,5.68,5.68,0,0,1,2.26.38,3.07,3.07,0,0,1,1.29,1,3.38,3.38,0,0,1,.6,1.34,7.16,7.16,0,0,1,.15,1.46c0,1.08,0,2.13-.08,3.16s-.08,2-.08,2.91a18.83,18.83,0,0,0,.08,1.89,8.84,8.84,0,0,0,.29,1.65h-1.59l-.57-1.89h-.13a4.51,4.51,0,0,1-.61.74,3.79,3.79,0,0,1-.88.65,5.1,5.1,0,0,1-1.18.47,5.6,5.6,0,0,1-1.54.19,4.65,4.65,0,0,1-1.61-.27,3.59,3.59,0,0,1-1.28-.77,3.45,3.45,0,0,1-.85-1.2,3.86,3.86,0,0,1-.31-1.59,3.81,3.81,0,0,1,.48-2,3.58,3.58,0,0,1,1.37-1.27,6.65,6.65,0,0,1,2.1-.67,16.3,16.3,0,0,1,2.72-.2h.74a4.68,4.68,0,0,1,.74.05,13.19,13.19,0,0,0,.08-1.46,2.94,2.94,0,0,0-.59-2.08,3.08,3.08,0,0,0-2.16-.59,7,7,0,0,0-1,.07c-.35,0-.71.11-1.08.19a10,10,0,0,0-1.05.31,5.16,5.16,0,0,0-.88.4ZM495,187.73a4.35,4.35,0,0,0,1.35-.2,4.3,4.3,0,0,0,1-.51,3.59,3.59,0,0,0,.71-.69,3.09,3.09,0,0,0,.42-.73v-2.24l-.77,0-.77,0a12.41,12.41,0,0,0-1.63.1,5.2,5.2,0,0,0-1.41.35,2.43,2.43,0,0,0-1,.7,1.73,1.73,0,0,0-.36,1.12,2,2,0,0,0,.67,1.55A2.47,2.47,0,0,0,495,187.73Z"/><path d="M508.14,183.33h-1.25v6.08h-2.16V170.5h2.16V182l1.11-.38,4.19-5.72h2.51l-4.13,5.42-1.11.89,1.35,1.08,4.51,6.11h-2.67Z"/><path d="M521.07,183.33h-1.24v6.08h-2.16V170.5h2.16V182l1.1-.38,4.19-5.72h2.51l-4.13,5.42-1.11.89,1.35,1.08,4.51,6.11h-2.67Z"/><path d="M540.13,188.33a6.09,6.09,0,0,1-2,1,8.89,8.89,0,0,1-2.6.38,6.68,6.68,0,0,1-2.68-.5A4.8,4.8,0,0,1,531,187.8a6,6,0,0,1-1.08-2.23,11.27,11.27,0,0,1-.35-2.91,7.91,7.91,0,0,1,1.54-5.27,5.43,5.43,0,0,1,4.4-1.81,8.93,8.93,0,0,1,1.84.2,4.07,4.07,0,0,1,1.64.77,4.11,4.11,0,0,1,1.19,1.61,6.8,6.8,0,0,1,.46,2.74,13.12,13.12,0,0,1-.16,2h-8.67A8.39,8.39,0,0,0,532,185a4.24,4.24,0,0,0,.76,1.55,3.25,3.25,0,0,0,1.34,1,5.21,5.21,0,0,0,2,.34,5.6,5.6,0,0,0,1.83-.32,3.91,3.91,0,0,0,1.38-.76Zm-4.64-10.86a3.7,3.7,0,0,0-2.55.84,4.16,4.16,0,0,0-1.15,2.86h6.69a4.17,4.17,0,0,0-.78-2.88A2.93,2.93,0,0,0,535.49,177.47Z"/><path d="M559.11,189.41v-7.65a16.83,16.83,0,0,0-.09-1.87,4.26,4.26,0,0,0-.37-1.34,1.78,1.78,0,0,0-.77-.81,2.74,2.74,0,0,0-1.31-.27,2.92,2.92,0,0,0-2.06.76,4,4,0,0,0-1.15,1.89v9.29H551.2v-13.5h1.51l.41,1.64h.11a6.35,6.35,0,0,1,1.68-1.42,5.06,5.06,0,0,1,2.5-.55,4.08,4.08,0,0,1,2.12.5,3.2,3.2,0,0,1,1.28,1.74,4.47,4.47,0,0,1,1.72-1.65,5.15,5.15,0,0,1,2.47-.59,6.21,6.21,0,0,1,1.91.26,2.65,2.65,0,0,1,1.3.9,4.14,4.14,0,0,1,.74,1.76,13.68,13.68,0,0,1,.23,2.81v8.1H567v-8.13a13.78,13.78,0,0,0-.09-1.69,3.21,3.21,0,0,0-.38-1.19,1.76,1.76,0,0,0-.78-.7,3.24,3.24,0,0,0-1.31-.23,2.84,2.84,0,0,0-2.11.76,4.4,4.4,0,0,0-1.08,2.16v9Z"/><path d="M583,188.33a6.09,6.09,0,0,1-2,1,8.89,8.89,0,0,1-2.6.38,6.68,6.68,0,0,1-2.68-.5,4.8,4.8,0,0,1-1.86-1.43,6,6,0,0,1-1.08-2.23,11.27,11.27,0,0,1-.35-2.91,7.91,7.91,0,0,1,1.54-5.27,5.43,5.43,0,0,1,4.4-1.81,8.93,8.93,0,0,1,1.84.2,4.07,4.07,0,0,1,1.64.77,4.11,4.11,0,0,1,1.19,1.61,6.8,6.8,0,0,1,.46,2.74,14.58,14.58,0,0,1-.16,2h-8.67a8.39,8.39,0,0,0,.24,2.11,4.24,4.24,0,0,0,.76,1.55,3.28,3.28,0,0,0,1.33,1,5.23,5.23,0,0,0,2,.34,5.6,5.6,0,0,0,1.83-.32,4,4,0,0,0,1.38-.76Zm-4.64-10.86a3.74,3.74,0,0,0-2.56.84,4.2,4.2,0,0,0-1.14,2.86h6.69a4.17,4.17,0,0,0-.78-2.88A2.93,2.93,0,0,0,578.34,177.47Z"/><path d="M597.21,184.76c0,.92,0,1.75,0,2.5a11.49,11.49,0,0,0,.24,2.2H596l-.54-1.92h-.11a4.42,4.42,0,0,1-1.56,1.57,4.62,4.62,0,0,1-2.41.62,4.76,4.76,0,0,1-4-1.7q-1.3-1.71-1.31-5.32a7.56,7.56,0,0,1,1.64-5.25,5.77,5.77,0,0,1,4.49-1.8,9.14,9.14,0,0,1,1.58.11,8.06,8.06,0,0,1,1.26.35V170.5h2.16Zm-5.46,3.08a3.18,3.18,0,0,0,2.19-.72,3.8,3.8,0,0,0,1.11-2.17v-6.7a3.1,3.1,0,0,0-1.11-.54,7.16,7.16,0,0,0-1.65-.16,3.62,3.62,0,0,0-2.91,1.23,6,6,0,0,0-1,3.93,11,11,0,0,0,.17,2,4.91,4.91,0,0,0,.58,1.62,3,3,0,0,0,1.07,1.07A3.08,3.08,0,0,0,591.75,187.84Z"/><path d="M607.82,182.66a8,8,0,0,1,1.53-5.26,5.39,5.39,0,0,1,4.38-1.82,6.43,6.43,0,0,1,2.63.5,4.69,4.69,0,0,1,1.85,1.43,6.07,6.07,0,0,1,1.08,2.24,11,11,0,0,1,.36,2.91,8,8,0,0,1-1.53,5.25,5.42,5.42,0,0,1-4.39,1.82,6.46,6.46,0,0,1-2.63-.5,4.76,4.76,0,0,1-1.85-1.43,6.07,6.07,0,0,1-1.08-2.24A11.41,11.41,0,0,1,607.82,182.66Zm2.24,0a9.75,9.75,0,0,0,.2,2,5.15,5.15,0,0,0,.64,1.64,3.42,3.42,0,0,0,1.13,1.14,3.18,3.18,0,0,0,1.7.43q3.67,0,3.67-5.18a9.17,9.17,0,0,0-.2-2,5.07,5.07,0,0,0-.63-1.65,3.3,3.3,0,0,0-1.14-1.12,3.22,3.22,0,0,0-1.7-.42Q610.05,177.44,610.06,182.66Z"/><path d="M631,189.41v-7.65a14.54,14.54,0,0,0-.1-1.87,4,4,0,0,0-.36-1.34,1.83,1.83,0,0,0-.77-.81,2.74,2.74,0,0,0-1.31-.27,2.88,2.88,0,0,0-2.06.76,3.91,3.91,0,0,0-1.15,1.89v9.29h-2.16v-13.5h1.51l.4,1.64h.11a6.55,6.55,0,0,1,1.69-1.42,5.06,5.06,0,0,1,2.5-.55,4.08,4.08,0,0,1,2.12.5,3.24,3.24,0,0,1,1.28,1.74,4.38,4.38,0,0,1,1.71-1.65,5.18,5.18,0,0,1,2.47-.59,6.23,6.23,0,0,1,1.92.26,2.69,2.69,0,0,1,1.3.9,4.14,4.14,0,0,1,.74,1.76,14.43,14.43,0,0,1,.23,2.81v8.1h-2.16v-8.13a13.78,13.78,0,0,0-.09-1.69,3.21,3.21,0,0,0-.38-1.19,1.74,1.74,0,0,0-.79-.7,3.21,3.21,0,0,0-1.31-.23,2.8,2.8,0,0,0-2.1.76,4.24,4.24,0,0,0-1.08,2.16v9Z"/><path d="M655.34,184.76c0,.92,0,1.75,0,2.5a11.49,11.49,0,0,0,.24,2.2h-1.46l-.54-1.92h-.11a4.42,4.42,0,0,1-1.56,1.57,4.62,4.62,0,0,1-2.41.62,4.76,4.76,0,0,1-4-1.7q-1.31-1.71-1.3-5.32a7.56,7.56,0,0,1,1.63-5.25,5.77,5.77,0,0,1,4.49-1.8,9.14,9.14,0,0,1,1.58.11,8.06,8.06,0,0,1,1.26.35V170.5h2.16Zm-5.45,3.08a3.17,3.17,0,0,0,2.18-.72,3.8,3.8,0,0,0,1.11-2.17v-6.7a3,3,0,0,0-1.11-.54,7.12,7.12,0,0,0-1.64-.16,3.63,3.63,0,0,0-2.92,1.23,6,6,0,0,0-1,3.93,11,11,0,0,0,.17,2,4.91,4.91,0,0,0,.58,1.62,3,3,0,0,0,1.07,1.07A3.1,3.1,0,0,0,649.89,187.84Z"/><path d="M669.35,188.33a6.09,6.09,0,0,1-2,1,8.84,8.84,0,0,1-2.6.38,6.68,6.68,0,0,1-2.68-.5,4.8,4.8,0,0,1-1.86-1.43,6.35,6.35,0,0,1-1.08-2.23,11.27,11.27,0,0,1-.35-2.91,7.91,7.91,0,0,1,1.54-5.27,5.45,5.45,0,0,1,4.4-1.81,8.93,8.93,0,0,1,1.84.2,4.07,4.07,0,0,1,1.64.77,4,4,0,0,1,1.19,1.61,6.8,6.8,0,0,1,.46,2.74,13.12,13.12,0,0,1-.16,2H661a7.93,7.93,0,0,0,.25,2.11,4.08,4.08,0,0,0,.75,1.55,3.25,3.25,0,0,0,1.34,1,5.21,5.21,0,0,0,2,.34,5.6,5.6,0,0,0,1.83-.32,3.82,3.82,0,0,0,1.38-.76Zm-4.64-10.86a3.73,3.73,0,0,0-2.55.84,4.16,4.16,0,0,0-1.15,2.86h6.69a4.17,4.17,0,0,0-.78-2.88A2.93,2.93,0,0,0,664.71,177.47Z"/><path d="M675.62,186.08a2.16,2.16,0,0,0,.32,1.35,1.12,1.12,0,0,0,.92.41,6.9,6.9,0,0,0,.75-.05,4.41,4.41,0,0,0,.92-.25l.25,1.7a4.31,4.31,0,0,1-1.21.35,7.92,7.92,0,0,1-1.33.14,2.91,2.91,0,0,1-2-.69,3,3,0,0,1-.78-2.33V170.5h2.16Z"/><path d="M681.1,171.8a1.52,1.52,0,0,1,.42-1.07,1.39,1.39,0,0,1,1.06-.44,1.57,1.57,0,0,1,1.11.44,1.48,1.48,0,0,1,.46,1.07,1.33,1.33,0,0,1-.46,1,1.63,1.63,0,0,1-1.11.4,1.44,1.44,0,0,1-1.06-.4A1.36,1.36,0,0,1,681.1,171.8Zm.46,4.11h2.16v13.5h-2.16Z"/><path d="M697,189.41v-7.7a6.49,6.49,0,0,0-.61-3.17,2.34,2.34,0,0,0-2.23-1.07,3.6,3.6,0,0,0-2.36.77,4.1,4.1,0,0,0-1.31,1.93v9.24h-2.16v-13.5h1.51l.41,1.64h.11a4.94,4.94,0,0,1,1.74-1.42,5.83,5.83,0,0,1,2.6-.55,6.72,6.72,0,0,1,1.95.26,2.9,2.9,0,0,1,1.39.9,4.29,4.29,0,0,1,.84,1.74,11.31,11.31,0,0,1,.28,2.77v8.16Z"/><path d="M713.44,190a4.92,4.92,0,0,1-1.39,3.86,6.06,6.06,0,0,1-4.12,1.24,13.84,13.84,0,0,1-2.6-.2,7.84,7.84,0,0,1-1.69-.53l.57-1.84a11.73,11.73,0,0,0,1.38.46,7.09,7.09,0,0,0,2,.22,7.25,7.25,0,0,0,1.85-.2,2.38,2.38,0,0,0,1.14-.68,2.56,2.56,0,0,0,.6-1.21,8.35,8.35,0,0,0,.16-1.77v-1.3h-.11a3.63,3.63,0,0,1-1.38,1.2,4.83,4.83,0,0,1-2.18.42,4.67,4.67,0,0,1-4-1.7c-.86-1.13-1.28-2.9-1.28-5.29a7.51,7.51,0,0,1,1.64-5.25,6.27,6.27,0,0,1,4.86-1.8,11.83,11.83,0,0,1,2.64.25,15.32,15.32,0,0,1,2,.56ZM708,187.81a3.18,3.18,0,0,0,2.16-.69,3.82,3.82,0,0,0,1.1-2.14v-6.91a6.3,6.3,0,0,0-2.75-.52,3.6,3.6,0,0,0-2.89,1.24,6,6,0,0,0-1,3.89,10.3,10.3,0,0,0,.19,2.08,4.92,4.92,0,0,0,.59,1.62,2.93,2.93,0,0,0,1,1.05A3.06,3.06,0,0,0,708,187.81Z"/></g></g></g><g id="Group_156" data-name="Group 156"><g id="GLS_Erhverv_Levering_45_00_DKK_Kun_til_erhvervs_adresse" data-name="GLS Erhverv Levering 45 00 DKK Kun til erhvervs adresse" class="cls-3"><g class="cls-3"><path d="M337,229h6.35v8.32a5.93,5.93,0,0,1-1,.59,8.67,8.67,0,0,1-1.3.46,9.52,9.52,0,0,1-1.43.28,10.4,10.4,0,0,1-1.45.1,9.15,9.15,0,0,1-3.32-.58,7,7,0,0,1-2.62-1.78,8.42,8.42,0,0,1-1.72-3.05,13.61,13.61,0,0,1-.62-4.36,12,12,0,0,1,.75-4.49,8.61,8.61,0,0,1,2-3,7.46,7.46,0,0,1,2.73-1.72,9,9,0,0,1,3-.54,16.5,16.5,0,0,1,2.68.18,8,8,0,0,1,1.78.47l-.57,2a8.49,8.49,0,0,0-3.7-.65,6.83,6.83,0,0,0-2.25.39,5.11,5.11,0,0,0-2,1.31,6.88,6.88,0,0,0-1.46,2.4,10.35,10.35,0,0,0-.57,3.68,11.39,11.39,0,0,0,.46,3.45,6.71,6.71,0,0,0,1.28,2.42,5.12,5.12,0,0,0,2,1.43,6.7,6.7,0,0,0,2.53.47,5.93,5.93,0,0,0,2.93-.67v-5.27l-4.4-.54Z"/><path d="M358.34,238.41H347.16V219.5h2.24v16.91h8.94Z"/><path d="M369.65,233.6a2.58,2.58,0,0,0-.67-1.85,6.62,6.62,0,0,0-1.69-1.27,22.57,22.57,0,0,0-2.2-1,11.84,11.84,0,0,1-2.2-1.17,6.36,6.36,0,0,1-1.69-1.7,4.58,4.58,0,0,1-.67-2.58,4.33,4.33,0,0,1,1.54-3.51,6.55,6.55,0,0,1,4.37-1.3,17.21,17.21,0,0,1,3,.24,8.32,8.32,0,0,1,2.1.62l-.67,2a8.9,8.9,0,0,0-1.82-.58,11.91,11.91,0,0,0-2.72-.28,3.89,3.89,0,0,0-2.67.8,2.52,2.52,0,0,0-.22,3.63,7,7,0,0,0,1.69,1.25c.68.37,1.41.74,2.2,1.1a13.8,13.8,0,0,1,2.2,1.25,6.58,6.58,0,0,1,1.69,1.72,4.31,4.31,0,0,1,.67,2.48,5.32,5.32,0,0,1-.43,2.19,4.59,4.59,0,0,1-1.27,1.67,5.74,5.74,0,0,1-2,1.08,8.94,8.94,0,0,1-2.7.38,14.85,14.85,0,0,1-3.35-.31,9.3,9.3,0,0,1-2.05-.69l.75-2a8.8,8.8,0,0,0,1.84.67,10.42,10.42,0,0,0,2.73.33,8.08,8.08,0,0,0,1.67-.17,3.93,3.93,0,0,0,1.35-.57,3,3,0,0,0,.91-1A2.81,2.81,0,0,0,369.65,233.6Z"/><path d="M382.67,219.5H393v2h-8v6.19h7.37v2h-7.37v6.73h8.18v2H382.67Z"/><path d="M403.3,227a4.9,4.9,0,0,0-1.54-.27,2.59,2.59,0,0,0-1.84.64,2.77,2.77,0,0,0-.84,1.61v9.45h-2.16v-13.5h1.52l.4,1.64H399a4.21,4.21,0,0,1,1.23-1.42,3.1,3.1,0,0,1,1.82-.49,6.55,6.55,0,0,1,1.75.27Z"/><path d="M414.77,238.41v-7.7a12.57,12.57,0,0,0-.12-1.85,3.42,3.42,0,0,0-.45-1.32,2.1,2.1,0,0,0-.87-.8,3.32,3.32,0,0,0-1.45-.27,3.59,3.59,0,0,0-2.29.82,3.71,3.71,0,0,0-1.33,2.12v9H406.1V219.5h2.16v6.92h.11a5.25,5.25,0,0,1,1.69-1.34,5.41,5.41,0,0,1,2.44-.5,6.77,6.77,0,0,1,2,.26,2.9,2.9,0,0,1,1.39.9,4,4,0,0,1,.81,1.74,12.52,12.52,0,0,1,.26,2.77v8.16Z"/><path d="M424.76,232.82l.76,2.56h0l.68-2.62,3-7.85h2.32l-5.75,13.79h-.91L419,224.91h2.48Z"/><path d="M443.44,237.33a6.14,6.14,0,0,1-2,1,8.9,8.9,0,0,1-2.61.38,6.59,6.59,0,0,1-2.67-.5,4.76,4.76,0,0,1-1.87-1.43,6.35,6.35,0,0,1-1.08-2.23,11.27,11.27,0,0,1-.35-2.91,8,8,0,0,1,1.54-5.27,5.45,5.45,0,0,1,4.4-1.81,8.86,8.86,0,0,1,1.84.2,4.17,4.17,0,0,1,1.65.77,4.09,4.09,0,0,1,1.18,1.61,6.8,6.8,0,0,1,.46,2.74,13.12,13.12,0,0,1-.16,2h-8.67a7.93,7.93,0,0,0,.25,2.11,4.08,4.08,0,0,0,.75,1.55,3.25,3.25,0,0,0,1.34,1,5.21,5.21,0,0,0,2,.34,5.66,5.66,0,0,0,1.84-.32,3.86,3.86,0,0,0,1.37-.76Zm-4.64-10.86a3.73,3.73,0,0,0-2.55.84,4.2,4.2,0,0,0-1.15,2.86h6.7a4.12,4.12,0,0,0-.79-2.88A2.93,2.93,0,0,0,438.8,226.47Z"/><path d="M453.68,227a4.9,4.9,0,0,0-1.54-.27,2.59,2.59,0,0,0-1.84.64,2.77,2.77,0,0,0-.84,1.61v9.45h-2.15v-13.5h1.51l.4,1.64h.11a4.21,4.21,0,0,1,1.23-1.42,3.1,3.1,0,0,1,1.82-.49,6.68,6.68,0,0,1,1.76.27Z"/><path d="M460.37,232.82l.76,2.56h0l.67-2.62,3-7.85h2.32l-5.75,13.79h-.92l-5.86-13.79h2.48Z"/><path d="M487.13,238.41H476V219.5h2.24v16.91h8.94Z"/><path d="M498,237.33a6.09,6.09,0,0,1-2,1,8.9,8.9,0,0,1-2.61.38,6.66,6.66,0,0,1-2.67-.5,4.65,4.65,0,0,1-1.86-1.43,6,6,0,0,1-1.08-2.23,10.85,10.85,0,0,1-.35-2.91,7.91,7.91,0,0,1,1.54-5.27,5.43,5.43,0,0,1,4.4-1.81,8.77,8.77,0,0,1,1.83.2,4.17,4.17,0,0,1,1.65.77,4.11,4.11,0,0,1,1.19,1.61,7,7,0,0,1,.46,2.74,13.22,13.22,0,0,1-.17,2h-8.66a8.39,8.39,0,0,0,.24,2.11,4,4,0,0,0,.76,1.55,3.22,3.22,0,0,0,1.33,1,5.21,5.21,0,0,0,2,.34,5.61,5.61,0,0,0,1.84-.32,4,4,0,0,0,1.38-.76Zm-4.65-10.86a3.73,3.73,0,0,0-2.55.84,4.2,4.2,0,0,0-1.15,2.86h6.7a4.17,4.17,0,0,0-.78-2.88A2.94,2.94,0,0,0,493.31,226.47Z"/><path d="M505.11,232.82l.76,2.56h0l.67-2.62,3-7.85h2.33l-5.75,13.79h-.92l-5.86-13.79h2.48Z"/><path d="M523.8,237.33a6.09,6.09,0,0,1-2,1,8.9,8.9,0,0,1-2.61.38,6.66,6.66,0,0,1-2.67-.5,4.65,4.65,0,0,1-1.86-1.43,6,6,0,0,1-1.08-2.23,10.85,10.85,0,0,1-.35-2.91,8,8,0,0,1,1.53-5.27,5.47,5.47,0,0,1,4.41-1.81,8.77,8.77,0,0,1,1.83.2,3.88,3.88,0,0,1,2.84,2.38,7,7,0,0,1,.46,2.74,13.22,13.22,0,0,1-.17,2h-8.66a8.39,8.39,0,0,0,.24,2.11,4,4,0,0,0,.76,1.55,3.22,3.22,0,0,0,1.33,1,5.21,5.21,0,0,0,2,.34,5.61,5.61,0,0,0,1.84-.32,4,4,0,0,0,1.38-.76Zm-4.65-10.86a3.73,3.73,0,0,0-2.55.84,4.2,4.2,0,0,0-1.15,2.86h6.7a4.17,4.17,0,0,0-.78-2.88A3,3,0,0,0,519.15,226.47Z"/><path d="M534,227a4.86,4.86,0,0,0-1.54-.27,2.61,2.61,0,0,0-1.84.64,2.76,2.76,0,0,0-.83,1.61v9.45h-2.16v-13.5h1.51l.4,1.64h.11a4.21,4.21,0,0,1,1.23-1.42,3.13,3.13,0,0,1,1.82-.49,6.62,6.62,0,0,1,1.76.27Z"/><path d="M536.84,220.8a1.52,1.52,0,0,1,.42-1.07,1.39,1.39,0,0,1,1.06-.44,1.57,1.57,0,0,1,1.11.44,1.44,1.44,0,0,1,.46,1.07,1.3,1.3,0,0,1-.46,1,1.63,1.63,0,0,1-1.11.4,1.44,1.44,0,0,1-1.06-.4A1.36,1.36,0,0,1,536.84,220.8Zm.46,4.11h2.16v13.5H537.3Z"/><path d="M552.74,238.41v-7.7a6.49,6.49,0,0,0-.61-3.17,2.33,2.33,0,0,0-2.23-1.07,3.6,3.6,0,0,0-2.36.77,4.17,4.17,0,0,0-1.31,1.93v9.24h-2.16v-13.5h1.51l.41,1.64h.11a4.94,4.94,0,0,1,1.74-1.42,5.83,5.83,0,0,1,2.6-.55,6.72,6.72,0,0,1,1.95.26,2.9,2.9,0,0,1,1.39.9,4.29,4.29,0,0,1,.84,1.74,11.31,11.31,0,0,1,.28,2.77v8.16Z"/><path d="M569.18,239a4.92,4.92,0,0,1-1.39,3.86,6,6,0,0,1-4.11,1.24,14,14,0,0,1-2.61-.2,7.84,7.84,0,0,1-1.69-.53l.57-1.84a11.73,11.73,0,0,0,1.38.46,7.09,7.09,0,0,0,2,.22,7.25,7.25,0,0,0,1.85-.2,2.38,2.38,0,0,0,1.14-.68,2.56,2.56,0,0,0,.6-1.21,8.35,8.35,0,0,0,.16-1.77v-1.3h-.11a3.67,3.67,0,0,1-1.37,1.2,4.91,4.91,0,0,1-2.19.42,4.67,4.67,0,0,1-4-1.7c-.86-1.13-1.28-2.9-1.28-5.29a7.56,7.56,0,0,1,1.64-5.25,6.27,6.27,0,0,1,4.86-1.8,11.83,11.83,0,0,1,2.64.25,15.32,15.32,0,0,1,1.95.56Zm-5.42-2.22a3.18,3.18,0,0,0,2.16-.69A3.82,3.82,0,0,0,567,234v-6.91a6.27,6.27,0,0,0-2.75-.52,3.6,3.6,0,0,0-2.89,1.24,6,6,0,0,0-1,3.89,10.3,10.3,0,0,0,.19,2.08,4.92,4.92,0,0,0,.59,1.62,2.93,2.93,0,0,0,1,1.05A3.08,3.08,0,0,0,563.76,236.81Z"/><path d="M584.6,244.35a14.21,14.21,0,0,1-2.11-2.85,18.25,18.25,0,0,1-1.39-3.19,21.47,21.47,0,0,1-.77-3.29,22.31,22.31,0,0,1-.24-3.18,21.75,21.75,0,0,1,.24-3.13,21.18,21.18,0,0,1,.79-3.31,19.25,19.25,0,0,1,1.41-3.25,15.36,15.36,0,0,1,2.15-3l1.3.95a15.73,15.73,0,0,0-1.8,2.84,18.57,18.57,0,0,0-1.15,3,19.09,19.09,0,0,0-.6,3,24.16,24.16,0,0,0-.18,2.87,22.51,22.51,0,0,0,.2,2.83,21,21,0,0,0,.65,3.05,18.74,18.74,0,0,0,1.16,3,13.25,13.25,0,0,0,1.72,2.65Z"/><path d="M600.18,232.6H597v5.81h-2.1V232.6h-8.32v-.89l9-12.5H597v11.5h3.19Zm-5.29-7.78.27-2.21h-.08l-1,1.84-3.81,5.15L589,230.93l1.89-.22h4Z"/><path d="M606.5,236.84a4.44,4.44,0,0,0,3.07-1.08,4,4,0,0,0,1.22-3.13,3.57,3.57,0,0,0-1.2-2.95,5.18,5.18,0,0,0-3.31-1l-2.27.14V219.5h8.43v2H606v5.38l1.16-.06a6,6,0,0,1,4.21,1.49,5.46,5.46,0,0,1,1.54,4.18,6.69,6.69,0,0,1-.51,2.69,5.85,5.85,0,0,1-1.39,2,6,6,0,0,1-2.07,1.18,7.82,7.82,0,0,1-2.54.41,13.09,13.09,0,0,1-2.05-.14,8.39,8.39,0,0,1-1.57-.4l.57-1.84a6.29,6.29,0,0,0,1.34.37A10.83,10.83,0,0,0,606.5,236.84Z"/><path d="M616.78,237.24a1.37,1.37,0,0,1,.44-1.05,1.52,1.52,0,0,1,1.1-.4,1.74,1.74,0,0,1,1.37.59,2.54,2.54,0,0,1,.52,1.73,4.89,4.89,0,0,1-.27,1.7,4.32,4.32,0,0,1-.7,1.25,4.25,4.25,0,0,1-.94.87,4.63,4.63,0,0,1-1,.5l-.68-1.06A2.8,2.8,0,0,0,618,240.2a3.17,3.17,0,0,0,.47-1.61,1.28,1.28,0,0,1-.46.08,1.22,1.22,0,0,1-.9-.36A1.42,1.42,0,0,1,616.78,237.24Z"/><path d="M621.89,229c0-3.25.52-5.68,1.58-7.32a5.69,5.69,0,0,1,9.34,0q1.47,2.42,1.47,7.36c0,3.24-.53,5.67-1.58,7.31a5.16,5.16,0,0,1-4.63,2.46,5,5,0,0,1-4.7-2.57A14.48,14.48,0,0,1,621.89,229Zm2.24,0a19.51,19.51,0,0,0,.23,3.19,9.31,9.31,0,0,0,.71,2.49,4.51,4.51,0,0,0,1.23,1.62,2.79,2.79,0,0,0,1.77.58,3.16,3.16,0,0,0,3-1.9,14,14,0,0,0,1-6,24,24,0,0,0-.2-3.19,9.24,9.24,0,0,0-.68-2.51,4,4,0,0,0-1.23-1.62,3,3,0,0,0-1.86-.57,3.13,3.13,0,0,0-3,1.92A14,14,0,0,0,624.13,229Z"/><path d="M636.6,229c0-3.25.53-5.68,1.58-7.32a5.69,5.69,0,0,1,9.34,0Q649,224,649,229c0,3.24-.52,5.67-1.58,7.31a5.15,5.15,0,0,1-4.63,2.46,5,5,0,0,1-4.69-2.57A14.47,14.47,0,0,1,636.6,229Zm2.24,0a20.69,20.69,0,0,0,.23,3.19,8.94,8.94,0,0,0,.72,2.49,4.3,4.3,0,0,0,1.23,1.62,2.74,2.74,0,0,0,1.76.58,3.15,3.15,0,0,0,3-1.9,14,14,0,0,0,1-6,22.45,22.45,0,0,0-.2-3.19,9.25,9.25,0,0,0-.67-2.51,4.15,4.15,0,0,0-1.23-1.62,3,3,0,0,0-1.87-.57,3.14,3.14,0,0,0-3,1.92A14,14,0,0,0,638.84,229Z"/><path d="M659.66,219.5c.34-.05.72-.09,1.15-.12l1.32,0,1.35,0h1.23a10,10,0,0,1,3.93.7,7.34,7.34,0,0,1,2.74,2,8.13,8.13,0,0,1,1.6,3,13.44,13.44,0,0,1,.53,3.86,13.64,13.64,0,0,1-.5,3.69,8.89,8.89,0,0,1-1.58,3.13,7.73,7.73,0,0,1-2.81,2.19,9.76,9.76,0,0,1-4.18.82l-1.12,0c-.46,0-.93,0-1.42,0l-1.35-.07a5.09,5.09,0,0,1-.89-.08Zm5.1,1.79H664l-.82,0-.74.06-.53,0v15.12a3.68,3.68,0,0,0,.51,0l.79,0,.78,0h.51a7,7,0,0,0,3.17-.65,5.49,5.49,0,0,0,2.06-1.74,7.2,7.2,0,0,0,1.09-2.51,12.9,12.9,0,0,0,.32-2.93,12.74,12.74,0,0,0-.29-2.66,7,7,0,0,0-1-2.42,5.57,5.57,0,0,0-2-1.76A6.25,6.25,0,0,0,664.76,221.29Z"/><path d="M680.83,229.66h-1.27v8.75h-2.24V219.5h2.24v8.81l1.21-.38,6.35-8.43h2.59l-6.32,8.13-1.13.89,1.37,1.08,6.92,8.81h-2.84Z"/><path d="M697.3,229.66H696v8.75h-2.24V219.5H696v8.81l1.21-.38,6.35-8.43h2.59l-6.32,8.13-1.13.89,1.37,1.08,6.92,8.81h-2.84Z"/><path d="M709.39,219.18A13.93,13.93,0,0,1,711.5,222a18.25,18.25,0,0,1,1.39,3.19,19.87,19.87,0,0,1,.77,3.29,22.18,22.18,0,0,1,.24,3.17,21.64,21.64,0,0,1-.24,3.13,20.07,20.07,0,0,1-.78,3.31,19,19,0,0,1-1.42,3.25,15.13,15.13,0,0,1-2.15,3L708,243.4a15.88,15.88,0,0,0,1.8-2.86,17,17,0,0,0,1.15-3,20.42,20.42,0,0,0,.6-3,25.91,25.91,0,0,0,.17-2.86,20.59,20.59,0,0,0-.21-2.81,23.23,23.23,0,0,0-.67-3.05,19.35,19.35,0,0,0-1.14-3,12.63,12.63,0,0,0-1.7-2.65Z"/></g><g class="cls-3"><path d="M445.47,263.66H444.2v8.75H442V253.5h2.24v8.81l1.22-.38,6.34-8.43h2.59L448,261.63l-1.13.89,1.38,1.08,6.91,8.81h-2.84Z"/><path d="M459.4,258.91v7.69a12.57,12.57,0,0,0,.12,1.85,3.8,3.8,0,0,0,.42,1.32,2,2,0,0,0,.81.8,2.76,2.76,0,0,0,1.3.27,3.45,3.45,0,0,0,1.29-.23,3.35,3.35,0,0,0,1-.63,5.13,5.13,0,0,0,.78-.94,5.55,5.55,0,0,0,.55-1.12v-9h2.16v9.66c0,.65,0,1.32.07,2a12.47,12.47,0,0,0,.23,1.83h-1.49l-.54-2.14H466a5.5,5.5,0,0,1-1.67,1.76,4.75,4.75,0,0,1-2.68.7,6.42,6.42,0,0,1-1.9-.26,2.92,2.92,0,0,1-1.38-.9,4.29,4.29,0,0,1-.84-1.74,11.76,11.76,0,0,1-.28-2.77v-8.15Z"/><path d="M480.68,272.41v-7.7a6.61,6.61,0,0,0-.61-3.17,2.35,2.35,0,0,0-2.23-1.07,3.6,3.6,0,0,0-2.36.77,4.1,4.1,0,0,0-1.31,1.93v9.24H472v-13.5h1.51l.41,1.64h.1a5.07,5.07,0,0,1,1.75-1.42,5.8,5.8,0,0,1,2.6-.55,6.72,6.72,0,0,1,1.95.26,3,3,0,0,1,1.39.9,4.28,4.28,0,0,1,.83,1.74,11.25,11.25,0,0,1,.29,2.77v8.16Z"/><path d="M492.21,258.91h2.1v-2.68l2.16-.62v3.3h3.67v1.88h-3.67v7.48a4.15,4.15,0,0,0,.35,2,1.28,1.28,0,0,0,1.19.58,4.1,4.1,0,0,0,1.19-.15q.48-.15,1.08-.39l.48,1.65a8,8,0,0,1-1.59.56,7.35,7.35,0,0,1-1.86.22,2.67,2.67,0,0,1-2.32-.93,5.46,5.46,0,0,1-.68-3.12v-7.89h-2.1Z"/><path d="M503.14,254.8a1.52,1.52,0,0,1,.42-1.07,1.42,1.42,0,0,1,1.07-.44,1.53,1.53,0,0,1,1.1.44,1.44,1.44,0,0,1,.46,1.07,1.3,1.3,0,0,1-.46,1,1.59,1.59,0,0,1-1.1.4,1.46,1.46,0,0,1-1.07-.4A1.36,1.36,0,0,1,503.14,254.8Zm.46,4.11h2.16v13.5H503.6Z"/><path d="M512.78,269.08a2.23,2.23,0,0,0,.32,1.35,1.12,1.12,0,0,0,.92.41,7.07,7.07,0,0,0,.76,0,4.34,4.34,0,0,0,.91-.25l.25,1.7a4.33,4.33,0,0,1-1.2.35,8,8,0,0,1-1.34.14,2.91,2.91,0,0,1-2-.69,3,3,0,0,1-.78-2.33V253.5h2.16Z"/><path d="M535.32,271.33a6.14,6.14,0,0,1-2,1,8.9,8.9,0,0,1-2.61.38,6.59,6.59,0,0,1-2.67-.5,4.76,4.76,0,0,1-1.87-1.43,6.35,6.35,0,0,1-1.08-2.23,11.27,11.27,0,0,1-.35-2.91,8,8,0,0,1,1.54-5.27,5.45,5.45,0,0,1,4.4-1.81,8.86,8.86,0,0,1,1.84.2,4.17,4.17,0,0,1,1.65.77,4.09,4.09,0,0,1,1.18,1.61,6.8,6.8,0,0,1,.46,2.74,13.12,13.12,0,0,1-.16,2H527a7.93,7.93,0,0,0,.25,2.11,4.08,4.08,0,0,0,.75,1.55,3.25,3.25,0,0,0,1.34,1,5.21,5.21,0,0,0,2,.34,5.7,5.7,0,0,0,1.84-.32,3.86,3.86,0,0,0,1.37-.76Zm-4.64-10.86a3.73,3.73,0,0,0-2.55.84,4.2,4.2,0,0,0-1.15,2.86h6.7a4.12,4.12,0,0,0-.79-2.88A2.93,2.93,0,0,0,530.68,260.47Z"/><path d="M545.56,261a4.9,4.9,0,0,0-1.54-.27,2.59,2.59,0,0,0-1.84.64,2.77,2.77,0,0,0-.84,1.61v9.45h-2.15v-13.5h1.51l.4,1.64h.11a4.21,4.21,0,0,1,1.23-1.42,3.13,3.13,0,0,1,1.82-.49,6.68,6.68,0,0,1,1.76.27Z"/><path d="M557,272.41v-7.7a12.57,12.57,0,0,0-.12-1.85,3.6,3.6,0,0,0-.44-1.32,2.12,2.12,0,0,0-.88-.8,3.32,3.32,0,0,0-1.45-.27,3.61,3.61,0,0,0-2.29.82,3.71,3.71,0,0,0-1.33,2.12v9h-2.16V253.5h2.16v6.92h.11a5.25,5.25,0,0,1,1.69-1.34,5.41,5.41,0,0,1,2.44-.5,6.84,6.84,0,0,1,2,.26,3,3,0,0,1,1.39.9,4.27,4.27,0,0,1,.81,1.74,12.59,12.59,0,0,1,.25,2.77v8.16Z"/><path d="M567,266.82l.76,2.56h0l.68-2.62,3-7.85h2.33l-5.76,13.79h-.91l-5.86-13.79h2.48Z"/><path d="M585.71,271.33a6.09,6.09,0,0,1-2,1,8.9,8.9,0,0,1-2.61.38,6.66,6.66,0,0,1-2.67-.5,4.65,4.65,0,0,1-1.86-1.43,6,6,0,0,1-1.08-2.23,10.85,10.85,0,0,1-.35-2.91,8,8,0,0,1,1.53-5.27,5.47,5.47,0,0,1,4.41-1.81,8.77,8.77,0,0,1,1.83.2,3.88,3.88,0,0,1,2.84,2.38,7,7,0,0,1,.46,2.74,13.22,13.22,0,0,1-.17,2h-8.66a8.39,8.39,0,0,0,.24,2.11,4,4,0,0,0,.76,1.55,3.22,3.22,0,0,0,1.33,1,5.21,5.21,0,0,0,2,.34,5.61,5.61,0,0,0,1.84-.32,4,4,0,0,0,1.38-.76Zm-4.65-10.86a3.73,3.73,0,0,0-2.55.84,4.2,4.2,0,0,0-1.15,2.86h6.7a4.17,4.17,0,0,0-.78-2.88A3,3,0,0,0,581.06,260.47Z"/><path d="M595.94,261a4.86,4.86,0,0,0-1.54-.27,2.61,2.61,0,0,0-1.84.64,2.76,2.76,0,0,0-.83,1.61v9.45h-2.16v-13.5h1.51l.4,1.64h.11a4.21,4.21,0,0,1,1.23-1.42,3.13,3.13,0,0,1,1.82-.49,6.68,6.68,0,0,1,1.76.27Z"/><path d="M602.63,266.82l.76,2.56h0l.67-2.62,3-7.85h2.32l-5.75,13.79h-.92l-5.86-13.79h2.48Z"/><path d="M617.7,268.73a1.68,1.68,0,0,0-.48-1.27,4.4,4.4,0,0,0-1.21-.77c-.47-.2-1-.4-1.56-.59a7.28,7.28,0,0,1-1.57-.73,3.87,3.87,0,0,1-1.2-1.15,3.26,3.26,0,0,1-.49-1.89,3.45,3.45,0,0,1,1.11-2.84,4.69,4.69,0,0,1,3.08-.91,9.84,9.84,0,0,1,2.44.26,9,9,0,0,1,1.72.61l-.52,1.78a8,8,0,0,0-1.49-.53,7.62,7.62,0,0,0-1.88-.23,3,3,0,0,0-1.74.41,1.61,1.61,0,0,0-.56,1.4,1.33,1.33,0,0,0,.49,1.09,5.21,5.21,0,0,0,1.2.71c.48.2,1,.41,1.57.6a6.54,6.54,0,0,1,1.56.79,4.23,4.23,0,0,1,1.2,1.22,3.49,3.49,0,0,1,.49,2,4.52,4.52,0,0,1-.28,1.62,3.23,3.23,0,0,1-.88,1.3,4.41,4.41,0,0,1-1.47.85,6.18,6.18,0,0,1-2.07.31,9.94,9.94,0,0,1-2.62-.3,8.15,8.15,0,0,1-1.8-.7l.64-1.84a8,8,0,0,0,1.62.65,7,7,0,0,0,2,.3,3.58,3.58,0,0,0,1.91-.46A1.76,1.76,0,0,0,617.7,268.73Z"/><path d="M630.12,259.9a7.63,7.63,0,0,1,2.39-.91,13.24,13.24,0,0,1,2.85-.3,5.63,5.63,0,0,1,2.25.38,3.17,3.17,0,0,1,1.3,1,3.36,3.36,0,0,1,.59,1.34,7.16,7.16,0,0,1,.15,1.46c0,1.08,0,2.13-.08,3.16s-.08,2-.08,2.91c0,.67,0,1.3.08,1.89a8.07,8.07,0,0,0,.3,1.65h-1.6l-.56-1.89h-.14a4.43,4.43,0,0,1-.6.74,4.27,4.27,0,0,1-.88.65,5.18,5.18,0,0,1-1.19.47,5.55,5.55,0,0,1-1.54.19,4.69,4.69,0,0,1-1.61-.27,3.68,3.68,0,0,1-1.28-.77,3.58,3.58,0,0,1-.85-1.2,3.86,3.86,0,0,1-.31-1.59,3.72,3.72,0,0,1,.49-2,3.48,3.48,0,0,1,1.36-1.27,6.71,6.71,0,0,1,2.11-.67,16.09,16.09,0,0,1,2.71-.2h.74a4.6,4.6,0,0,1,.74,0,13.39,13.39,0,0,0,.09-1.46,2.89,2.89,0,0,0-.6-2.08,3.05,3.05,0,0,0-2.16-.59,7,7,0,0,0-1,.07c-.36.05-.72.11-1.08.19a10.93,10.93,0,0,0-1.06.31,5,5,0,0,0-.87.4ZM634,270.73a4,4,0,0,0,2.38-.71,3.39,3.39,0,0,0,.72-.69,3,3,0,0,0,.41-.73v-2.24l-.77,0-.76,0a12.56,12.56,0,0,0-1.64.1,5,5,0,0,0-1.4.35,2.36,2.36,0,0,0-1,.7,1.68,1.68,0,0,0-.37,1.12,2,2,0,0,0,.68,1.55A2.45,2.45,0,0,0,634,270.73Z"/><path d="M654.1,267.76c0,.92,0,1.75,0,2.5a12.35,12.35,0,0,0,.25,2.2h-1.46l-.54-1.92h-.11a4.37,4.37,0,0,1-1.57,1.57,4.56,4.56,0,0,1-2.4.62,4.75,4.75,0,0,1-4-1.7q-1.31-1.71-1.31-5.32a7.56,7.56,0,0,1,1.64-5.25,5.74,5.74,0,0,1,4.49-1.8,9.23,9.23,0,0,1,1.58.11,8.06,8.06,0,0,1,1.26.35V253.5h2.16Zm-5.46,3.08a3.18,3.18,0,0,0,2.19-.72,3.8,3.8,0,0,0,1.11-2.17v-6.7a3.19,3.19,0,0,0-1.11-.54,7.22,7.22,0,0,0-1.65-.16,3.62,3.62,0,0,0-2.91,1.23,5.94,5.94,0,0,0-1.06,3.93,10.94,10.94,0,0,0,.18,2.05,4.91,4.91,0,0,0,.58,1.62,3,3,0,0,0,1.07,1.07A3.08,3.08,0,0,0,648.64,270.84Z"/><path d="M664.63,261a4.9,4.9,0,0,0-1.54-.27,2.59,2.59,0,0,0-1.84.64,2.77,2.77,0,0,0-.84,1.61v9.45h-2.16v-13.5h1.52l.4,1.64h.11a4.21,4.21,0,0,1,1.23-1.42,3.1,3.1,0,0,1,1.82-.49,6.68,6.68,0,0,1,1.76.27Z"/><path d="M677.29,271.33a6.09,6.09,0,0,1-2,1,8.9,8.9,0,0,1-2.61.38,6.66,6.66,0,0,1-2.67-.5,4.72,4.72,0,0,1-1.86-1.43,6,6,0,0,1-1.08-2.23,10.85,10.85,0,0,1-.35-2.91,7.91,7.91,0,0,1,1.54-5.27,5.43,5.43,0,0,1,4.4-1.81,8.77,8.77,0,0,1,1.83.2,3.88,3.88,0,0,1,2.84,2.38,7,7,0,0,1,.46,2.74,14.58,14.58,0,0,1-.16,2h-8.67a8.39,8.39,0,0,0,.24,2.11,4.09,4.09,0,0,0,.76,1.55,3.22,3.22,0,0,0,1.33,1,5.23,5.23,0,0,0,2,.34,5.6,5.6,0,0,0,1.83-.32,4,4,0,0,0,1.38-.76Zm-4.65-10.86a3.73,3.73,0,0,0-2.55.84,4.15,4.15,0,0,0-1.14,2.86h6.69a4.17,4.17,0,0,0-.78-2.88A2.94,2.94,0,0,0,672.64,260.47Z"/><path d="M687.09,268.73a1.65,1.65,0,0,0-.49-1.27,4.2,4.2,0,0,0-1.2-.77c-.48-.2-1-.4-1.56-.59a7.28,7.28,0,0,1-1.57-.73,3.87,3.87,0,0,1-1.2-1.15,3.19,3.19,0,0,1-.49-1.89,3.45,3.45,0,0,1,1.11-2.84,4.69,4.69,0,0,1,3.08-.91,9.9,9.9,0,0,1,2.44.26,9,9,0,0,1,1.72.61l-.52,1.78a7.86,7.86,0,0,0-1.5-.53,7.48,7.48,0,0,0-1.87-.23,3,3,0,0,0-1.74.41,1.61,1.61,0,0,0-.56,1.4,1.3,1.3,0,0,0,.49,1.09,5.21,5.21,0,0,0,1.2.71c.48.2,1,.41,1.57.6a6.73,6.73,0,0,1,1.56.79,4.23,4.23,0,0,1,1.2,1.22,3.49,3.49,0,0,1,.49,2,4.75,4.75,0,0,1-.28,1.62,3.34,3.34,0,0,1-.88,1.3,4.41,4.41,0,0,1-1.47.85,6.18,6.18,0,0,1-2.07.31,9.94,9.94,0,0,1-2.62-.3,8.45,8.45,0,0,1-1.81-.7l.65-1.84a8,8,0,0,0,1.62.65,7,7,0,0,0,2,.3,3.58,3.58,0,0,0,1.91-.46A1.76,1.76,0,0,0,687.09,268.73Z"/><path d="M698.46,268.73a1.69,1.69,0,0,0-.49-1.27,4.2,4.2,0,0,0-1.2-.77c-.48-.2-1-.4-1.57-.59a7.2,7.2,0,0,1-1.56-.73,3.87,3.87,0,0,1-1.2-1.15,3.19,3.19,0,0,1-.49-1.89,3.45,3.45,0,0,1,1.11-2.84,4.66,4.66,0,0,1,3.07-.91,9.93,9.93,0,0,1,2.45.26,8.92,8.92,0,0,1,1.71.61l-.51,1.78a8.11,8.11,0,0,0-1.5-.53,7.51,7.51,0,0,0-1.88-.23,3,3,0,0,0-1.74.41,1.61,1.61,0,0,0-.55,1.4,1.3,1.3,0,0,0,.49,1.09,5.21,5.21,0,0,0,1.2.71c.47.2,1,.41,1.56.6a6.6,6.6,0,0,1,1.57.79,4.23,4.23,0,0,1,1.2,1.22,3.58,3.58,0,0,1,.49,2,4.52,4.52,0,0,1-.29,1.62,3.31,3.31,0,0,1-.87,1.3,4.36,4.36,0,0,1-1.48.85,6.08,6.08,0,0,1-2.06.31,9.89,9.89,0,0,1-2.62-.3,8.45,8.45,0,0,1-1.81-.7l.65-1.84a7.54,7.54,0,0,0,1.62.65,7,7,0,0,0,2,.3,3.59,3.59,0,0,0,1.92-.46A1.78,1.78,0,0,0,698.46,268.73Z"/><path d="M713.74,271.33a6.09,6.09,0,0,1-2,1,8.9,8.9,0,0,1-2.61.38,6.66,6.66,0,0,1-2.67-.5,4.65,4.65,0,0,1-1.86-1.43,6,6,0,0,1-1.08-2.23,10.85,10.85,0,0,1-.35-2.91,7.91,7.91,0,0,1,1.54-5.27,5.43,5.43,0,0,1,4.4-1.81,8.77,8.77,0,0,1,1.83.2,4.17,4.17,0,0,1,1.65.77,4.11,4.11,0,0,1,1.19,1.61,7,7,0,0,1,.46,2.74,13.22,13.22,0,0,1-.17,2h-8.66a8.39,8.39,0,0,0,.24,2.11,4,4,0,0,0,.76,1.55,3.22,3.22,0,0,0,1.33,1,5.23,5.23,0,0,0,2,.34,5.6,5.6,0,0,0,1.83-.32,4,4,0,0,0,1.38-.76Zm-4.65-10.86a3.73,3.73,0,0,0-2.55.84,4.2,4.2,0,0,0-1.15,2.86h6.7a4.17,4.17,0,0,0-.78-2.88A2.94,2.94,0,0,0,709.09,260.47Z"/></g></g></g><g id="Ellipse_22" data-name="Ellipse 22"><circle class="cls-1" cx="80.52" cy="91.41" r="14"/><circle class="cls-4" cx="80.52" cy="91.41" r="13.5"/></g><g id="Ellipse_23" data-name="Ellipse 23"><ellipse class="cls-1" cx="80.52" cy="149.91" rx="14" ry="14.5"/><ellipse class="cls-4" cx="80.52" cy="149.91" rx="13.5" ry="14"/></g><g id="Ellipse_24" data-name="Ellipse 24"><ellipse class="cls-1" cx="80.52" cy="208.91" rx="14" ry="14.5"/><ellipse class="cls-4" cx="80.52" cy="208.91" rx="13.5" ry="14"/></g><g id="Forsendelsesmetode" class="cls-3"><g class="cls-3"><path d="M65.9,29.81H76.57v2.07H68.23v6.69H76v2.07H68.23v8.77H65.9Z"/><path d="M79.37,42.41A8.31,8.31,0,0,1,81,37a5.62,5.62,0,0,1,4.55-1.89,6.55,6.55,0,0,1,2.73.52,4.87,4.87,0,0,1,1.92,1.48,6.24,6.24,0,0,1,1.12,2.33,11.65,11.65,0,0,1,.37,3,8.23,8.23,0,0,1-1.59,5.44,5.59,5.59,0,0,1-4.55,1.89,6.62,6.62,0,0,1-2.73-.52,4.91,4.91,0,0,1-1.91-1.48,6.27,6.27,0,0,1-1.12-2.32A11.33,11.33,0,0,1,79.37,42.41Zm2.33,0a9.67,9.67,0,0,0,.21,2,5.44,5.44,0,0,0,.65,1.71,3.48,3.48,0,0,0,1.18,1.17,3.27,3.27,0,0,0,1.76.45q3.81,0,3.81-5.37a10,10,0,0,0-.21-2.08,5.44,5.44,0,0,0-.66-1.71,3.51,3.51,0,0,0-1.17-1.16A3.41,3.41,0,0,0,85.5,37Q81.71,37,81.7,42.41Z"/><path d="M101.77,37.56a4.94,4.94,0,0,0-1.59-.28,2.67,2.67,0,0,0-1.91.66,2.88,2.88,0,0,0-.87,1.67v9.8H95.16v-14h1.57l.42,1.7h.11a4.42,4.42,0,0,1,1.28-1.47,3.25,3.25,0,0,1,1.89-.52,6.78,6.78,0,0,1,1.82.29Z"/><path d="M110.84,45.6a1.72,1.72,0,0,0-.5-1.32,4.33,4.33,0,0,0-1.25-.8c-.49-.21-1-.42-1.62-.61a7.54,7.54,0,0,1-1.62-.76,4.17,4.17,0,0,1-1.25-1.19,3.35,3.35,0,0,1-.5-2,3.6,3.6,0,0,1,1.14-3,4.9,4.9,0,0,1,3.2-.94,10.64,10.64,0,0,1,2.53.26,10.48,10.48,0,0,1,1.78.63l-.53,1.85a9.37,9.37,0,0,0-1.56-.54,7.58,7.58,0,0,0-1.94-.24,3.08,3.08,0,0,0-1.81.42,1.69,1.69,0,0,0-.57,1.46,1.36,1.36,0,0,0,.5,1.13,5.64,5.64,0,0,0,1.25.73q.73.31,1.62.63a6.47,6.47,0,0,1,1.62.81,4.45,4.45,0,0,1,1.25,1.27,3.64,3.64,0,0,1,.5,2,4.64,4.64,0,0,1-.29,1.68,3.47,3.47,0,0,1-.91,1.35,4.39,4.39,0,0,1-1.53.88,6.51,6.51,0,0,1-2.14.32,10.1,10.1,0,0,1-2.71-.31,8.21,8.21,0,0,1-1.88-.72l.67-1.91a8.12,8.12,0,0,0,1.68.67,7.17,7.17,0,0,0,2.1.31,3.86,3.86,0,0,0,2-.47A1.84,1.84,0,0,0,110.84,45.6Z"/><path d="M126.69,48.29a6.42,6.42,0,0,1-2.11,1.06,9.18,9.18,0,0,1-2.7.39,6.79,6.79,0,0,1-2.78-.52,4.9,4.9,0,0,1-1.93-1.48,6.38,6.38,0,0,1-1.12-2.31,11.69,11.69,0,0,1-.36-3A8.23,8.23,0,0,1,117.28,37a5.69,5.69,0,0,1,4.57-1.88,8.78,8.78,0,0,1,1.9.21,4,4,0,0,1,2.94,2.46,7.08,7.08,0,0,1,.48,2.84,14.25,14.25,0,0,1-.17,2.05h-9a8.43,8.43,0,0,0,.25,2.18,4.12,4.12,0,0,0,.79,1.61,3.31,3.31,0,0,0,1.38,1,5.41,5.41,0,0,0,2.09.35,5.76,5.76,0,0,0,1.9-.33,4.11,4.11,0,0,0,1.43-.79ZM121.88,37a3.86,3.86,0,0,0-2.65.87,4.34,4.34,0,0,0-1.19,3H125a4.33,4.33,0,0,0-.81-3A3,3,0,0,0,121.88,37Z"/><path d="M139.68,49.41v-8a6.75,6.75,0,0,0-.63-3.28A2.42,2.42,0,0,0,136.74,37a3.69,3.69,0,0,0-2.45.8,4.35,4.35,0,0,0-1.36,2v9.58h-2.24v-14h1.57l.42,1.7h.11a5.23,5.23,0,0,1,1.81-1.47,6,6,0,0,1,2.7-.57,7.18,7.18,0,0,1,2,.26,3.08,3.08,0,0,1,1.44.94,4.56,4.56,0,0,1,.87,1.81,12,12,0,0,1,.29,2.87v8.46Z"/><path d="M156.76,44.59c0,.95,0,1.82,0,2.59a13.37,13.37,0,0,0,.25,2.28h-1.51l-.56-2h-.11a4.47,4.47,0,0,1-1.63,1.63,4.69,4.69,0,0,1-2.49.64A5,5,0,0,1,146.58,48q-1.35-1.77-1.35-5.52A7.81,7.81,0,0,1,146.92,37a6,6,0,0,1,4.66-1.87,8.8,8.8,0,0,1,1.64.12,7.55,7.55,0,0,1,1.3.36V29.81h2.24Zm-5.65,3.19a3.31,3.31,0,0,0,2.26-.74,4,4,0,0,0,1.15-2.25V37.84a3.09,3.09,0,0,0-1.15-.56,7,7,0,0,0-1.7-.17,3.79,3.79,0,0,0-3,1.28,6.17,6.17,0,0,0-1.09,4.07,11.75,11.75,0,0,0,.18,2.13,5.05,5.05,0,0,0,.6,1.68,3.08,3.08,0,0,0,1.11,1.1A3.13,3.13,0,0,0,151.11,47.78Z"/><path d="M171.29,48.29a6.42,6.42,0,0,1-2.11,1.06,9.18,9.18,0,0,1-2.7.39,6.71,6.71,0,0,1-2.77-.52,4.94,4.94,0,0,1-1.94-1.48,6.55,6.55,0,0,1-1.12-2.31,11.69,11.69,0,0,1-.36-3,8.18,8.18,0,0,1,1.6-5.46,5.65,5.65,0,0,1,4.56-1.88,8.71,8.71,0,0,1,1.9.21,4.21,4.21,0,0,1,1.71.8,4,4,0,0,1,1.23,1.66,7.08,7.08,0,0,1,.48,2.84,14.25,14.25,0,0,1-.17,2.05h-9a8.41,8.41,0,0,0,.26,2.18,4.1,4.1,0,0,0,.78,1.61,3.41,3.41,0,0,0,1.39,1,5.36,5.36,0,0,0,2.08.35,5.82,5.82,0,0,0,1.91-.33,4.05,4.05,0,0,0,1.42-.79ZM166.48,37a3.88,3.88,0,0,0-2.65.87,4.34,4.34,0,0,0-1.19,3h7a4.28,4.28,0,0,0-.82-3A3,3,0,0,0,166.48,37Z"/><path d="M177.79,46a2.21,2.21,0,0,0,.34,1.4,1.14,1.14,0,0,0,1,.42,7.43,7.43,0,0,0,.78-.05,4.72,4.72,0,0,0,.95-.26l.26,1.77a4.61,4.61,0,0,1-1.25.36,8.47,8.47,0,0,1-1.39.14,3,3,0,0,1-2.07-.71,3.11,3.11,0,0,1-.81-2.42V29.81h2.24Z"/><path d="M189.63,45.6a1.72,1.72,0,0,0-.5-1.32,4.33,4.33,0,0,0-1.25-.8c-.49-.21-1-.42-1.62-.61a7.54,7.54,0,0,1-1.62-.76,4.17,4.17,0,0,1-1.25-1.19,3.35,3.35,0,0,1-.5-2A3.6,3.6,0,0,1,184,36a4.9,4.9,0,0,1,3.2-.94,10.64,10.64,0,0,1,2.53.26,10.48,10.48,0,0,1,1.78.63L191,37.81a9.37,9.37,0,0,0-1.56-.54,7.53,7.53,0,0,0-1.94-.24,3.08,3.08,0,0,0-1.81.42,1.69,1.69,0,0,0-.57,1.46,1.36,1.36,0,0,0,.5,1.13,5.64,5.64,0,0,0,1.25.73q.74.31,1.62.63a6.47,6.47,0,0,1,1.62.81,4.45,4.45,0,0,1,1.25,1.27,3.64,3.64,0,0,1,.5,2,4.64,4.64,0,0,1-.29,1.68,3.47,3.47,0,0,1-.91,1.35,4.39,4.39,0,0,1-1.53.88,6.51,6.51,0,0,1-2.14.32,10.1,10.1,0,0,1-2.71-.31,8.21,8.21,0,0,1-1.88-.72l.67-1.91a8.12,8.12,0,0,0,1.68.67,7.17,7.17,0,0,0,2.1.31,3.86,3.86,0,0,0,2-.47A1.84,1.84,0,0,0,189.63,45.6Z"/><path d="M205.48,48.29a6.42,6.42,0,0,1-2.11,1.06,9.18,9.18,0,0,1-2.7.39,6.79,6.79,0,0,1-2.78-.52A5,5,0,0,1,196,47.74a6.38,6.38,0,0,1-1.12-2.31,11.69,11.69,0,0,1-.36-3A8.23,8.23,0,0,1,196.07,37a5.69,5.69,0,0,1,4.57-1.88,8.78,8.78,0,0,1,1.9.21,4,4,0,0,1,2.94,2.46,7.08,7.08,0,0,1,.48,2.84,14.25,14.25,0,0,1-.17,2.05h-9a8.89,8.89,0,0,0,.25,2.18,4.12,4.12,0,0,0,.79,1.61,3.31,3.31,0,0,0,1.38,1,5.41,5.41,0,0,0,2.09.35,5.76,5.76,0,0,0,1.9-.33,4.11,4.11,0,0,0,1.43-.79ZM200.67,37a3.86,3.86,0,0,0-2.65.87,4.34,4.34,0,0,0-1.19,3h6.94a4.33,4.33,0,0,0-.81-3A3,3,0,0,0,200.67,37Z"/><path d="M215.65,45.6a1.73,1.73,0,0,0-.51-1.32,4.28,4.28,0,0,0-1.24-.8c-.5-.21-1-.42-1.63-.61a7.54,7.54,0,0,1-1.62-.76,4.17,4.17,0,0,1-1.25-1.19,3.43,3.43,0,0,1-.5-2,3.57,3.57,0,0,1,1.15-3,4.87,4.87,0,0,1,3.19-.94,10.58,10.58,0,0,1,2.53.26,10.18,10.18,0,0,1,1.78.63L217,37.81a9.37,9.37,0,0,0-1.56-.54,7.53,7.53,0,0,0-1.94-.24,3.1,3.1,0,0,0-1.81.42,1.69,1.69,0,0,0-.57,1.46,1.39,1.39,0,0,0,.5,1.13,5.64,5.64,0,0,0,1.25.73q.74.31,1.62.63a6.71,6.71,0,0,1,1.63.81,4.42,4.42,0,0,1,1.24,1.27,3.64,3.64,0,0,1,.51,2,4.64,4.64,0,0,1-.3,1.68,3.37,3.37,0,0,1-.91,1.35,4.44,4.44,0,0,1-1.52.88,6.58,6.58,0,0,1-2.15.32,10.1,10.1,0,0,1-2.71-.31,8.4,8.4,0,0,1-1.88-.72l.67-1.91a8.12,8.12,0,0,0,1.68.67,7.17,7.17,0,0,0,2.1.31,3.83,3.83,0,0,0,2-.47A1.85,1.85,0,0,0,215.65,45.6Z"/><path d="M229.48,49.41V41.48a18,18,0,0,0-.1-1.94,4.25,4.25,0,0,0-.38-1.39,1.86,1.86,0,0,0-.8-.84,2.76,2.76,0,0,0-1.35-.28,3.07,3.07,0,0,0-2.15.78,4.25,4.25,0,0,0-1.19,2v9.64h-2.24v-14h1.57l.42,1.7h.11a7,7,0,0,1,1.75-1.47,5.2,5.2,0,0,1,2.59-.57,4.14,4.14,0,0,1,2.2.52,3.38,3.38,0,0,1,1.33,1.8,4.55,4.55,0,0,1,1.78-1.7,5.19,5.19,0,0,1,2.56-.62,6.67,6.67,0,0,1,2,.26,2.83,2.83,0,0,1,1.34.94,4.18,4.18,0,0,1,.77,1.82,14.67,14.67,0,0,1,.24,2.91v8.41h-2.24V41a12.72,12.72,0,0,0-.1-1.75,3,3,0,0,0-.39-1.23,1.74,1.74,0,0,0-.81-.73A3.28,3.28,0,0,0,235,37a3,3,0,0,0-2.18.78,4.56,4.56,0,0,0-1.12,2.24v9.36Z"/><path d="M254.23,48.29a6.42,6.42,0,0,1-2.11,1.06,9.2,9.2,0,0,1-2.71.39,6.78,6.78,0,0,1-2.77-.52,4.9,4.9,0,0,1-1.93-1.48,6.38,6.38,0,0,1-1.12-2.31,11.69,11.69,0,0,1-.36-3A8.23,8.23,0,0,1,244.82,37a5.69,5.69,0,0,1,4.57-1.88,8.85,8.85,0,0,1,1.9.21,4.34,4.34,0,0,1,1.71.8,4.22,4.22,0,0,1,1.23,1.66,7.08,7.08,0,0,1,.48,2.84,14.25,14.25,0,0,1-.17,2.05h-9a8.43,8.43,0,0,0,.25,2.18,4.12,4.12,0,0,0,.79,1.61,3.31,3.31,0,0,0,1.38,1,5.41,5.41,0,0,0,2.09.35,5.76,5.76,0,0,0,1.9-.33,4.11,4.11,0,0,0,1.43-.79ZM249.41,37a3.86,3.86,0,0,0-2.64.87,4.3,4.3,0,0,0-1.19,3h6.94a4.33,4.33,0,0,0-.81-3A3,3,0,0,0,249.41,37Z"/><path d="M256.39,35.41h2.18V32.63l2.24-.64v3.42h3.81v2h-3.81v7.75a4.27,4.27,0,0,0,.36,2.06,1.35,1.35,0,0,0,1.24.6,4.4,4.4,0,0,0,1.23-.15c.33-.11.71-.24,1.12-.41l.5,1.71a8.66,8.66,0,0,1-1.65.59,7.92,7.92,0,0,1-1.93.22,2.79,2.79,0,0,1-2.41-1,5.68,5.68,0,0,1-.7-3.24V37.37h-2.18Z"/><path d="M266.63,42.41A8.26,8.26,0,0,1,268.22,37a5.59,5.59,0,0,1,4.55-1.89,6.62,6.62,0,0,1,2.73.52,4.91,4.91,0,0,1,1.91,1.48,6.24,6.24,0,0,1,1.12,2.33,11.23,11.23,0,0,1,.37,3,8.28,8.28,0,0,1-1.58,5.44,5.62,5.62,0,0,1-4.55,1.89,6.55,6.55,0,0,1-2.73-.52,4.87,4.87,0,0,1-1.92-1.48A6.27,6.27,0,0,1,267,45.42,11.33,11.33,0,0,1,266.63,42.41Zm2.33,0a9.67,9.67,0,0,0,.21,2,5.44,5.44,0,0,0,.66,1.71A3.45,3.45,0,0,0,271,47.33a3.3,3.3,0,0,0,1.77.45q3.8,0,3.8-5.37a10,10,0,0,0-.21-2.08,5.69,5.69,0,0,0-.65-1.71,3.54,3.54,0,0,0-1.18-1.16,3.38,3.38,0,0,0-1.76-.43Q269,37,269,42.41Z"/><path d="M293.18,44.59c0,.95,0,1.82,0,2.59a12.43,12.43,0,0,0,.25,2.28h-1.52l-.55-2h-.12a4.44,4.44,0,0,1-1.62,1.63,4.71,4.71,0,0,1-2.49.64A4.92,4.92,0,0,1,283,48q-1.37-1.77-1.36-5.52a7.81,7.81,0,0,1,1.7-5.44A5.94,5.94,0,0,1,288,35.15a8.87,8.87,0,0,1,1.64.12,7.8,7.8,0,0,1,1.3.36V29.81h2.24Zm-5.66,3.19a3.33,3.33,0,0,0,2.27-.74,4,4,0,0,0,1.15-2.25V37.84a3.16,3.16,0,0,0-1.15-.56,7.1,7.1,0,0,0-1.71-.17,3.76,3.76,0,0,0-3,1.28A6.17,6.17,0,0,0,284,42.46a11.75,11.75,0,0,0,.18,2.13,5.05,5.05,0,0,0,.6,1.68,3.07,3.07,0,0,0,2.77,1.51Z"/><path d="M307.71,48.29a6.52,6.52,0,0,1-2.11,1.06,9.2,9.2,0,0,1-2.71.39,6.75,6.75,0,0,1-2.77-.52,4.9,4.9,0,0,1-1.93-1.48,6.38,6.38,0,0,1-1.12-2.31,11.69,11.69,0,0,1-.36-3A8.23,8.23,0,0,1,298.3,37a5.69,5.69,0,0,1,4.57-1.88,8.85,8.85,0,0,1,1.9.21,4.34,4.34,0,0,1,1.71.8,4.22,4.22,0,0,1,1.23,1.66,7.08,7.08,0,0,1,.48,2.84,14.25,14.25,0,0,1-.17,2.05h-9a8.43,8.43,0,0,0,.25,2.18,4.12,4.12,0,0,0,.79,1.61,3.31,3.31,0,0,0,1.38,1,5.41,5.41,0,0,0,2.09.35,5.76,5.76,0,0,0,1.9-.33,4.11,4.11,0,0,0,1.43-.79ZM302.89,37a3.86,3.86,0,0,0-2.64.87,4.3,4.3,0,0,0-1.19,3H306a4.33,4.33,0,0,0-.81-3A3,3,0,0,0,302.89,37Z"/></g></g></svg>
