<svg id="Layer_1" data-name="Layer 1" xmlns="http://www.w3.org/2000/svg" viewBox="0 0 822.05 396.85"><defs><style>.cls-1,.cls-2{fill:none;}.cls-1{stroke:#a19e9e;}.cls-2{stroke:#d3d0d0;}.cls-3{isolation:isolate;}.cls-4{fill:#fcfcfc;}</style></defs><title>Artboard 2</title><g id="Rectangle_236" data-name="Rectangle 236"><rect x="10.52" y="4.93" width="801" height="387"/><rect class="cls-1" x="11.02" y="5.43" width="800" height="386"/></g><line id="Line_111" data-name="Line 111" class="cls-2" x1="62.52" y1="76.43" x2="706.02" y2="76.43"/><g id="Ordrebeskrivelse" class="cls-3"><g class="cls-3"><path class="cls-4" d="M90.09,50.13q0-4.91,2.07-7.52A7.08,7.08,0,0,1,98.07,40a8.16,8.16,0,0,1,3.59.73,6.74,6.74,0,0,1,2.5,2.05,9.16,9.16,0,0,1,1.47,3.2,16.68,16.68,0,0,1,.48,4.16c0,3.26-.7,5.77-2.09,7.51a7.15,7.15,0,0,1-6,2.62,8,8,0,0,1-3.54-.73A6.64,6.64,0,0,1,92,57.47a8.85,8.85,0,0,1-1.47-3.19A16.6,16.6,0,0,1,90.09,50.13Zm2.47,0a14,14,0,0,0,.32,3.08,8.23,8.23,0,0,0,1,2.56,5.27,5.27,0,0,0,1.72,1.76,4.57,4.57,0,0,0,2.48.66,4.84,4.84,0,0,0,4.09-2q1.49-2,1.48-6.09a14,14,0,0,0-.32-3.07,8,8,0,0,0-1-2.58,5.39,5.39,0,0,0-1.73-1.76,4.63,4.63,0,0,0-2.51-.66,4.75,4.75,0,0,0-4,2Q92.56,46,92.56,50.13Z"/><path class="cls-4" d="M116.44,48.08a5,5,0,0,0-1.6-.28,2.66,2.66,0,0,0-1.9.66,2.83,2.83,0,0,0-.87,1.67v9.8h-2.24v-14h1.57l.42,1.7h.11a4.42,4.42,0,0,1,1.28-1.47,3.25,3.25,0,0,1,1.89-.52,6.84,6.84,0,0,1,1.82.29Z"/><path class="cls-4" d="M130.1,55.11c0,1,0,1.82,0,2.59a13.37,13.37,0,0,0,.25,2.28h-1.51l-.56-2h-.11a4.52,4.52,0,0,1-1.62,1.63,4.72,4.72,0,0,1-2.5.64,4.92,4.92,0,0,1-4.15-1.76q-1.37-1.77-1.36-5.52a7.81,7.81,0,0,1,1.69-5.44,6,6,0,0,1,4.66-1.87,8.8,8.8,0,0,1,1.64.12,7.55,7.55,0,0,1,1.3.36V40.33h2.24Zm-5.65,3.19a3.33,3.33,0,0,0,2.27-.74,4,4,0,0,0,1.14-2.25v-7a3.12,3.12,0,0,0-1.14-.56,7.1,7.1,0,0,0-1.71-.17,3.79,3.79,0,0,0-3,1.28A6.23,6.23,0,0,0,120.89,53a11.75,11.75,0,0,0,.18,2.13,5.06,5.06,0,0,0,.61,1.68,3.05,3.05,0,0,0,1.1,1.1A3.13,3.13,0,0,0,124.45,58.3Z"/><path class="cls-4" d="M141,48.08a4.94,4.94,0,0,0-1.59-.28,2.67,2.67,0,0,0-1.91.66,2.87,2.87,0,0,0-.86,1.67v9.8h-2.25v-14H136l.42,1.7h.11a4.42,4.42,0,0,1,1.28-1.47,3.25,3.25,0,0,1,1.89-.52,6.78,6.78,0,0,1,1.82.29Z"/><path class="cls-4" d="M154.16,58.81A6.58,6.58,0,0,1,152,59.87a9.18,9.18,0,0,1-2.7.39,6.75,6.75,0,0,1-2.77-.52,4.83,4.83,0,0,1-1.93-1.48A6.4,6.4,0,0,1,143.51,56a11.69,11.69,0,0,1-.36-3,8.18,8.18,0,0,1,1.6-5.46,5.65,5.65,0,0,1,4.56-1.88,8.87,8.87,0,0,1,1.91.21,4.23,4.23,0,0,1,1.7.8,4.15,4.15,0,0,1,1.24,1.66,7.28,7.28,0,0,1,.47,2.84,14.25,14.25,0,0,1-.17,2h-9a8.41,8.41,0,0,0,.26,2.18,4.25,4.25,0,0,0,.78,1.61,3.41,3.41,0,0,0,1.39,1,5.55,5.55,0,0,0,2.08.35,5.82,5.82,0,0,0,1.91-.33,4.2,4.2,0,0,0,1.43-.79Zm-4.82-11.26a3.9,3.9,0,0,0-2.65.87,4.34,4.34,0,0,0-1.19,3h6.95a4.33,4.33,0,0,0-.81-3A3,3,0,0,0,149.34,47.55Z"/><path class="cls-4" d="M158.16,40.33h2.24v7h.11A4.38,4.38,0,0,1,162.15,46a5.2,5.2,0,0,1,2.17-.45,4.84,4.84,0,0,1,4.07,1.74q1.37,1.72,1.36,5.37A7.85,7.85,0,0,1,168,58.27a6.6,6.6,0,0,1-5,1.91,11.28,11.28,0,0,1-2.84-.34,7.43,7.43,0,0,1-1.92-.73Zm5.77,7.22a3.26,3.26,0,0,0-2.27.78,4.5,4.5,0,0,0-1.26,2.22V57.6a4,4,0,0,0,1.29.46,7.27,7.27,0,0,0,1.57.16,3.75,3.75,0,0,0,3-1.35,6.39,6.39,0,0,0,1.14-4.2,10.08,10.08,0,0,0-.2-2,4.76,4.76,0,0,0-.61-1.62,3.16,3.16,0,0,0-1.08-1.07A3.12,3.12,0,0,0,163.93,47.55Z"/><path class="cls-4" d="M183.5,58.81a6.52,6.52,0,0,1-2.11,1.06,9.2,9.2,0,0,1-2.71.39,6.75,6.75,0,0,1-2.77-.52A4.9,4.9,0,0,1,174,58.26,6.22,6.22,0,0,1,172.86,56a11.67,11.67,0,0,1-.37-3,8.23,8.23,0,0,1,1.6-5.46,5.69,5.69,0,0,1,4.57-1.88,8.85,8.85,0,0,1,1.9.21,4.34,4.34,0,0,1,1.71.8,4.22,4.22,0,0,1,1.23,1.66A7.1,7.1,0,0,1,184,51.1a14.14,14.14,0,0,1-.16,2h-9a8.43,8.43,0,0,0,.25,2.18,4.25,4.25,0,0,0,.78,1.61,3.41,3.41,0,0,0,1.39,1,5.6,5.6,0,0,0,2.09.35,5.76,5.76,0,0,0,1.9-.33,4.11,4.11,0,0,0,1.43-.79Zm-4.82-11.26a3.86,3.86,0,0,0-2.64.87,4.3,4.3,0,0,0-1.19,3h6.94a4.33,4.33,0,0,0-.81-3A3,3,0,0,0,178.68,47.55Z"/><path class="cls-4" d="M193.66,56.12a1.76,1.76,0,0,0-.5-1.32,4.33,4.33,0,0,0-1.25-.8c-.49-.21-1-.42-1.62-.61a7.85,7.85,0,0,1-1.63-.76,4.14,4.14,0,0,1-1.24-1.19,3.35,3.35,0,0,1-.51-2,3.6,3.6,0,0,1,1.15-2.95,4.89,4.89,0,0,1,3.19-.94,10.67,10.67,0,0,1,2.54.26,10.48,10.48,0,0,1,1.78.63L195,48.33a9.23,9.23,0,0,0-1.55-.54,7.66,7.66,0,0,0-1.95-.24,3.06,3.06,0,0,0-1.8.42,1.69,1.69,0,0,0-.58,1.46,1.37,1.37,0,0,0,.51,1.13,5.56,5.56,0,0,0,1.24.73c.5.21,1,.42,1.63.63a6.47,6.47,0,0,1,1.62.81A4.45,4.45,0,0,1,195.4,54a3.72,3.72,0,0,1,.5,2,4.86,4.86,0,0,1-.29,1.68,3.47,3.47,0,0,1-.91,1.35,4.56,4.56,0,0,1-1.53.88,6.51,6.51,0,0,1-2.14.32,10.23,10.23,0,0,1-2.72-.31,7.84,7.84,0,0,1-1.87-.73l.67-1.9a8.12,8.12,0,0,0,1.68.67,7.17,7.17,0,0,0,2.1.31,3.86,3.86,0,0,0,2-.47A1.84,1.84,0,0,0,193.66,56.12Z"/><path class="cls-4" d="M202.82,53.63h-1.29v6.3h-2.24V40.33h2.24V52.25l1.15-.39L207,45.93h2.6l-4.28,5.62-1.15.93,1.4,1.12,4.68,6.33h-2.78Z"/><path class="cls-4" d="M219.31,48.08a5,5,0,0,0-1.6-.28,2.66,2.66,0,0,0-1.9.66,2.83,2.83,0,0,0-.87,1.67v9.8H212.7v-14h1.57l.42,1.7h.11a4.42,4.42,0,0,1,1.28-1.47,3.25,3.25,0,0,1,1.89-.52,6.84,6.84,0,0,1,1.82.29Z"/><path class="cls-4" d="M222.22,41.67a1.57,1.57,0,0,1,.44-1.11,1.46,1.46,0,0,1,1.1-.46,1.63,1.63,0,0,1,1.15.46,1.49,1.49,0,0,1,.48,1.11,1.34,1.34,0,0,1-.48,1.06,1.68,1.68,0,0,1-1.15.42,1.51,1.51,0,0,1-1.1-.42A1.41,1.41,0,0,1,222.22,41.67Zm.48,4.26h2.24v14H222.7Z"/><path class="cls-4" d="M233.76,54.13l.78,2.66h0l.7-2.72,3.14-8.14h2.4l-6,14.3h-.95l-6.08-14.3h2.58Z"/><path class="cls-4" d="M253.13,58.81A6.42,6.42,0,0,1,251,59.87a9.18,9.18,0,0,1-2.7.39,6.71,6.71,0,0,1-2.77-.52,4.94,4.94,0,0,1-1.94-1.48A6.55,6.55,0,0,1,242.49,56a11.69,11.69,0,0,1-.36-3,8.18,8.18,0,0,1,1.6-5.46,5.65,5.65,0,0,1,4.56-1.88,8.78,8.78,0,0,1,1.9.21,4.21,4.21,0,0,1,1.71.8,4,4,0,0,1,1.23,1.66,7.08,7.08,0,0,1,.48,2.84,14.25,14.25,0,0,1-.17,2h-9a8.41,8.41,0,0,0,.26,2.18,4.1,4.1,0,0,0,.78,1.61,3.34,3.34,0,0,0,1.39,1,5.55,5.55,0,0,0,2.08.35,5.82,5.82,0,0,0,1.91-.33,4.05,4.05,0,0,0,1.42-.79Zm-4.81-11.26a3.88,3.88,0,0,0-2.65.87,4.34,4.34,0,0,0-1.19,3h7a4.28,4.28,0,0,0-.82-3A3,3,0,0,0,248.32,47.55Z"/><path class="cls-4" d="M259.63,56.48a2.21,2.21,0,0,0,.34,1.4,1.14,1.14,0,0,0,.95.42,7.43,7.43,0,0,0,.78,0,4.72,4.72,0,0,0,.95-.26l.26,1.77a4.61,4.61,0,0,1-1.25.36,8.47,8.47,0,0,1-1.39.14,3,3,0,0,1-2.07-.71,3.11,3.11,0,0,1-.81-2.42V40.33h2.24Z"/><path class="cls-4" d="M271.47,56.12a1.72,1.72,0,0,0-.5-1.32,4.33,4.33,0,0,0-1.25-.8c-.49-.21-1-.42-1.62-.61a7.54,7.54,0,0,1-1.62-.76,4.17,4.17,0,0,1-1.25-1.19,3.35,3.35,0,0,1-.5-2,3.6,3.6,0,0,1,1.14-2.95,4.9,4.9,0,0,1,3.2-.94,10.64,10.64,0,0,1,2.53.26,10.48,10.48,0,0,1,1.78.63l-.53,1.85a9.37,9.37,0,0,0-1.56-.54,7.58,7.58,0,0,0-1.94-.24,3.08,3.08,0,0,0-1.81.42,1.69,1.69,0,0,0-.57,1.46,1.36,1.36,0,0,0,.5,1.13,5.64,5.64,0,0,0,1.25.73q.73.32,1.62.63a6.47,6.47,0,0,1,1.62.81A4.45,4.45,0,0,1,273.21,54a3.64,3.64,0,0,1,.5,2,4.64,4.64,0,0,1-.29,1.68,3.47,3.47,0,0,1-.91,1.35,4.56,4.56,0,0,1-1.53.88,6.51,6.51,0,0,1-2.14.32,10.1,10.1,0,0,1-2.71-.31,7.76,7.76,0,0,1-1.88-.73l.67-1.9a8.12,8.12,0,0,0,1.68.67,7.17,7.17,0,0,0,2.1.31,3.86,3.86,0,0,0,2-.47A1.84,1.84,0,0,0,271.47,56.12Z"/><path class="cls-4" d="M287.32,58.81a6.42,6.42,0,0,1-2.11,1.06,9.18,9.18,0,0,1-2.7.39,6.79,6.79,0,0,1-2.78-.52,4.9,4.9,0,0,1-1.93-1.48A6.38,6.38,0,0,1,276.68,56a11.69,11.69,0,0,1-.36-3,8.23,8.23,0,0,1,1.59-5.46,5.69,5.69,0,0,1,4.57-1.88,8.78,8.78,0,0,1,1.9.21,4,4,0,0,1,2.94,2.46,7.08,7.08,0,0,1,.48,2.84,14.25,14.25,0,0,1-.17,2h-9a8.43,8.43,0,0,0,.25,2.18,4.12,4.12,0,0,0,.79,1.61,3.31,3.31,0,0,0,1.38,1,5.6,5.6,0,0,0,2.09.35,5.76,5.76,0,0,0,1.9-.33,4.11,4.11,0,0,0,1.43-.79Zm-4.81-11.26a3.86,3.86,0,0,0-2.65.87,4.34,4.34,0,0,0-1.19,3h6.94a4.33,4.33,0,0,0-.81-3A3,3,0,0,0,282.51,47.55Z"/></g></g><g id="Sub-total_" data-name="Sub-total " class="cls-3"><g class="cls-3"><path class="cls-4" d="M105.55,131.47a2.37,2.37,0,0,0-.63-1.71,6,6,0,0,0-1.56-1.17,19.41,19.41,0,0,0-2-1,11.25,11.25,0,0,1-2-1.09A5.76,5.76,0,0,1,97.72,125a4.25,4.25,0,0,1-.62-2.38,4,4,0,0,1,1.42-3.25,6.06,6.06,0,0,1,4-1.2,15.83,15.83,0,0,1,2.78.22,7.24,7.24,0,0,1,2,.58l-.63,1.84a9.24,9.24,0,0,0-1.68-.54,11.35,11.35,0,0,0-2.52-.26,3.61,3.61,0,0,0-2.47.74,2.32,2.32,0,0,0-.2,3.37,6.6,6.6,0,0,0,1.56,1.16c.63.34,1.31.68,2,1a12.68,12.68,0,0,1,2,1.16A6.2,6.2,0,0,1,107,129a4,4,0,0,1,.62,2.3,4.94,4.94,0,0,1-.4,2,4.19,4.19,0,0,1-1.17,1.55,5.62,5.62,0,0,1-1.88,1,8.31,8.31,0,0,1-2.5.34,14.07,14.07,0,0,1-3.1-.28,8.66,8.66,0,0,1-1.9-.64l.7-1.85a8.09,8.09,0,0,0,1.7.62,9.85,9.85,0,0,0,2.53.31,7,7,0,0,0,1.55-.17,3.62,3.62,0,0,0,1.25-.52,2.74,2.74,0,0,0,.84-.92A2.66,2.66,0,0,0,105.55,131.47Z"/><path class="cls-4" d="M112.52,123.43v7.12a10.73,10.73,0,0,0,.12,1.71,3.64,3.64,0,0,0,.38,1.23,1.88,1.88,0,0,0,.75.73,2.54,2.54,0,0,0,1.2.25,3.21,3.21,0,0,0,1.2-.21,3,3,0,0,0,.94-.58,4.11,4.11,0,0,0,.73-.87,5.29,5.29,0,0,0,.51-1v-8.34h2v8.95c0,.59,0,1.22.06,1.86a12.35,12.35,0,0,0,.21,1.69h-1.37l-.5-2h-.13a5,5,0,0,1-1.55,1.63,4.38,4.38,0,0,1-2.47.64,5.82,5.82,0,0,1-1.76-.23,2.71,2.71,0,0,1-1.28-.84,4,4,0,0,1-.77-1.61,10.22,10.22,0,0,1-.27-2.57v-7.54Z"/><path class="cls-4" d="M124.2,118.43h2v6.22h.1a3.91,3.91,0,0,1,1.46-1.13,4.77,4.77,0,0,1,1.94-.39,4.33,4.33,0,0,1,3.64,1.55,7.79,7.79,0,0,1,1.21,4.79,7,7,0,0,1-1.6,5,5.9,5.9,0,0,1-4.5,1.7,9.94,9.94,0,0,1-2.54-.3,6.74,6.74,0,0,1-1.71-.65Zm5.15,6.45a2.9,2.9,0,0,0-2,.7,4,4,0,0,0-1.12,2v6.3a3.78,3.78,0,0,0,1.15.41,7.07,7.07,0,0,0,1.4.14,3.36,3.36,0,0,0,2.71-1.2,5.72,5.72,0,0,0,1-3.75,9.46,9.46,0,0,0-.17-1.82,4.43,4.43,0,0,0-.55-1.45,2.6,2.6,0,0,0-2.4-1.3Z"/><path class="cls-4" d="M137.25,127.8h6.05v1.85h-6.05Z"/><path class="cls-4" d="M145.05,123.43H147V121l2-.57v3.05h3.4v1.75H149v6.92a3.87,3.87,0,0,0,.32,1.84,1.18,1.18,0,0,0,1.1.53,3.86,3.86,0,0,0,1.1-.13,8.43,8.43,0,0,0,1-.37l.45,1.53a7.28,7.28,0,0,1-1.47.52,6.84,6.84,0,0,1-1.73.2,2.48,2.48,0,0,1-2.15-.86,5.1,5.1,0,0,1-.62-2.89v-7.29h-1.95Z"/><path class="cls-4" d="M154.2,129.68a7.42,7.42,0,0,1,1.41-4.87,5,5,0,0,1,4.06-1.68,5.9,5.9,0,0,1,2.44.46,4.48,4.48,0,0,1,1.71,1.32,5.67,5.67,0,0,1,1,2.08,10.22,10.22,0,0,1,.33,2.69,7.41,7.41,0,0,1-1.41,4.86,5,5,0,0,1-4.07,1.68,5.89,5.89,0,0,1-2.43-.46,4.44,4.44,0,0,1-1.72-1.32,5.83,5.83,0,0,1-1-2.08A10.64,10.64,0,0,1,154.2,129.68Zm2.07,0a8.32,8.32,0,0,0,.19,1.82,4.59,4.59,0,0,0,.59,1.52,3,3,0,0,0,1,1.06,3,3,0,0,0,1.57.39q3.41,0,3.4-4.79a9.07,9.07,0,0,0-.18-1.85,5,5,0,0,0-.59-1.53,3.16,3.16,0,0,0-1.05-1,3,3,0,0,0-1.58-.38C157.41,124.86,156.27,126.46,156.27,129.68Z"/><path class="cls-4" d="M166.65,123.43h1.95V121l2-.57v3.05H174v1.75h-3.4v6.92a3.87,3.87,0,0,0,.32,1.84,1.18,1.18,0,0,0,1.1.53,3.86,3.86,0,0,0,1.1-.13,8.43,8.43,0,0,0,1-.37l.45,1.53a7.28,7.28,0,0,1-1.47.52,6.84,6.84,0,0,1-1.73.2,2.48,2.48,0,0,1-2.15-.86,5.1,5.1,0,0,1-.62-2.89v-7.29h-1.95Z"/><path class="cls-4" d="M176.57,124.35a7.27,7.27,0,0,1,2.21-.85,12.71,12.71,0,0,1,2.64-.28,5.06,5.06,0,0,1,2.09.36,2.9,2.9,0,0,1,1.2.91,3,3,0,0,1,.55,1.23,7.06,7.06,0,0,1,.14,1.36c0,1,0,2-.08,2.92s-.07,1.85-.07,2.7c0,.62,0,1.2.07,1.75a7.61,7.61,0,0,0,.28,1.52h-1.48l-.52-1.75h-.13a3.78,3.78,0,0,1-1.37,1.29,5.26,5.26,0,0,1-1.1.44,5.18,5.18,0,0,1-1.43.18,4.52,4.52,0,0,1-1.49-.25,3.53,3.53,0,0,1-1.18-.72,3.26,3.26,0,0,1-.79-1.11,3.6,3.6,0,0,1-.29-1.47,3.46,3.46,0,0,1,.45-1.84,3.26,3.26,0,0,1,1.26-1.18,6.27,6.27,0,0,1,2-.62,14.82,14.82,0,0,1,2.51-.19h.68a5.34,5.34,0,0,1,.69.05c0-.5.08-1,.08-1.35a2.73,2.73,0,0,0-.55-1.93,2.86,2.86,0,0,0-2-.55,7.39,7.39,0,0,0-.91.07,9.16,9.16,0,0,0-1,.18,8.7,8.7,0,0,0-1,.28,4.37,4.37,0,0,0-.81.38Zm3.55,10a4,4,0,0,0,1.25-.19,3.67,3.67,0,0,0,.95-.48,3.12,3.12,0,0,0,.67-.63,2.94,2.94,0,0,0,.38-.68v-2.07l-.71,0-.71,0a12.66,12.66,0,0,0-1.52.09,4.68,4.68,0,0,0-1.29.33,2.18,2.18,0,0,0-.9.65,1.55,1.55,0,0,0-.34,1,1.85,1.85,0,0,0,.62,1.43A2.29,2.29,0,0,0,180.12,134.38Z"/><path class="cls-4" d="M191.4,132.85a2,2,0,0,0,.3,1.25,1,1,0,0,0,.85.37,5.92,5.92,0,0,0,.7,0,4.37,4.37,0,0,0,.85-.23l.22,1.57a3.88,3.88,0,0,1-1.11.33,7.67,7.67,0,0,1-1.24.12,2.73,2.73,0,0,1-1.85-.63,2.78,2.78,0,0,1-.72-2.16v-15h2Z"/></g></g><g id="Fragt" class="cls-3"><g class="cls-3"><path class="cls-4" d="M97.65,165.43h9.52v1.84H99.72v6h7v1.85h-7v7.83H97.65Z"/><path class="cls-4" d="M116.27,172.35a4.39,4.39,0,0,0-1.42-.25,2.37,2.37,0,0,0-1.7.59,2.55,2.55,0,0,0-.78,1.49v8.75h-2v-12.5h1.4l.38,1.52h.1a3.68,3.68,0,0,1,1.14-1.31,2.85,2.85,0,0,1,1.68-.46,6,6,0,0,1,1.63.25Z"/><path class="cls-4" d="M118.67,171.35a7.23,7.23,0,0,1,2.22-.85,12.54,12.54,0,0,1,2.63-.28,5.06,5.06,0,0,1,2.09.36,2.78,2.78,0,0,1,1.2.91,3,3,0,0,1,.55,1.23,7.06,7.06,0,0,1,.14,1.36c0,1,0,2-.08,2.92s-.07,1.85-.07,2.7c0,.62,0,1.2.07,1.75a7.61,7.61,0,0,0,.28,1.52h-1.48l-.52-1.75h-.13a3.53,3.53,0,0,1-.56.69,3.34,3.34,0,0,1-.81.6,5.26,5.26,0,0,1-1.1.44,5.18,5.18,0,0,1-1.43.18,4.42,4.42,0,0,1-1.48-.25,3.48,3.48,0,0,1-1.19-.72,3.26,3.26,0,0,1-.79-1.11,3.6,3.6,0,0,1-.29-1.47,3.46,3.46,0,0,1,.45-1.84,3.22,3.22,0,0,1,1.27-1.18,6.13,6.13,0,0,1,2-.62,14.82,14.82,0,0,1,2.51-.19h.69a5.31,5.31,0,0,1,.68.05c0-.5.08-1,.08-1.35a2.68,2.68,0,0,0-.55-1.93,2.85,2.85,0,0,0-2-.55,7.54,7.54,0,0,0-.91.07,9.16,9.16,0,0,0-1,.18,8.7,8.7,0,0,0-1,.28,4.37,4.37,0,0,0-.81.38Zm3.55,10a4,4,0,0,0,1.25-.19,3.67,3.67,0,0,0,1-.48,3.12,3.12,0,0,0,.67-.63,2.94,2.94,0,0,0,.38-.68v-2.07l-.71,0-.71,0a12.38,12.38,0,0,0-1.51.09,4.66,4.66,0,0,0-1.3.33,2.18,2.18,0,0,0-.9.65,1.55,1.55,0,0,0-.34,1,1.85,1.85,0,0,0,.62,1.43A2.29,2.29,0,0,0,122.22,181.38Z"/><path class="cls-4" d="M140.85,183.5a4.56,4.56,0,0,1-1.29,3.58,5.6,5.6,0,0,1-3.81,1.14,12.86,12.86,0,0,1-2.41-.18,7.67,7.67,0,0,1-1.57-.49l.53-1.7c.38.15.81.29,1.27.42a8.34,8.34,0,0,0,3.54,0,2.25,2.25,0,0,0,1.06-.63,2.32,2.32,0,0,0,.55-1.12,7.84,7.84,0,0,0,.15-1.64v-1.2h-.1a3.39,3.39,0,0,1-1.27,1.11,4.53,4.53,0,0,1-2,.39,4.34,4.34,0,0,1-3.71-1.57,8.2,8.2,0,0,1-1.19-4.91,6.94,6.94,0,0,1,1.53-4.86,5.81,5.81,0,0,1,4.5-1.66,10.81,10.81,0,0,1,2.44.23,14.07,14.07,0,0,1,1.81.52Zm-5-2.05a2.9,2.9,0,0,0,2-.64,3.56,3.56,0,0,0,1-2v-6.4a5.92,5.92,0,0,0-2.55-.48,3.31,3.31,0,0,0-2.68,1.15,5.51,5.51,0,0,0-1,3.6,10.5,10.5,0,0,0,.17,1.93,4.82,4.82,0,0,0,.55,1.5,2.76,2.76,0,0,0,1,1A2.91,2.91,0,0,0,135.82,181.45Z"/><path class="cls-4" d="M143.05,170.43H145V168l2-.57v3.05h3.4v1.75H147v6.92a3.87,3.87,0,0,0,.32,1.84,1.18,1.18,0,0,0,1.1.53,3.86,3.86,0,0,0,1.1-.13,8.43,8.43,0,0,0,1-.37l.45,1.53a7.28,7.28,0,0,1-1.47.52,6.84,6.84,0,0,1-1.73.2,2.48,2.48,0,0,1-2.15-.86,5.1,5.1,0,0,1-.62-2.89v-7.29h-1.95Z"/></g></g><line id="Line_112" data-name="Line 112" class="cls-2" x1="70.52" y1="223.43" x2="714.02" y2="223.43"/><line id="Line_113" data-name="Line 113" class="cls-2" x1="70.52" y1="289.43" x2="714.02" y2="289.43"/><g id="Tilføj_kommentar" data-name="Tilføj kommentar" class="cls-3"><g class="cls-3"><path class="cls-4" d="M99.26,247.41H94.9v12.52H93.24V247.41H88.88v-1.48H99.26Z"/><path class="cls-4" d="M101.16,246.89a1.12,1.12,0,0,1,.31-.79,1,1,0,0,1,.79-.33,1.12,1.12,0,0,1,.82.33,1,1,0,0,1,.34.79,1,1,0,0,1-.34.75,1.14,1.14,0,0,1-.82.3,1.05,1.05,0,0,1-.79-.3A1,1,0,0,1,101.16,246.89Zm.34,3h1.6v10h-1.6Z"/><path class="cls-4" d="M108.3,257.47a1.63,1.63,0,0,0,.24,1,.83.83,0,0,0,.68.3,3.75,3.75,0,0,0,.56,0,2.93,2.93,0,0,0,.68-.17l.18,1.26a3.34,3.34,0,0,1-.89.25,5.63,5.63,0,0,1-1,.11,2.16,2.16,0,0,1-1.48-.51,2.25,2.25,0,0,1-.58-1.73v-12h1.6Z"/><path class="cls-4" d="M111.26,249.93h1.56v-.56a7.44,7.44,0,0,1,.15-1.6,2.71,2.71,0,0,1,.49-1.11,2,2,0,0,1,.88-.64,3.73,3.73,0,0,1,1.34-.21,6.31,6.31,0,0,1,1.13.08,4.87,4.87,0,0,1,1,.29l-.36,1.34a3.38,3.38,0,0,0-.87-.25,4.19,4.19,0,0,0-.77-.06,1.69,1.69,0,0,0-.81.16.92.92,0,0,0-.42.47,2.53,2.53,0,0,0-.16.76c0,.29,0,.65,0,1v.29h2.66v1.4h-2.66v8.6h-1.6v-8.6h-1.56Z"/><path class="cls-4" d="M118,254.93a5.9,5.9,0,0,1,1.13-3.89,4,4,0,0,1,3.25-1.36,4.33,4.33,0,0,1,2.44.65l.52-.7,1,.74-.58.84a4.34,4.34,0,0,1,.76,1.62,8.42,8.42,0,0,1,.24,2.1,5.83,5.83,0,0,1-1.13,3.88,4,4,0,0,1-3.25,1.36,4.42,4.42,0,0,1-2.56-.7l-.54.74-1-.77.66-.92a5,5,0,0,1-.68-1.59A8.81,8.81,0,0,1,118,254.93Zm1.66,0a7.36,7.36,0,0,0,.09,1.16,4.8,4.8,0,0,0,.27,1l3.94-5.47a2.9,2.9,0,0,0-.69-.4,2.68,2.68,0,0,0-.89-.14Q119.63,251.06,119.62,254.93Zm5.44,0a7.16,7.16,0,0,0-.1-1.24,3.76,3.76,0,0,0-.32-1.06l-4,5.54a3.51,3.51,0,0,0,.73.43,2.55,2.55,0,0,0,1,.17C124.16,258.78,125.06,257.5,125.06,254.93Z"/><path class="cls-4" d="M129.56,249.93h1.6v10.54a4.88,4.88,0,0,1-.64,2.78,2.3,2.3,0,0,1-2,.92h-.3l-.3,0v-1.36a2,2,0,0,0,.89-.17,1.17,1.17,0,0,0,.51-.54,2.42,2.42,0,0,0,.23-.9,12.4,12.4,0,0,0,.05-1.29Zm-.34-3a1.12,1.12,0,0,1,.31-.79,1,1,0,0,1,.79-.33,1.12,1.12,0,0,1,.82.33,1,1,0,0,1,.34.79,1,1,0,0,1-.34.75,1.14,1.14,0,0,1-.82.3,1.05,1.05,0,0,1-.79-.3A1,1,0,0,1,129.22,246.89Z"/><path class="cls-4" d="M142.44,255.43h-.92v4.5h-1.6v-14h1.6v8.51l.82-.27,3.1-4.24h1.86l-3.06,4-.82.66,1,.81,3.34,4.52h-2Z"/><path class="cls-4" d="M148.7,254.93a5.9,5.9,0,0,1,1.13-3.89,4,4,0,0,1,3.25-1.36,4.68,4.68,0,0,1,1.95.38,3.43,3.43,0,0,1,1.37,1.06,4.53,4.53,0,0,1,.8,1.65,8.1,8.1,0,0,1,.26,2.16,5.83,5.83,0,0,1-1.13,3.88,4,4,0,0,1-3.25,1.36,4.91,4.91,0,0,1-2-.37,3.62,3.62,0,0,1-1.37-1.07,4.7,4.7,0,0,1-.8-1.65A8.5,8.5,0,0,1,148.7,254.93Zm1.66,0a7,7,0,0,0,.15,1.46,3.87,3.87,0,0,0,.47,1.21,2.59,2.59,0,0,0,.84.84,2.32,2.32,0,0,0,1.26.33c1.82,0,2.72-1.27,2.72-3.84a7.17,7.17,0,0,0-.15-1.49,3.78,3.78,0,0,0-.47-1.22,2.3,2.3,0,0,0-2.1-1.13Q150.37,251.06,150.36,254.93Z"/><path class="cls-4" d="M165.84,259.93v-5.66a11.17,11.17,0,0,0-.07-1.39,2.64,2.64,0,0,0-.27-1,1.28,1.28,0,0,0-.57-.6,1.94,1.94,0,0,0-1-.2,2.2,2.2,0,0,0-1.53.55,3,3,0,0,0-.85,1.41v6.88H160v-10h1.12l.3,1.21h.08a4.78,4.78,0,0,1,1.25-1,3.62,3.62,0,0,1,1.85-.42,2.94,2.94,0,0,1,1.57.38,2.31,2.31,0,0,1,.95,1.29,3.24,3.24,0,0,1,1.27-1.22,3.7,3.7,0,0,1,1.83-.45,4.45,4.45,0,0,1,1.42.2,1.86,1.86,0,0,1,1,.67,2.94,2.94,0,0,1,.55,1.3,10,10,0,0,1,.17,2.08v6h-1.6v-6a9.09,9.09,0,0,0-.07-1.25,2.22,2.22,0,0,0-.28-.89,1.25,1.25,0,0,0-.58-.51,2.22,2.22,0,0,0-1-.17,2.14,2.14,0,0,0-1.56.55,3.3,3.3,0,0,0-.8,1.61v6.68Z"/><path class="cls-4" d="M182.08,259.93v-5.66a11.17,11.17,0,0,0-.07-1.39,2.64,2.64,0,0,0-.27-1,1.28,1.28,0,0,0-.57-.6,1.94,1.94,0,0,0-1-.2,2.2,2.2,0,0,0-1.53.55,3,3,0,0,0-.85,1.41v6.88h-1.6v-10h1.12l.3,1.21h.08a4.78,4.78,0,0,1,1.25-1,3.62,3.62,0,0,1,1.85-.42,2.94,2.94,0,0,1,1.57.38,2.31,2.31,0,0,1,1,1.29,3.24,3.24,0,0,1,1.27-1.22,3.7,3.7,0,0,1,1.83-.45,4.45,4.45,0,0,1,1.42.2,1.86,1.86,0,0,1,1,.67,2.94,2.94,0,0,1,.55,1.3,10,10,0,0,1,.17,2.08v6h-1.6v-6a9.09,9.09,0,0,0-.07-1.25,2.22,2.22,0,0,0-.28-.89,1.25,1.25,0,0,0-.58-.51,2.22,2.22,0,0,0-1-.17,2.14,2.14,0,0,0-1.56.55,3.3,3.3,0,0,0-.8,1.61v6.68Z"/><path class="cls-4" d="M199.76,259.13a4.75,4.75,0,0,1-1.51.76,6.72,6.72,0,0,1-1.93.28,5,5,0,0,1-2-.37,3.58,3.58,0,0,1-1.38-1.07,4.74,4.74,0,0,1-.8-1.64,8.53,8.53,0,0,1-.26-2.16A5.9,5.9,0,0,1,193,251a4.06,4.06,0,0,1,3.26-1.34,5.68,5.68,0,0,1,1.36.16,2.87,2.87,0,0,1,2.1,1.76,5,5,0,0,1,.34,2,10.09,10.09,0,0,1-.12,1.46h-6.42a6.05,6.05,0,0,0,.18,1.55,3.14,3.14,0,0,0,.56,1.16,2.59,2.59,0,0,0,1,.72,4.11,4.11,0,0,0,1.49.25,4,4,0,0,0,1.36-.25,2.68,2.68,0,0,0,1-.55Zm-3.44-8a2.76,2.76,0,0,0-1.89.62,3.14,3.14,0,0,0-.85,2.12h5a3.08,3.08,0,0,0-.58-2.14A2.16,2.16,0,0,0,196.32,251.09Z"/><path class="cls-4" d="M209,259.93v-5.71a4.8,4.8,0,0,0-.45-2.34,1.73,1.73,0,0,0-1.65-.79,2.62,2.62,0,0,0-1.75.57,3,3,0,0,0-1,1.43v6.84h-1.6v-10h1.12l.3,1.21h.08a3.63,3.63,0,0,1,1.29-1,4.16,4.16,0,0,1,1.93-.42,4.77,4.77,0,0,1,1.44.2,2,2,0,0,1,1,.67,3.11,3.11,0,0,1,.62,1.29,8.33,8.33,0,0,1,.21,2v6Z"/><path class="cls-4" d="M212.24,249.93h1.56v-2l1.6-.46v2.45h2.72v1.4H215.4v5.54a3.08,3.08,0,0,0,.26,1.47,1,1,0,0,0,.88.43,3.15,3.15,0,0,0,.88-.11l.8-.29.36,1.22a6.55,6.55,0,0,1-1.18.42,5.94,5.94,0,0,1-1.38.16,2,2,0,0,1-1.72-.7,4,4,0,0,1-.5-2.3v-5.84h-1.56Z"/><path class="cls-4" d="M220.18,250.67A5.84,5.84,0,0,1,222,250a10.41,10.41,0,0,1,2.11-.21,4.09,4.09,0,0,1,1.67.28,2.26,2.26,0,0,1,1,.72,2.56,2.56,0,0,1,.44,1,4.89,4.89,0,0,1,.11,1.08c0,.79,0,1.58-.06,2.33s-.06,1.49-.06,2.17c0,.49,0,1,.06,1.4a7.55,7.55,0,0,0,.22,1.22h-1.18l-.42-1.41h-.1a3.68,3.68,0,0,1-.45.56,2.74,2.74,0,0,1-.65.48,4.25,4.25,0,0,1-.88.34,3.94,3.94,0,0,1-1.14.15,3.58,3.58,0,0,1-1.19-.2,3,3,0,0,1-.95-.58,2.82,2.82,0,0,1-.63-.88,3,3,0,0,1-.23-1.18,2.82,2.82,0,0,1,.36-1.48,2.6,2.6,0,0,1,1-.93,4.69,4.69,0,0,1,1.56-.5,11.37,11.37,0,0,1,2-.16h.55a5.09,5.09,0,0,1,.55,0,10.64,10.64,0,0,0,.06-1.08,2.13,2.13,0,0,0-.44-1.54,2.26,2.26,0,0,0-1.6-.43,4.8,4.8,0,0,0-.73.05c-.26,0-.52.08-.8.14a6.41,6.41,0,0,0-.78.23,4.37,4.37,0,0,0-.65.3Zm2.84,8a3.06,3.06,0,0,0,1-.14,3.17,3.17,0,0,0,.76-.38,2.38,2.38,0,0,0,.53-.52,1.87,1.87,0,0,0,.31-.54v-1.66l-.57,0h-.57a12.1,12.1,0,0,0-1.21.06,4.28,4.28,0,0,0-1,.26,1.88,1.88,0,0,0-.72.53,1.24,1.24,0,0,0-.27.83,1.48,1.48,0,0,0,.5,1.14A1.81,1.81,0,0,0,223,258.68Z"/><path class="cls-4" d="M235,251.47a3.43,3.43,0,0,0-1.14-.2,1.93,1.93,0,0,0-1.36.46,2.08,2.08,0,0,0-.62,1.2v7h-1.6v-10h1.12l.3,1.21h.08a3,3,0,0,1,.91-1,2.29,2.29,0,0,1,1.35-.38,4.67,4.67,0,0,1,1.3.21Z"/></g></g><g id="Total" class="cls-3"><g class="cls-3"><path class="cls-4" d="M109,327.27H103.5v15.66h-2.08V327.27H96v-1.84h13Z"/><path class="cls-4" d="M107.42,336.68a7.37,7.37,0,0,1,1.42-4.87,5,5,0,0,1,4.06-1.68,6,6,0,0,1,2.44.46,4.48,4.48,0,0,1,1.71,1.32,5.83,5.83,0,0,1,1,2.08,10.67,10.67,0,0,1,.32,2.69,7.41,7.41,0,0,1-1.41,4.86,5,5,0,0,1-4.06,1.68,5.94,5.94,0,0,1-2.44-.46,4.48,4.48,0,0,1-1.71-1.32,5.83,5.83,0,0,1-1-2.08A10.19,10.19,0,0,1,107.42,336.68Zm2.08,0a8.32,8.32,0,0,0,.19,1.82,4.81,4.81,0,0,0,.58,1.52,3.22,3.22,0,0,0,1,1.06,3,3,0,0,0,1.58.39c2.26,0,3.4-1.58,3.4-4.79a8.4,8.4,0,0,0-.19-1.85,4.57,4.57,0,0,0-.59-1.53,2.88,2.88,0,0,0-2.62-1.42Q109.49,331.85,109.5,336.68Z"/><path class="cls-4" d="M119.87,330.43h1.95V328l2-.57v3.05h3.4v1.75h-3.4v6.92a3.73,3.73,0,0,0,.33,1.84,1.17,1.17,0,0,0,1.1.53,3.9,3.9,0,0,0,1.1-.13,9.13,9.13,0,0,0,1-.37l.45,1.53a7.17,7.17,0,0,1-1.48.52,6.76,6.76,0,0,1-1.72.2,2.46,2.46,0,0,1-2.15-.86,5,5,0,0,1-.63-2.89v-7.29h-1.95Z"/><path class="cls-4" d="M129.8,331.35a7.17,7.17,0,0,1,2.21-.85,12.57,12.57,0,0,1,2.64-.28,5.13,5.13,0,0,1,2.09.36,2.9,2.9,0,0,1,1.2.91,3.26,3.26,0,0,1,.55,1.23,7,7,0,0,1,.13,1.36c0,1,0,2-.07,2.92s-.08,1.85-.08,2.7c0,.62,0,1.2.08,1.75a8.41,8.41,0,0,0,.27,1.52h-1.47l-.53-1.75h-.12a3.94,3.94,0,0,1-.56.69,3.4,3.4,0,0,1-.82.6,4.85,4.85,0,0,1-1.1.44,5.1,5.1,0,0,1-1.42.18,4.48,4.48,0,0,1-1.49-.25,3.58,3.58,0,0,1-1.19-.72,3.38,3.38,0,0,1-.78-1.11,3.93,3.93,0,0,1,.16-3.31,3.26,3.26,0,0,1,1.26-1.18,6.13,6.13,0,0,1,2-.62,15,15,0,0,1,2.51-.19h.69a5.34,5.34,0,0,1,.69.05c.05-.5.07-.95.07-1.35a2.68,2.68,0,0,0-.55-1.93,2.83,2.83,0,0,0-2-.55,7.7,7.7,0,0,0-.91.07,9.61,9.61,0,0,0-1,.18,8.52,8.52,0,0,0-1,.28,4.81,4.81,0,0,0-.82.38Zm3.55,10a4,4,0,0,0,1.25-.19,3.84,3.84,0,0,0,1-.48,3.06,3.06,0,0,0,.66-.63,3,3,0,0,0,.39-.68v-2.07l-.71,0-.72,0a12.5,12.5,0,0,0-1.51.09,4.85,4.85,0,0,0-1.3.33,2.32,2.32,0,0,0-.9.65,1.6,1.6,0,0,0-.34,1,1.82,1.82,0,0,0,.63,1.43A2.27,2.27,0,0,0,133.35,341.38Z"/><path class="cls-4" d="M144.62,339.85a2,2,0,0,0,.3,1.25,1,1,0,0,0,.85.37,5.8,5.8,0,0,0,.7,0,4.19,4.19,0,0,0,.85-.23l.23,1.57a3.88,3.88,0,0,1-1.11.33,7.67,7.67,0,0,1-1.24.12,2.71,2.71,0,0,1-1.85-.63,2.75,2.75,0,0,1-.73-2.16v-15h2Z"/></g></g></svg>
