<svg id="Layer_1" data-name="Layer 1" xmlns="http://www.w3.org/2000/svg" viewBox="0 0 651.97 70"><defs><style>.cls-1{isolation:isolate;}.cls-2{fill:#fff;}</style></defs><title>pay_btn</title><rect id="Rectangle_174" data-name="Rectangle 174" x="3.98" width="644" height="70"/><g id="Betal" class="cls-1"><g class="cls-1"><path class="cls-2" d="M305.19,24.8a5.19,5.19,0,0,1-.24,1.53,5,5,0,0,1-.72,1.45A4.66,4.66,0,0,1,303,29a5.73,5.73,0,0,1-1.77.78v.12a7.33,7.33,0,0,1,1.73.51,4.67,4.67,0,0,1,1.45,1,4.88,4.88,0,0,1,1,1.53,5.33,5.33,0,0,1,.39,2.13,5.55,5.55,0,0,1-.67,2.8,5.79,5.79,0,0,1-1.77,1.94,7.84,7.84,0,0,1-2.51,1.11,11.6,11.6,0,0,1-2.88.36h-1.2c-.46,0-.94,0-1.44,0l-1.5-.13a8.63,8.63,0,0,1-1.32-.22V20.18q1.11-.18,2.58-.3t3.21-.12a15.08,15.08,0,0,1,2.39.19,6.58,6.58,0,0,1,2.2.75,4.67,4.67,0,0,1,1.64,1.55A4.59,4.59,0,0,1,305.19,24.8Zm-8.61,4.44,1.23,0q.72,0,1.2-.09a7.45,7.45,0,0,0,1.35-.59,5.15,5.15,0,0,0,1.13-.81,3.47,3.47,0,0,0,.78-1.08,3.08,3.08,0,0,0,.28-1.33,3.26,3.26,0,0,0-.37-1.64,2.93,2.93,0,0,0-1-1,4.6,4.6,0,0,0-1.44-.56,9,9,0,0,0-1.65-.16c-.66,0-1.26,0-1.81,0a8.6,8.6,0,0,0-1.25.14v7.14Zm1.65,9.84a8.16,8.16,0,0,0,1.86-.22,4.83,4.83,0,0,0,1.59-.73,3.74,3.74,0,0,0,1.1-1.21,3.43,3.43,0,0,0,.4-1.71,3.54,3.54,0,0,0-.49-2,3.46,3.46,0,0,0-1.29-1.17,5.61,5.61,0,0,0-1.79-.57,13.2,13.2,0,0,0-2-.15H295v7.53a3.21,3.21,0,0,0,.6.09l.84.06.93,0Z"/><path class="cls-2" d="M320.76,39.8a6.75,6.75,0,0,1-2.26,1.14,9.82,9.82,0,0,1-2.9.42,7.32,7.32,0,0,1-3-.56,5.19,5.19,0,0,1-2.07-1.59,6.78,6.78,0,0,1-1.2-2.47A12.4,12.4,0,0,1,309,33.5a8.8,8.8,0,0,1,1.71-5.85,6.07,6.07,0,0,1,4.89-2,9.44,9.44,0,0,1,2,.22,4.34,4.34,0,0,1,3.15,2.64,7.69,7.69,0,0,1,.51,3.05,14.87,14.87,0,0,1-.18,2.19h-9.63a9.18,9.18,0,0,0,.27,2.34,4.54,4.54,0,0,0,.84,1.72,3.57,3.57,0,0,0,1.49,1.08,5.68,5.68,0,0,0,2.23.38,6.1,6.1,0,0,0,2-.36,4.34,4.34,0,0,0,1.53-.84ZM315.6,27.74a4.14,4.14,0,0,0-2.83.93,4.66,4.66,0,0,0-1.28,3.18h7.44a4.64,4.64,0,0,0-.87-3.2A3.23,3.23,0,0,0,315.6,27.74Z"/><path class="cls-2" d="M323.07,26h2.34V23l2.4-.69V26h4.08v2.1h-4.08v8.31a4.48,4.48,0,0,0,.39,2.2,1.42,1.42,0,0,0,1.32.65,4.55,4.55,0,0,0,1.32-.17,11.18,11.18,0,0,0,1.2-.43l.54,1.83a9.23,9.23,0,0,1-1.77.63,8.52,8.52,0,0,1-2.07.24,3,3,0,0,1-2.58-1,6.05,6.05,0,0,1-.75-3.46V28.1h-2.34Z"/><path class="cls-2" d="M335,27.11a8.67,8.67,0,0,1,2.66-1,14.79,14.79,0,0,1,3.16-.33,6.27,6.27,0,0,1,2.51.42,3.42,3.42,0,0,1,1.44,1.1,3.67,3.67,0,0,1,.66,1.48,8.09,8.09,0,0,1,.16,1.62q0,1.8-.09,3.51t-.09,3.24q0,1.11.09,2.1a9.93,9.93,0,0,0,.33,1.83H344l-.63-2.1h-.15a4.92,4.92,0,0,1-.67.82,4.36,4.36,0,0,1-1,.72,6.16,6.16,0,0,1-1.32.53,6.35,6.35,0,0,1-1.71.21,5.16,5.16,0,0,1-1.78-.3,4.2,4.2,0,0,1-1.43-.86,4,4,0,0,1-.94-1.33,4.33,4.33,0,0,1-.35-1.77,4.12,4.12,0,0,1,.54-2.2,3.93,3.93,0,0,1,1.52-1.42,7.76,7.76,0,0,1,2.34-.75,18.57,18.57,0,0,1,3-.22h.83a5.76,5.76,0,0,1,.82.06q.09-.9.09-1.62a3.22,3.22,0,0,0-.66-2.31,3.38,3.38,0,0,0-2.4-.66,8.61,8.61,0,0,0-1.09.08q-.58.07-1.2.21c-.41.1-.8.21-1.17.34a7,7,0,0,0-1,.45Zm4.26,12a4.5,4.5,0,0,0,2.64-.8,3.64,3.64,0,0,0,.8-.76,3.38,3.38,0,0,0,.46-.81V34.28c-.28,0-.56,0-.85,0l-.86,0a15.32,15.32,0,0,0-1.81.1,6.59,6.59,0,0,0-1.56.39,2.74,2.74,0,0,0-1.08.78,1.92,1.92,0,0,0-.41,1.25,2.21,2.21,0,0,0,.75,1.72A2.76,2.76,0,0,0,339.24,39.14Z"/><path class="cls-2" d="M352.77,37.31a2.43,2.43,0,0,0,.36,1.5,1.23,1.23,0,0,0,1,.45,6.38,6.38,0,0,0,.84-.06,4.86,4.86,0,0,0,1-.27l.27,1.89a5,5,0,0,1-1.33.39,8.81,8.81,0,0,1-1.49.15,3.19,3.19,0,0,1-2.22-.77,3.3,3.3,0,0,1-.87-2.59V20h2.4Z"/></g></g></svg>
